<?xml version="1.0" encoding="utf-8" ?>
<svg baseProfile="tiny" height="341" version="1.2" width="341" xmlns="http://www.w3.org/2000/svg" xmlns:ev="http://www.w3.org/2001/xml-events" xmlns:xlink="http://www.w3.org/1999/xlink"><defs /><polyline fill="none" points="193.0,220.0 196.0,223.0" stroke="black" stroke-width="1" /><polyline fill="none" points="175.0,225.0 182.0,225.0" stroke="black" stroke-width="1" /><polyline fill="none" points="152.0,225.0 160.0,225.0" stroke="black" stroke-width="1" /><polyline fill="none" points="142.0,231.0 149.0,235.0" stroke="black" stroke-width="1" /><polyline fill="none" points="158.0,214.0 168.0,215.0" stroke="black" stroke-width="1" /><polyline fill="none" points="158.0,237.0 168.0,237.0" stroke="black" stroke-width="1" /><polyline fill="none" points="187.0,217.0 193.0,220.0" stroke="black" stroke-width="1" /><polyline fill="none" points="192.0,231.0 196.0,228.0" stroke="black" stroke-width="1" /><polyline fill="none" points="187.0,225.0 191.0,225.0" stroke="black" stroke-width="1" /><polyline fill="none" points="175.0,225.0 182.0,225.0" stroke="black" stroke-width="1" /><polyline fill="none" points="191.0,225.0 196.0,226.0" stroke="black" stroke-width="1" /><polyline fill="none" points="168.0,237.0 177.0,236.0" stroke="black" stroke-width="1" /><polyline fill="none" points="133.0,226.0 137.0,229.0" stroke="black" stroke-width="1" /><polyline fill="none" points="136.0,226.0 141.0,226.0" stroke="black" stroke-width="1" /><polyline fill="none" points="168.0,215.0 177.0,214.0" stroke="black" stroke-width="1" /><polyline fill="none" points="160.0,225.0 168.0,225.0" stroke="black" stroke-width="1" /><polyline fill="none" points="177.0,236.0 185.0,234.0" stroke="black" stroke-width="1" /><polyline fill="none" points="152.0,225.0 159.0,225.0" stroke="black" stroke-width="1" /><polyline fill="none" points="177.0,214.0 187.0,217.0" stroke="black" stroke-width="1" /><polyline fill="none" points="133.0,226.0 136.0,224.0" stroke="black" stroke-width="1" /><polyline fill="none" points="167.0,225.0 175.0,225.0" stroke="black" stroke-width="1" /><polyline fill="none" points="146.0,226.0 152.0,225.0" stroke="black" stroke-width="1" /><polyline fill="none" points="136.0,224.0 141.0,221.0" stroke="black" stroke-width="1" /><polyline fill="none" points="185.0,234.0 192.0,231.0" stroke="black" stroke-width="1" /><polyline fill="none" points="168.0,225.0 175.0,225.0" stroke="black" stroke-width="1" /><polyline fill="none" points="191.0,225.0 196.0,226.0" stroke="black" stroke-width="1" /><polyline fill="none" points="196.0,223.0 199.0,226.0" stroke="black" stroke-width="1" /><polyline fill="none" points="137.0,229.0 142.0,231.0" stroke="black" stroke-width="1" /><polyline fill="none" points="159.0,225.0 167.0,225.0" stroke="black" stroke-width="1" /><polyline fill="none" points="136.0,226.0 141.0,226.0" stroke="black" stroke-width="1" /><polyline fill="none" points="141.0,226.0 146.0,226.0" stroke="black" stroke-width="1" /><polyline fill="none" points="182.0,225.0 187.0,225.0" stroke="black" stroke-width="1" /><polyline fill="none" points="148.0,217.0 158.0,214.0" stroke="black" stroke-width="1" /><polyline fill="none" points="141.0,221.0 148.0,217.0" stroke="black" stroke-width="1" /><polyline fill="none" points="182.0,225.0 187.0,225.0" stroke="black" stroke-width="1" /><polyline fill="none" points="141.0,226.0 146.0,225.0" stroke="black" stroke-width="1" /><polyline fill="none" points="146.0,225.0 152.0,225.0" stroke="black" stroke-width="1" /><polyline fill="none" points="187.0,225.0 191.0,225.0" stroke="black" stroke-width="1" /><polyline fill="none" points="149.0,235.0 158.0,237.0" stroke="black" stroke-width="1" /><polyline fill="none" points="196.0,228.0 199.0,226.0" stroke="black" stroke-width="1" /><polyline fill="none" points="211.0,145.0 204.0,145.0" stroke="black" stroke-width="1" /><polyline fill="none" points="221.0,143.0 217.0,144.0" stroke="black" stroke-width="1" /><polyline fill="none" points="224.0,141.0 221.0,143.0" stroke="black" stroke-width="1" /><polyline fill="none" points="204.0,136.0 197.0,138.0" stroke="black" stroke-width="1" /><polyline fill="none" points="217.0,144.0 211.0,145.0" stroke="black" stroke-width="1" /><polyline fill="none" points="226.0,139.0 224.0,138.0" stroke="black" stroke-width="1" /><polyline fill="none" points="217.0,136.0 211.0,135.0" stroke="black" stroke-width="1" /><polyline fill="none" points="198.0,144.0 193.0,144.0" stroke="black" stroke-width="1" /><polyline fill="none" points="197.0,138.0 193.0,141.0" stroke="black" stroke-width="1" /><polyline fill="none" points="224.0,138.0 222.0,137.0" stroke="black" stroke-width="1" /><polyline fill="none" points="211.0,135.0 204.0,136.0" stroke="black" stroke-width="1" /><polyline fill="none" points="222.0,137.0 217.0,136.0" stroke="black" stroke-width="1" /><polyline fill="none" points="226.0,139.0 224.0,141.0" stroke="black" stroke-width="1" /><polyline fill="none" points="204.0,145.0 198.0,144.0" stroke="black" stroke-width="1" /><polyline fill="none" points="193.0,141.0 191.0,143.0" stroke="black" stroke-width="1" /><polyline fill="none" points="193.0,144.0 191.0,143.0" stroke="black" stroke-width="1" /><polyline fill="none" points="136.0,146.0 140.0,145.0" stroke="black" stroke-width="1" /><polyline fill="none" points="108.0,143.0 110.0,144.0" stroke="black" stroke-width="1" /><polyline fill="none" points="110.0,141.0 112.0,140.0" stroke="black" stroke-width="1" /><polyline fill="none" points="123.0,138.0 130.0,138.0" stroke="black" stroke-width="1" /><polyline fill="none" points="117.0,146.0 123.0,147.0" stroke="black" stroke-width="1" /><polyline fill="none" points="140.0,143.0 142.0,145.0" stroke="black" stroke-width="1" /><polyline fill="none" points="130.0,138.0 136.0,140.0" stroke="black" stroke-width="1" /><polyline fill="none" points="113.0,145.0 117.0,146.0" stroke="black" stroke-width="1" /><polyline fill="none" points="130.0,147.0 136.0,146.0" stroke="black" stroke-width="1" /><polyline fill="none" points="110.0,144.0 113.0,145.0" stroke="black" stroke-width="1" /><polyline fill="none" points="112.0,140.0 117.0,139.0" stroke="black" stroke-width="1" /><polyline fill="none" points="136.0,140.0 140.0,143.0" stroke="black" stroke-width="1" /><polyline fill="none" points="108.0,143.0 110.0,141.0" stroke="black" stroke-width="1" /><polyline fill="none" points="117.0,139.0 123.0,138.0" stroke="black" stroke-width="1" /><polyline fill="none" points="123.0,147.0 130.0,147.0" stroke="black" stroke-width="1" /><polyline fill="none" points="140.0,145.0 142.0,145.0" stroke="black" stroke-width="1" /><polyline fill="none" points="222.0,104.0 205.0,106.0" stroke="black" stroke-width="1" /><polyline fill="none" points="239.0,120.0 231.0,114.0" stroke="black" stroke-width="1" /><polyline fill="none" points="235.0,108.0 222.0,104.0" stroke="black" stroke-width="1" /><polyline fill="none" points="204.0,113.0 184.0,121.0" stroke="black" stroke-width="1" /><polyline fill="none" points="205.0,106.0 186.0,109.0" stroke="black" stroke-width="1" /><polyline fill="none" points="220.0,111.0 204.0,113.0" stroke="black" stroke-width="1" /><polyline fill="none" points="231.0,114.0 220.0,111.0" stroke="black" stroke-width="1" /><polyline fill="none" points="243.0,117.0 235.0,108.0" stroke="black" stroke-width="1" /><polyline fill="none" points="94.0,125.0 102.0,119.0" stroke="black" stroke-width="1" /><polyline fill="none" points="127.0,109.0 146.0,112.0" stroke="black" stroke-width="1" /><polyline fill="none" points="114.0,115.0 129.0,116.0" stroke="black" stroke-width="1" /><polyline fill="none" points="102.0,119.0 114.0,115.0" stroke="black" stroke-width="1" /><polyline fill="none" points="98.0,114.0 111.0,109.0" stroke="black" stroke-width="1" /><polyline fill="none" points="89.0,123.0 98.0,114.0" stroke="black" stroke-width="1" /><polyline fill="none" points="129.0,116.0 149.0,123.0" stroke="black" stroke-width="1" /><polyline fill="none" points="111.0,109.0 127.0,109.0" stroke="black" stroke-width="1" /><polyline fill="none" points="192.0,189.0 192.0,185.0" stroke="black" stroke-width="1" /><polyline fill="none" points="167.0,166.0 167.0,177.0" stroke="black" stroke-width="1" /><polyline fill="none" points="153.0,179.0 147.0,181.0" stroke="black" stroke-width="1" /><polyline fill="none" points="187.0,181.0 181.0,178.0" stroke="black" stroke-width="1" /><polyline fill="none" points="160.0,177.0 153.0,179.0" stroke="black" stroke-width="1" /><polyline fill="none" points="167.0,150.0 167.0,158.0" stroke="black" stroke-width="1" /><polyline fill="none" points="167.0,177.0 160.0,177.0" stroke="black" stroke-width="1" /><polyline fill="none" points="167.0,190.0 167.0,192.0" stroke="black" stroke-width="1" /><polyline fill="none" points="167.0,142.0 167.0,150.0" stroke="black" stroke-width="1" /><polyline fill="none" points="145.0,195.0 158.0,195.0" stroke="black" stroke-width="1" /><polyline fill="none" points="167.0,133.0 167.0,142.0" stroke="black" stroke-width="1" /><polyline fill="none" points="167.0,192.0 167.0,195.0" stroke="black" stroke-width="1" /><polyline fill="none" points="167.0,158.0 167.0,166.0" stroke="black" stroke-width="1" /><polyline fill="none" points="142.0,190.0 145.0,195.0" stroke="black" stroke-width="1" /><polyline fill="none" points="175.0,177.0 167.0,177.0" stroke="black" stroke-width="1" /><polyline fill="none" points="177.0,195.0 189.0,195.0" stroke="black" stroke-width="1" /><polyline fill="none" points="192.0,185.0 187.0,181.0" stroke="black" stroke-width="1" /><polyline fill="none" points="181.0,178.0 175.0,177.0" stroke="black" stroke-width="1" /><polyline fill="none" points="167.0,177.0 167.0,185.0" stroke="black" stroke-width="1" /><polyline fill="none" points="189.0,195.0 192.0,189.0" stroke="black" stroke-width="1" /><polyline fill="none" points="147.0,181.0 142.0,186.0" stroke="black" stroke-width="1" /><polyline fill="none" points="142.0,186.0 142.0,190.0" stroke="black" stroke-width="1" /><polyline fill="none" points="167.0,185.0 167.0,190.0" stroke="black" stroke-width="1" /><polyline fill="none" points="167.0,195.0 177.0,195.0" stroke="black" stroke-width="1" /><polyline fill="none" points="158.0,195.0 167.0,195.0" stroke="black" stroke-width="1" /><polyline fill="none" points="137.0,278.0 126.0,274.0" stroke="black" stroke-width="1" /><polyline fill="none" points="213.0,77.0 233.0,85.0" stroke="black" stroke-width="1" /><polyline fill="none" points="115.0,268.0 103.0,258.0" stroke="black" stroke-width="1" /><polyline fill="none" points="141.0,74.0 166.0,72.0" stroke="black" stroke-width="1" /><polyline fill="none" points="261.0,151.0 261.0,171.0" stroke="black" stroke-width="1" /><polyline fill="none" points="85.0,232.0 79.0,212.0" stroke="black" stroke-width="1" /><polyline fill="none" points="168.0,283.0 151.0,282.0" stroke="black" stroke-width="1" /><polyline fill="none" points="257.0,210.0 252.0,231.0" stroke="black" stroke-width="1" /><polyline fill="none" points="75.0,133.0 79.0,116.0" stroke="black" stroke-width="1" /><polyline fill="none" points="254.0,114.0 259.0,131.0" stroke="black" stroke-width="1" /><polyline fill="none" points="79.0,212.0 76.0,191.0" stroke="black" stroke-width="1" /><polyline fill="none" points="166.0,72.0 191.0,73.0" stroke="black" stroke-width="1" /><polyline fill="none" points="259.0,131.0 261.0,151.0" stroke="black" stroke-width="1" /><polyline fill="none" points="246.0,98.0 254.0,114.0" stroke="black" stroke-width="1" /><polyline fill="none" points="198.0,278.0 185.0,281.0" stroke="black" stroke-width="1" /><polyline fill="none" points="103.0,258.0 93.0,248.0" stroke="black" stroke-width="1" /><polyline fill="none" points="185.0,281.0 168.0,283.0" stroke="black" stroke-width="1" /><polyline fill="none" points="260.0,190.0 257.0,210.0" stroke="black" stroke-width="1" /><polyline fill="none" points="87.0,100.0 100.0,87.0" stroke="black" stroke-width="1" /><polyline fill="none" points="79.0,116.0 87.0,100.0" stroke="black" stroke-width="1" /><polyline fill="none" points="93.0,248.0 85.0,232.0" stroke="black" stroke-width="1" /><polyline fill="none" points="120.0,78.0 141.0,74.0" stroke="black" stroke-width="1" /><polyline fill="none" points="261.0,171.0 260.0,190.0" stroke="black" stroke-width="1" /><polyline fill="none" points="234.0,257.0 221.0,267.0" stroke="black" stroke-width="1" /><polyline fill="none" points="221.0,267.0 210.0,273.0" stroke="black" stroke-width="1" /><polyline fill="none" points="151.0,282.0 137.0,278.0" stroke="black" stroke-width="1" /><polyline fill="none" points="76.0,191.0 74.0,173.0" stroke="black" stroke-width="1" /><polyline fill="none" points="233.0,85.0 246.0,98.0" stroke="black" stroke-width="1" /><polyline fill="none" points="244.0,246.0 234.0,257.0" stroke="black" stroke-width="1" /><polyline fill="none" points="191.0,73.0 213.0,77.0" stroke="black" stroke-width="1" /><polyline fill="none" points="126.0,274.0 115.0,268.0" stroke="black" stroke-width="1" /><polyline fill="none" points="252.0,231.0 244.0,246.0" stroke="black" stroke-width="1" /><polyline fill="none" points="74.0,173.0 73.0,154.0" stroke="black" stroke-width="1" /><polyline fill="none" points="100.0,87.0 120.0,78.0" stroke="black" stroke-width="1" /><polyline fill="none" points="210.0,273.0 198.0,278.0" stroke="black" stroke-width="1" /><polyline fill="none" points="73.0,154.0 75.0,133.0" stroke="black" stroke-width="1" /><polyline fill="none" points="214.0,139.0 206.0,133.0" stroke="black" stroke-width="1" /><polyline fill="none" points="206.0,133.0 199.0,139.0" stroke="black" stroke-width="1" /><polyline fill="none" points="199.0,139.0 207.0,146.0" stroke="black" stroke-width="1" /><polyline fill="none" points="207.0,146.0 214.0,139.0" stroke="black" stroke-width="1" /><polyline fill="none" points="135.0,142.0 127.0,135.0" stroke="black" stroke-width="1" /><polyline fill="none" points="127.0,135.0 119.0,141.0" stroke="black" stroke-width="1" /><polyline fill="none" points="119.0,141.0 127.0,148.0" stroke="black" stroke-width="1" /><polyline fill="none" points="127.0,148.0 135.0,142.0" stroke="black" stroke-width="1" /><polyline fill="none" points="197.0,280.0 197.0,281.0 195.0,283.0 193.0,283.0 192.0,284.0 191.0,284.0 190.0,285.0 189.0,285.0 188.0,286.0 187.0,286.0 186.0,287.0 182.0,287.0 181.0,288.0 180.0,288.0 179.0,289.0 176.0,289.0 175.0,290.0 165.0,290.0 164.0,289.0 160.0,289.0 159.0,288.0 156.0,288.0 155.0,287.0 151.0,287.0 149.0,285.0 145.0,285.0 144.0,284.0 142.0,284.0 141.0,283.0 139.0,283.0 139.0,285.0 140.0,286.0 141.0,286.0 142.0,287.0 146.0,287.0 148.0,289.0 150.0,289.0 151.0,290.0 157.0,290.0 158.0,291.0 162.0,291.0 163.0,292.0 177.0,292.0 178.0,291.0 181.0,291.0 182.0,290.0 183.0,290.0 184.0,289.0 190.0,289.0 192.0,287.0 193.0,287.0 194.0,286.0 195.0,286.0 196.0,285.0 197.0,285.0 198.0,284.0 199.0,284.0 200.0,283.0 200.0,281.0 199.0,280.0" stroke="black" stroke-width="1" /><polyline fill="none" points="135.0,272.0 135.0,274.0 137.0,276.0 139.0,276.0 141.0,278.0 144.0,278.0 146.0,281.0 148.0,281.0 149.0,282.0 151.0,282.0 151.0,281.0 152.0,280.0 154.0,280.0 155.0,281.0 158.0,281.0 159.0,282.0 159.0,283.0 161.0,283.0 162.0,282.0 164.0,282.0 165.0,281.0 181.0,281.0 182.0,280.0 189.0,280.0 190.0,279.0 192.0,279.0 195.0,277.0 198.0,277.0 201.0,275.0 201.0,273.0 199.0,273.0 196.0,275.0 193.0,275.0 192.0,276.0 191.0,276.0 190.0,277.0 188.0,277.0 187.0,278.0 176.0,278.0 175.0,279.0 173.0,279.0 172.0,278.0 170.0,278.0 169.0,279.0 162.0,279.0 161.0,278.0 153.0,278.0 150.0,276.0 143.0,276.0 141.0,274.0 139.0,274.0 137.0,272.0" stroke="black" stroke-width="1" /><polyline fill="none" points="158.0,228.0 159.0,227.0 160.0,228.0 169.0,228.0 170.0,227.0 180.0,227.0 181.0,228.0 179.0,230.0 177.0,230.0 176.0,231.0 169.0,231.0 168.0,232.0 166.0,232.0 165.0,231.0 163.0,231.0 162.0,232.0 155.0,232.0 154.0,231.0 154.0,229.0 155.0,228.0" stroke="black" stroke-width="1" /><polyline fill="none" points="157.0,216.0 158.0,215.0 160.0,215.0 161.0,216.0 162.0,216.0 165.0,218.0 168.0,218.0 170.0,216.0 171.0,217.0 174.0,217.0 176.0,215.0 178.0,215.0 179.0,216.0 180.0,216.0 183.0,218.0 185.0,218.0 187.0,220.0 186.0,221.0 178.0,221.0 177.0,222.0 173.0,222.0 172.0,221.0 157.0,221.0 156.0,222.0 155.0,221.0 153.0,221.0 152.0,222.0 147.0,222.0 147.0,224.0 156.0,224.0 157.0,225.0 156.0,226.0 139.0,226.0 139.0,227.0 138.0,228.0 137.0,227.0 135.0,227.0 134.0,226.0 136.0,224.0 138.0,224.0 139.0,223.0 140.0,223.0 142.0,221.0 144.0,221.0 145.0,220.0 146.0,220.0 148.0,218.0 149.0,218.0 150.0,217.0 152.0,217.0 153.0,216.0" stroke="black" stroke-width="1" /><polyline fill="none" points="174.0,212.0 174.0,213.0 173.0,214.0 168.0,214.0 167.0,215.0 165.0,215.0 162.0,213.0 156.0,213.0 155.0,214.0 151.0,214.0 150.0,215.0 148.0,215.0 147.0,216.0 146.0,216.0 144.0,218.0 143.0,218.0 142.0,219.0 140.0,219.0 139.0,220.0 138.0,220.0 136.0,222.0 134.0,222.0 133.0,223.0 130.0,223.0 128.0,225.0 128.0,227.0 129.0,228.0 131.0,228.0 132.0,229.0 135.0,229.0 139.0,233.0 141.0,233.0 142.0,234.0 143.0,234.0 145.0,236.0 147.0,236.0 150.0,239.0 153.0,239.0 153.0,237.0 152.0,236.0 152.0,235.0 153.0,234.0 154.0,234.0 155.0,235.0 157.0,235.0 158.0,234.0 170.0,234.0 171.0,233.0 179.0,233.0 180.0,232.0 182.0,232.0 183.0,231.0 183.0,228.0 184.0,227.0 190.0,227.0 191.0,228.0 194.0,228.0 194.0,226.0 193.0,226.0 192.0,225.0 187.0,225.0 186.0,224.0 187.0,223.0 187.0,221.0 188.0,220.0 190.0,220.0 190.0,218.0 189.0,218.0 187.0,216.0 185.0,216.0 184.0,215.0 183.0,215.0 180.0,213.0 178.0,213.0 177.0,212.0" stroke="black" stroke-width="1" /><polyline fill="none" points="68.0,169.0 69.0,170.0 69.0,171.0 70.0,172.0 70.0,173.0 69.0,174.0 67.0,174.0 67.0,175.0 66.0,176.0 66.0,178.0 67.0,179.0 66.0,180.0 66.0,182.0 65.0,183.0 64.0,183.0 63.0,182.0 63.0,181.0 62.0,180.0 62.0,177.0 63.0,176.0 63.0,174.0" stroke="black" stroke-width="1" /><polyline fill="none" points="272.0,164.0 273.0,163.0 275.0,165.0 275.0,170.0 274.0,171.0 274.0,172.0 269.0,177.0 268.0,176.0 268.0,173.0 267.0,173.0 266.0,172.0 267.0,171.0 267.0,169.0 268.0,168.0 268.0,167.0 270.0,165.0 272.0,165.0" stroke="black" stroke-width="1" /><polyline fill="none" points="180.0,160.0 181.0,165.0 184.0,168.0 188.0,175.0 192.0,178.0 195.0,184.0 195.0,189.0 193.0,192.0 191.0,189.0 186.0,188.0 181.0,184.0 175.0,183.0 174.0,184.0 165.0,183.0 164.0,180.0 162.0,179.0 157.0,173.0 156.0,169.0 158.0,166.0 158.0,162.0 151.0,162.0 150.0,165.0 146.0,168.0 140.0,178.0 136.0,182.0 137.0,189.0 139.0,189.0 139.0,184.0 142.0,181.0 147.0,172.0 151.0,169.0 153.0,166.0 154.0,167.0 153.0,173.0 155.0,174.0 156.0,178.0 162.0,182.0 162.0,184.0 160.0,185.0 159.0,184.0 151.0,183.0 144.0,191.0 140.0,191.0 138.0,194.0 138.0,196.0 142.0,199.0 147.0,200.0 149.0,198.0 152.0,198.0 152.0,195.0 159.0,190.0 161.0,195.0 170.0,195.0 172.0,194.0 172.0,192.0 174.0,191.0 177.0,193.0 181.0,193.0 186.0,199.0 186.0,201.0 188.0,201.0 191.0,199.0 196.0,193.0 198.0,186.0 195.0,177.0 193.0,174.0 190.0,172.0 182.0,160.0" stroke="black" stroke-width="1" /><polyline fill="none" points="201.0,146.0 202.0,145.0 203.0,145.0 204.0,146.0 210.0,146.0 211.0,145.0 212.0,146.0 212.0,147.0 216.0,147.0 217.0,148.0 217.0,149.0 216.0,150.0 208.0,150.0 207.0,151.0 206.0,151.0 205.0,150.0 203.0,150.0 201.0,148.0" stroke="black" stroke-width="1" /><polyline fill="none" points="59.0,142.0 63.0,142.0 66.0,145.0 66.0,146.0 67.0,147.0 67.0,149.0 68.0,150.0 68.0,153.0 67.0,154.0 65.0,154.0 65.0,156.0 67.0,156.0 68.0,157.0 68.0,164.0 62.0,170.0 62.0,171.0 61.0,172.0 61.0,174.0 60.0,175.0 60.0,177.0 59.0,178.0 58.0,177.0 58.0,171.0 57.0,170.0 57.0,165.0 56.0,164.0 56.0,163.0 55.0,162.0 55.0,160.0 56.0,159.0 56.0,155.0 57.0,154.0 57.0,151.0 59.0,149.0 60.0,149.0 61.0,150.0 61.0,151.0 60.0,152.0 60.0,153.0 59.0,154.0 59.0,155.0 58.0,156.0 58.0,159.0 59.0,159.0 60.0,160.0 59.0,161.0 59.0,167.0 61.0,167.0 61.0,163.0 62.0,162.0 62.0,158.0 61.0,157.0 62.0,156.0 62.0,155.0 63.0,154.0 63.0,147.0 62.0,146.0 58.0,146.0 57.0,145.0 57.0,144.0" stroke="black" stroke-width="1" /><polyline fill="none" points="115.0,139.0 116.0,138.0 127.0,138.0 128.0,139.0 132.0,139.0 133.0,140.0 133.0,141.0 128.0,146.0 124.0,146.0 123.0,145.0 123.0,144.0 120.0,141.0 120.0,140.0 116.0,140.0" stroke="black" stroke-width="1" /><polyline fill="none" points="215.0,136.0 216.0,135.0 217.0,136.0 223.0,136.0 224.0,137.0 227.0,137.0 228.0,138.0 229.0,138.0 230.0,139.0 229.0,140.0 226.0,140.0 225.0,141.0 223.0,141.0 221.0,139.0 220.0,139.0 219.0,138.0 213.0,138.0 212.0,139.0 212.0,140.0 208.0,144.0 206.0,144.0 205.0,143.0 204.0,143.0 200.0,139.0 200.0,138.0 201.0,137.0 203.0,137.0 204.0,136.0" stroke="black" stroke-width="1" /><polyline fill="none" points="114.0,136.0 113.0,137.0 108.0,137.0 107.0,138.0 105.0,138.0 104.0,139.0 101.0,139.0 100.0,140.0 99.0,140.0 98.0,141.0 96.0,141.0 96.0,147.0 100.0,147.0 101.0,146.0 110.0,146.0 111.0,147.0 112.0,147.0 113.0,148.0 115.0,148.0 116.0,149.0 121.0,149.0 122.0,148.0 131.0,148.0 132.0,149.0 141.0,149.0 142.0,148.0 142.0,144.0 141.0,143.0 141.0,141.0 139.0,139.0 138.0,139.0 137.0,138.0 135.0,138.0 134.0,137.0 130.0,137.0 129.0,136.0" stroke="black" stroke-width="1" /><polyline fill="none" points="214.0,133.0 213.0,134.0 202.0,134.0 201.0,135.0 199.0,135.0 198.0,136.0 196.0,136.0 195.0,137.0 194.0,137.0 192.0,139.0 192.0,140.0 191.0,141.0 191.0,146.0 192.0,147.0 197.0,147.0 198.0,148.0 198.0,150.0 199.0,151.0 200.0,151.0 201.0,152.0 203.0,152.0 204.0,153.0 209.0,153.0 210.0,152.0 211.0,152.0 212.0,153.0 217.0,153.0 218.0,152.0 219.0,152.0 220.0,151.0 220.0,149.0 219.0,148.0 218.0,148.0 217.0,147.0 218.0,146.0 220.0,146.0 221.0,145.0 222.0,145.0 223.0,144.0 224.0,144.0 225.0,143.0 227.0,143.0 228.0,142.0 229.0,142.0 230.0,143.0 241.0,143.0 242.0,142.0 243.0,142.0 244.0,141.0 244.0,139.0 240.0,139.0 239.0,138.0 239.0,137.0 237.0,137.0 236.0,136.0 230.0,136.0 229.0,135.0 226.0,135.0 225.0,134.0 219.0,134.0 218.0,133.0" stroke="black" stroke-width="1" /><polyline fill="none" points="145.0,120.0 146.0,119.0 148.0,119.0 151.0,122.0 153.0,122.0 155.0,124.0 155.0,127.0 152.0,130.0 149.0,130.0 148.0,131.0 140.0,131.0 137.0,128.0 137.0,127.0 136.0,126.0 136.0,125.0 137.0,124.0 141.0,124.0 142.0,123.0 144.0,123.0 145.0,122.0" stroke="black" stroke-width="1" /><polyline fill="none" points="192.0,112.0 193.0,111.0 194.0,112.0 194.0,114.0 195.0,115.0 196.0,115.0 198.0,117.0 196.0,119.0 194.0,119.0 191.0,122.0 185.0,122.0 183.0,124.0 182.0,124.0 181.0,123.0 181.0,115.0 182.0,114.0 187.0,114.0 188.0,113.0 190.0,113.0 191.0,112.0" stroke="black" stroke-width="1" /><polyline fill="none" points="110.0,112.0 111.0,111.0 115.0,111.0 116.0,112.0 117.0,112.0 118.0,113.0 121.0,113.0 122.0,112.0 133.0,112.0 134.0,111.0 135.0,112.0 136.0,112.0 137.0,113.0 138.0,113.0 141.0,116.0 141.0,117.0 143.0,119.0 141.0,121.0 140.0,121.0 139.0,122.0 137.0,120.0 135.0,120.0 135.0,122.0 136.0,123.0 135.0,124.0 134.0,124.0 133.0,123.0 131.0,123.0 130.0,122.0 129.0,122.0 128.0,121.0 127.0,121.0 126.0,120.0 124.0,120.0 123.0,119.0 118.0,119.0 117.0,118.0 115.0,118.0 114.0,117.0 103.0,117.0 102.0,118.0 99.0,118.0 98.0,117.0 100.0,115.0 101.0,115.0 102.0,114.0 104.0,114.0 105.0,113.0 107.0,113.0 108.0,112.0" stroke="black" stroke-width="1" /><polyline fill="none" points="203.0,108.0 204.0,107.0 207.0,107.0 208.0,108.0 210.0,108.0 211.0,109.0 212.0,109.0 214.0,111.0 213.0,112.0 212.0,112.0 211.0,111.0 209.0,111.0 208.0,110.0 204.0,110.0 203.0,111.0 202.0,111.0 201.0,112.0 200.0,112.0 199.0,113.0 198.0,113.0 197.0,112.0 197.0,111.0 195.0,111.0 194.0,110.0 196.0,108.0" stroke="black" stroke-width="1" /><polyline fill="none" points="113.0,108.0 112.0,109.0 108.0,109.0 105.0,111.0 103.0,111.0 102.0,112.0 100.0,112.0 99.0,113.0 97.0,113.0 94.0,116.0 93.0,116.0 93.0,118.0 94.0,119.0 94.0,120.0 106.0,120.0 107.0,119.0 112.0,119.0 113.0,120.0 115.0,120.0 116.0,121.0 121.0,121.0 122.0,122.0 124.0,122.0 125.0,123.0 128.0,124.0 129.0,125.0 129.0,126.0 132.0,126.0 134.0,128.0 135.0,131.0 136.0,132.0 137.0,132.0 138.0,133.0 138.0,134.0 140.0,134.0 141.0,133.0 146.0,133.0 147.0,134.0 147.0,135.0 149.0,135.0 149.0,134.0 151.0,132.0 154.0,132.0 155.0,131.0 156.0,131.0 156.0,130.0 157.0,129.0 157.0,127.0 159.0,124.0 159.0,122.0 158.0,122.0 156.0,120.0 154.0,120.0 151.0,117.0 149.0,117.0 148.0,116.0 148.0,113.0 147.0,112.0 144.0,112.0 143.0,111.0 140.0,111.0 139.0,110.0 137.0,110.0 136.0,109.0 132.0,109.0 131.0,110.0 118.0,110.0 116.0,108.0" stroke="black" stroke-width="1" /><polyline fill="none" points="218.0,107.0 219.0,106.0 222.0,106.0 224.0,108.0 226.0,108.0 227.0,109.0 231.0,109.0 232.0,110.0 233.0,110.0 234.0,111.0 235.0,111.0 236.0,112.0 235.0,113.0 232.0,113.0 231.0,112.0 229.0,112.0 228.0,111.0 216.0,111.0 215.0,110.0 215.0,108.0 216.0,107.0" stroke="black" stroke-width="1" /><polyline fill="none" points="217.0,104.0 216.0,105.0 213.0,105.0 212.0,106.0 210.0,106.0 209.0,105.0 194.0,106.0 187.0,111.0 185.0,111.0 184.0,112.0 179.0,112.0 179.0,117.0 177.0,120.0 174.0,120.0 173.0,121.0 173.0,125.0 175.0,129.0 174.0,131.0 175.0,135.0 183.0,143.0 183.0,144.0 189.0,145.0 189.0,143.0 188.0,142.0 186.0,142.0 185.0,140.0 177.0,132.0 177.0,127.0 176.0,126.0 176.0,123.0 177.0,122.0 179.0,123.0 179.0,125.0 181.0,127.0 185.0,127.0 185.0,126.0 187.0,124.0 193.0,124.0 199.0,121.0 201.0,118.0 201.0,116.0 204.0,113.0 206.0,112.0 207.0,113.0 209.0,113.0 210.0,114.0 208.0,116.0 207.0,116.0 206.0,118.0 202.0,120.0 202.0,122.0 199.0,125.0 197.0,126.0 194.0,126.0 194.0,128.0 195.0,129.0 200.0,129.0 200.0,128.0 204.0,125.0 204.0,123.0 206.0,121.0 209.0,120.0 215.0,114.0 217.0,113.0 226.0,113.0 230.0,115.0 237.0,115.0 238.0,116.0 241.0,116.0 242.0,111.0 233.0,107.0 229.0,107.0 228.0,106.0 226.0,106.0 224.0,104.0" stroke="black" stroke-width="1" /><polyline fill="none" points="86.0,0.0 56.0,38.0 51.0,79.0 59.0,126.0 55.0,184.0 90.0,251.0 91.0,303.0 72.0,326.0 29.0,340.0 80.0,323.0 84.0,340.0 93.0,305.0 92.0,249.0 57.0,180.0 75.0,199.0 77.0,138.0 96.0,73.0 147.0,59.0 156.0,49.0 216.0,61.0 225.0,79.0 218.0,80.0 258.0,128.0 259.0,191.0 276.0,175.0 267.0,149.0 271.0,138.0 280.0,138.0 273.0,143.0 278.0,178.0 256.0,207.0 240.0,255.0 238.0,308.0 253.0,327.0 250.0,340.0 250.0,318.0 302.0,340.0 240.0,306.0 242.0,257.0 257.0,212.0 281.0,176.0 283.0,137.0 273.0,129.0 284.0,48.0 276.0,28.0 249.0,0.0 282.0,50.0 280.0,96.0 265.0,147.0 272.0,162.0 264.0,172.0 260.0,126.0 246.0,97.0 230.0,88.0 217.0,57.0 185.0,46.0 147.0,48.0 94.0,70.0 72.0,169.0 53.0,62.0 64.0,30.0 90.0,0.0" stroke="black" stroke-width="1" /></svg>