<?xml version="1.0" encoding="utf-8" ?>
<svg baseProfile="tiny" height="341" version="1.2" width="341" xmlns="http://www.w3.org/2000/svg" xmlns:ev="http://www.w3.org/2001/xml-events" xmlns:xlink="http://www.w3.org/1999/xlink"><defs /><polyline fill="none" points="86.0,321.0 85.0,322.0 84.0,322.0 84.0,323.0 82.0,325.0 82.0,326.0 81.0,327.0 81.0,335.0 82.0,336.0 82.0,339.0 83.0,340.0 82.0,339.0 82.0,336.0 81.0,335.0 81.0,327.0 84.0,324.0 84.0,323.0" stroke="black" stroke-width="2" /><polyline fill="none" points="246.0,319.0 246.0,320.0 247.0,320.0 249.0,322.0 250.0,322.0 254.0,326.0 254.0,332.0 253.0,333.0 253.0,335.0 252.0,336.0 252.0,337.0 251.0,338.0 251.0,340.0 251.0,339.0 252.0,338.0 252.0,337.0 253.0,336.0 253.0,333.0 254.0,332.0 254.0,325.0 251.0,322.0 250.0,322.0 248.0,320.0 247.0,320.0" stroke="black" stroke-width="2" /><polyline fill="none" points="244.0,316.0 244.0,317.0 246.0,317.0 247.0,316.0 250.0,316.0 251.0,317.0 254.0,317.0 255.0,318.0 257.0,318.0 258.0,319.0 259.0,319.0 264.0,324.0 264.0,325.0 265.0,325.0 266.0,326.0 273.0,326.0 274.0,327.0 275.0,327.0 276.0,328.0 278.0,328.0 279.0,329.0 280.0,329.0 282.0,331.0 283.0,331.0 286.0,334.0 288.0,334.0 289.0,335.0 290.0,335.0 291.0,336.0 292.0,336.0 293.0,337.0 294.0,337.0 295.0,338.0 297.0,338.0 298.0,339.0 298.0,340.0 299.0,339.0 301.0,339.0 299.0,339.0 298.0,338.0 296.0,338.0 295.0,337.0 294.0,337.0 293.0,336.0 291.0,336.0 289.0,334.0 287.0,334.0 285.0,332.0 284.0,332.0 281.0,329.0 279.0,329.0 278.0,328.0 276.0,328.0 275.0,327.0 274.0,327.0 273.0,326.0 267.0,326.0 266.0,325.0 265.0,325.0 264.0,324.0 264.0,323.0 260.0,319.0 258.0,319.0 257.0,318.0 255.0,318.0 254.0,317.0 251.0,317.0 250.0,316.0" stroke="black" stroke-width="2" /><polyline fill="none" points="198.0,282.0 196.0,284.0 194.0,284.0 193.0,285.0 192.0,285.0 191.0,286.0 190.0,286.0 190.0,287.0 189.0,288.0 188.0,287.0 187.0,288.0 183.0,288.0 182.0,289.0 181.0,289.0 180.0,290.0 177.0,290.0 176.0,291.0 164.0,291.0 163.0,290.0 159.0,290.0 158.0,289.0 155.0,289.0 154.0,288.0 153.0,289.0 152.0,289.0 151.0,288.0 150.0,288.0 148.0,286.0 144.0,286.0 143.0,285.0 141.0,285.0 140.0,284.0 141.0,285.0 142.0,285.0 143.0,286.0 147.0,286.0 149.0,288.0 151.0,288.0 152.0,289.0 153.0,289.0 154.0,288.0 155.0,289.0 158.0,289.0 159.0,290.0 163.0,290.0 164.0,291.0 176.0,291.0 177.0,290.0 180.0,290.0 181.0,289.0 182.0,289.0 183.0,288.0 187.0,288.0 188.0,287.0 189.0,288.0 191.0,286.0 192.0,286.0 193.0,285.0 194.0,285.0 195.0,284.0 196.0,284.0 197.0,283.0 198.0,283.0" stroke="black" stroke-width="2" /><polyline fill="none" points="136.0,273.0 138.0,275.0 140.0,275.0 142.0,277.0 149.0,277.0 152.0,279.0 155.0,279.0 156.0,280.0 157.0,280.0 158.0,279.0 160.0,279.0 163.0,281.0 164.0,280.0 170.0,280.0 171.0,279.0 172.0,280.0 176.0,280.0 177.0,279.0 178.0,279.0 179.0,280.0 180.0,280.0 181.0,279.0 188.0,279.0 189.0,278.0 191.0,278.0 194.0,276.0 197.0,276.0 200.0,274.0 197.0,276.0 194.0,276.0 193.0,277.0 192.0,277.0 191.0,278.0 189.0,278.0 188.0,279.0 181.0,279.0 180.0,280.0 179.0,280.0 178.0,279.0 177.0,279.0 176.0,280.0 172.0,280.0 171.0,279.0 170.0,280.0 164.0,280.0 163.0,281.0 160.0,279.0 158.0,279.0 157.0,280.0 156.0,280.0 155.0,279.0 152.0,279.0 149.0,277.0 142.0,277.0 140.0,275.0 138.0,275.0" stroke="black" stroke-width="2" /><polyline fill="none" points="153.0,230.0 151.0,232.0 152.0,232.0 153.0,233.0 155.0,233.0 156.0,234.0 157.0,233.0 163.0,233.0 164.0,232.0 165.0,233.0 169.0,233.0 170.0,232.0 178.0,232.0 179.0,231.0 178.0,231.0 177.0,232.0 170.0,232.0 169.0,233.0 165.0,233.0 164.0,232.0 163.0,233.0 157.0,233.0 156.0,234.0 155.0,233.0 154.0,233.0 152.0,231.0" stroke="black" stroke-width="2" /><polyline fill="none" points="158.0,226.0 157.0,227.0 140.0,227.0 143.0,227.0 144.0,228.0 145.0,227.0 157.0,227.0 158.0,226.0 160.0,226.0 161.0,227.0 168.0,227.0 169.0,226.0 191.0,226.0 192.0,227.0 198.0,227.0 199.0,228.0 200.0,228.0 202.0,230.0 203.0,229.0 202.0,230.0 200.0,228.0 201.0,227.0 200.0,228.0 199.0,228.0 198.0,227.0 198.0,226.0 197.0,227.0 192.0,227.0 191.0,226.0 169.0,226.0 168.0,227.0 161.0,227.0 160.0,226.0" stroke="black" stroke-width="2" /><polyline fill="none" points="154.0,222.0 153.0,223.0 148.0,223.0 158.0,223.0 159.0,222.0 171.0,222.0 172.0,223.0 178.0,223.0 179.0,222.0 181.0,222.0 182.0,223.0 183.0,222.0 184.0,222.0 185.0,223.0 186.0,222.0 183.0,222.0 182.0,223.0 181.0,222.0 179.0,222.0 178.0,223.0 172.0,223.0 171.0,222.0 158.0,222.0 157.0,223.0 155.0,223.0" stroke="black" stroke-width="2" /><polyline fill="none" points="157.0,214.0 156.0,215.0 152.0,215.0 151.0,216.0 149.0,216.0 148.0,217.0 147.0,217.0 145.0,219.0 144.0,219.0 143.0,220.0 141.0,220.0 140.0,221.0 139.0,221.0 137.0,223.0 135.0,223.0 134.0,224.0 131.0,224.0 129.0,226.0 130.0,227.0 132.0,227.0 133.0,228.0 136.0,228.0 140.0,232.0 142.0,232.0 143.0,233.0 144.0,233.0 146.0,235.0 148.0,235.0 150.0,237.0 151.0,237.0 151.0,236.0 149.0,236.0 148.0,235.0 146.0,235.0 144.0,233.0 143.0,233.0 142.0,232.0 141.0,232.0 138.0,229.0 137.0,229.0 136.0,228.0 134.0,228.0 133.0,227.0 133.0,226.0 132.0,227.0 130.0,227.0 129.0,226.0 132.0,224.0 134.0,224.0 135.0,223.0 137.0,223.0 138.0,222.0 139.0,222.0 141.0,220.0 143.0,220.0 144.0,219.0 145.0,219.0 147.0,217.0 148.0,217.0 149.0,216.0 151.0,216.0 152.0,215.0 156.0,215.0 157.0,214.0 161.0,214.0 162.0,215.0 163.0,215.0 166.0,217.0 167.0,217.0 169.0,215.0 171.0,215.0 172.0,216.0 173.0,216.0 174.0,215.0 173.0,216.0 172.0,216.0 171.0,215.0 169.0,215.0 167.0,217.0 166.0,217.0 165.0,216.0 164.0,216.0 161.0,214.0" stroke="black" stroke-width="2" /><polyline fill="none" points="175.0,213.0 176.0,213.0 177.0,214.0 179.0,214.0 180.0,215.0 181.0,215.0 182.0,216.0 183.0,216.0 184.0,217.0 186.0,217.0 188.0,219.0 189.0,219.0 192.0,222.0 193.0,222.0 194.0,223.0 195.0,223.0 196.0,224.0 201.0,224.0 205.0,228.0 206.0,227.0 205.0,228.0 203.0,226.0 203.0,225.0 202.0,224.0 199.0,224.0 198.0,223.0 194.0,223.0 193.0,222.0 192.0,222.0 189.0,219.0 188.0,219.0 186.0,217.0 184.0,217.0 183.0,216.0 182.0,216.0 181.0,215.0 180.0,215.0 179.0,214.0 177.0,214.0 176.0,213.0" stroke="black" stroke-width="2" /><polyline fill="none" points="161.0,191.0 161.0,193.0 162.0,194.0 169.0,194.0 170.0,193.0 171.0,193.0 171.0,192.0 170.0,193.0 169.0,193.0 168.0,194.0 163.0,194.0 161.0,192.0" stroke="black" stroke-width="2" /><polyline fill="none" points="152.0,185.0 157.0,185.0 159.0,187.0 156.0,190.0 155.0,190.0 153.0,192.0 151.0,192.0 150.0,193.0 149.0,192.0 149.0,191.0 148.0,190.0 148.0,189.0" stroke="black" stroke-width="2" /><polyline fill="none" points="176.0,184.0 175.0,185.0 172.0,185.0 171.0,186.0 172.0,187.0 171.0,188.0 172.0,189.0 173.0,189.0 174.0,190.0 175.0,190.0 176.0,191.0 177.0,191.0 178.0,192.0 180.0,192.0 181.0,191.0 182.0,191.0 181.0,191.0 180.0,192.0 178.0,192.0 176.0,190.0 175.0,190.0 174.0,189.0 173.0,189.0 172.0,188.0 172.0,186.0 173.0,185.0 175.0,185.0 176.0,184.0 177.0,184.0 178.0,185.0 179.0,185.0 184.0,190.0 185.0,189.0 186.0,190.0 187.0,190.0 188.0,191.0 189.0,191.0 190.0,192.0 191.0,192.0 190.0,191.0 190.0,190.0 188.0,190.0 187.0,189.0 185.0,189.0 184.0,188.0 183.0,188.0 180.0,185.0 178.0,185.0 177.0,184.0" stroke="black" stroke-width="2" /><polyline fill="none" points="152.0,184.0 147.0,189.0 147.0,190.0 145.0,192.0 141.0,192.0 141.0,193.0 139.0,195.0 140.0,196.0 141.0,196.0 143.0,198.0 145.0,198.0 146.0,199.0 148.0,197.0 146.0,199.0 145.0,198.0 144.0,198.0 142.0,196.0 141.0,196.0 140.0,195.0 140.0,194.0 142.0,192.0 146.0,192.0 148.0,190.0 149.0,191.0 149.0,192.0 151.0,194.0 153.0,192.0 154.0,192.0 156.0,190.0 157.0,190.0 159.0,188.0 160.0,189.0 161.0,189.0 160.0,189.0 159.0,188.0 159.0,187.0 160.0,186.0 162.0,186.0 159.0,186.0 158.0,185.0 153.0,185.0" stroke="black" stroke-width="2" /><polyline fill="none" points="157.0,175.0 157.0,177.0 159.0,179.0 160.0,179.0 161.0,180.0 162.0,180.0 163.0,181.0 162.0,180.0 161.0,180.0 157.0,176.0" stroke="black" stroke-width="2" /><polyline fill="none" points="70.0,168.0 70.0,170.0 71.0,171.0 71.0,175.0 72.0,176.0 72.0,181.0 73.0,182.0 73.0,184.0 72.0,185.0 71.0,185.0 69.0,183.0 68.0,183.0 67.0,182.0 67.0,181.0 68.0,180.0 68.0,179.0 68.0,180.0 67.0,181.0 67.0,182.0 69.0,184.0 70.0,184.0 71.0,185.0 73.0,185.0 74.0,186.0 73.0,185.0 73.0,184.0 74.0,183.0 72.0,181.0 72.0,175.0 71.0,174.0 71.0,170.0 70.0,169.0" stroke="black" stroke-width="2" /><polyline fill="none" points="184.0,166.0 185.0,167.0 185.0,168.0 186.0,169.0 186.0,170.0 189.0,173.0 189.0,174.0 190.0,174.0 193.0,177.0 193.0,178.0 194.0,179.0 194.0,180.0 195.0,181.0 195.0,182.0 196.0,183.0 196.0,186.0 197.0,187.0 196.0,188.0 196.0,190.0 195.0,191.0 195.0,192.0 192.0,195.0 192.0,196.0 191.0,197.0 190.0,197.0 187.0,200.0 189.0,198.0 190.0,198.0 193.0,195.0 193.0,194.0 195.0,192.0 195.0,191.0 196.0,190.0 196.0,188.0 197.0,187.0 196.0,186.0 196.0,183.0 195.0,182.0 195.0,180.0 194.0,179.0 194.0,178.0 192.0,176.0 192.0,175.0 191.0,175.0 189.0,173.0 189.0,172.0 186.0,169.0 186.0,168.0" stroke="black" stroke-width="2" /><polyline fill="none" points="151.0,165.0 151.0,166.0 149.0,168.0 148.0,168.0 147.0,169.0 147.0,170.0 145.0,172.0 145.0,173.0 142.0,176.0 142.0,177.0 141.0,178.0 141.0,179.0 137.0,183.0 138.0,184.0 138.0,183.0 141.0,180.0 141.0,179.0 142.0,178.0 142.0,177.0 145.0,174.0 145.0,173.0 146.0,172.0 146.0,171.0 149.0,168.0 150.0,168.0 150.0,167.0 151.0,166.0" stroke="black" stroke-width="2" /><polyline fill="none" points="268.0,164.0 267.0,165.0 267.0,167.0 266.0,168.0 266.0,170.0 266.0,168.0 267.0,167.0 267.0,166.0 269.0,164.0 271.0,164.0" stroke="black" stroke-width="2" /><polyline fill="none" points="199.0,148.0 199.0,149.0 200.0,150.0 201.0,150.0 202.0,151.0 204.0,151.0 205.0,152.0 208.0,152.0 209.0,151.0 212.0,151.0 213.0,152.0 214.0,152.0 215.0,151.0 216.0,152.0 217.0,151.0 218.0,151.0 219.0,150.0 218.0,149.0 218.0,150.0 217.0,151.0 215.0,151.0 214.0,152.0 213.0,152.0 212.0,151.0 209.0,151.0 208.0,152.0 205.0,152.0 204.0,151.0 202.0,151.0" stroke="black" stroke-width="2" /><polyline fill="none" points="58.0,147.0 54.0,159.0 57.0,172.0 57.0,188.0 62.0,196.0 78.0,213.0 84.0,236.0 91.0,250.0 93.0,271.0 91.0,309.0 86.0,317.0 73.0,327.0 67.0,327.0 53.0,334.0 30.0,339.0 31.0,340.0 34.0,338.0 54.0,334.0 67.0,327.0 74.0,327.0 84.0,318.0 87.0,319.0 85.0,318.0 89.0,314.0 92.0,304.0 93.0,271.0 91.0,250.0 84.0,236.0 77.0,211.0 62.0,195.0 57.0,188.0 56.0,183.0 57.0,172.0 54.0,159.0 56.0,150.0 59.0,147.0 62.0,149.0 59.0,157.0 61.0,159.0 60.0,166.0 60.0,156.0 62.0,153.0 61.0,147.0" stroke="black" stroke-width="2" /><polyline fill="none" points="101.0,145.0 111.0,145.0 112.0,146.0 113.0,146.0 114.0,147.0 116.0,147.0 117.0,148.0 120.0,148.0 117.0,148.0 116.0,147.0 114.0,147.0 113.0,146.0 112.0,146.0 111.0,145.0" stroke="black" stroke-width="2" /><polyline fill="none" points="277.0,141.0 278.0,142.0 279.0,142.0 280.0,143.0 280.0,144.0 281.0,145.0 281.0,151.0 280.0,152.0 280.0,153.0 279.0,154.0 277.0,154.0 276.0,153.0 276.0,151.0 275.0,150.0 275.0,146.0 274.0,145.0 274.0,144.0" stroke="black" stroke-width="2" /><polyline fill="none" points="277.0,141.0 275.0,142.0 274.0,145.0 276.0,154.0 277.0,155.0 278.0,154.0 279.0,157.0 281.0,158.0 279.0,179.0 266.0,199.0 257.0,208.0 252.0,230.0 248.0,242.0 246.0,244.0 241.0,256.0 240.0,272.0 239.0,273.0 239.0,307.0 241.0,313.0 243.0,314.0 240.0,311.0 239.0,307.0 239.0,273.0 240.0,272.0 241.0,256.0 248.0,242.0 254.0,223.0 256.0,211.0 274.0,189.0 279.0,179.0 280.0,161.0 281.0,160.0 279.0,155.0 281.0,151.0 281.0,145.0 279.0,141.0 278.0,142.0" stroke="black" stroke-width="2" /><polyline fill="none" points="115.0,141.0 113.0,143.0 113.0,144.0 116.0,141.0 118.0,141.0 119.0,142.0 119.0,143.0 123.0,147.0 130.0,147.0 134.0,143.0 135.0,143.0 136.0,144.0 136.0,145.0 136.0,144.0 135.0,143.0 135.0,142.0 134.0,142.0 129.0,147.0 123.0,147.0 122.0,146.0 122.0,145.0 119.0,142.0 119.0,141.0" stroke="black" stroke-width="2" /><polyline fill="none" points="240.0,140.0 240.0,141.0 239.0,142.0 231.0,142.0 230.0,141.0 227.0,141.0 226.0,142.0 224.0,142.0 223.0,143.0 222.0,143.0 221.0,144.0 220.0,144.0 219.0,145.0 217.0,145.0 216.0,146.0 213.0,146.0 216.0,146.0 217.0,145.0 219.0,145.0 220.0,144.0 221.0,144.0 222.0,143.0 223.0,143.0 224.0,142.0 226.0,142.0 227.0,141.0 230.0,141.0 231.0,142.0 240.0,142.0 241.0,141.0 242.0,141.0 243.0,140.0 242.0,141.0 241.0,141.0" stroke="black" stroke-width="2" /><polyline fill="none" points="214.0,139.0 213.0,140.0 213.0,141.0 209.0,145.0 205.0,145.0 204.0,144.0 203.0,144.0 199.0,140.0 198.0,141.0 197.0,141.0 197.0,142.0 196.0,143.0 198.0,141.0 199.0,141.0 201.0,143.0 202.0,143.0 203.0,144.0 204.0,144.0 205.0,145.0 209.0,145.0 210.0,144.0 211.0,144.0 213.0,142.0 213.0,141.0 215.0,139.0 217.0,139.0 219.0,141.0 221.0,141.0 220.0,140.0 219.0,140.0 218.0,139.0" stroke="black" stroke-width="2" /><polyline fill="none" points="115.0,137.0 114.0,138.0 109.0,138.0 108.0,139.0 106.0,139.0 105.0,140.0 102.0,140.0 101.0,141.0 100.0,141.0 99.0,142.0 97.0,142.0 98.0,143.0 97.0,144.0 97.0,146.0 99.0,146.0 98.0,146.0 97.0,145.0 97.0,144.0 99.0,142.0 100.0,142.0 101.0,141.0 102.0,141.0 103.0,140.0 105.0,140.0 106.0,139.0 108.0,139.0 109.0,138.0 114.0,138.0 115.0,137.0 128.0,137.0 129.0,138.0 133.0,138.0 134.0,139.0 135.0,139.0 136.0,140.0 137.0,140.0 140.0,143.0 140.0,144.0 141.0,145.0 141.0,146.0 139.0,148.0 138.0,148.0 137.0,147.0 136.0,147.0 135.0,148.0 133.0,148.0 135.0,148.0 136.0,147.0 137.0,147.0 138.0,148.0 140.0,148.0 141.0,147.0 141.0,145.0 140.0,144.0 140.0,142.0 138.0,140.0 137.0,140.0 136.0,139.0 134.0,139.0 133.0,138.0 129.0,138.0 128.0,137.0" stroke="black" stroke-width="2" /><polyline fill="none" points="215.0,134.0 214.0,135.0 203.0,135.0 202.0,136.0 200.0,136.0 199.0,137.0 197.0,137.0 196.0,138.0 195.0,138.0 193.0,140.0 193.0,141.0 192.0,142.0 192.0,145.0 193.0,146.0 195.0,146.0 196.0,145.0 197.0,146.0 200.0,146.0 197.0,146.0 196.0,145.0 195.0,146.0 194.0,146.0 192.0,144.0 192.0,142.0 196.0,138.0 197.0,138.0 198.0,137.0 199.0,137.0 200.0,136.0 202.0,136.0 203.0,135.0 214.0,135.0 215.0,134.0 217.0,134.0 218.0,135.0 224.0,135.0 225.0,136.0 228.0,136.0 229.0,137.0 230.0,137.0 231.0,138.0 237.0,138.0 238.0,139.0 238.0,138.0 236.0,138.0 235.0,137.0 234.0,138.0 233.0,137.0 232.0,138.0 231.0,137.0 229.0,137.0 228.0,136.0 225.0,136.0 224.0,135.0 218.0,135.0 217.0,134.0" stroke="black" stroke-width="2" /><polyline fill="none" points="275.0,133.0 275.0,134.0 278.0,134.0 281.0,137.0 281.0,138.0 282.0,139.0 282.0,138.0 281.0,137.0 281.0,136.0 279.0,134.0 276.0,134.0" stroke="black" stroke-width="2" /><polyline fill="none" points="176.0,131.0 175.0,132.0 176.0,133.0 176.0,134.0 184.0,142.0 184.0,143.0 187.0,143.0 188.0,144.0 187.0,143.0 185.0,143.0 184.0,142.0 184.0,141.0 175.0,132.0" stroke="black" stroke-width="2" /><polyline fill="none" points="144.0,120.0 142.0,122.0 141.0,122.0 140.0,123.0 138.0,123.0 136.0,121.0 138.0,123.0 140.0,123.0 141.0,122.0 143.0,122.0 144.0,121.0" stroke="black" stroke-width="2" /><polyline fill="none" points="104.0,118.0 103.0,119.0 95.0,119.0 103.0,119.0 104.0,118.0 105.0,119.0 106.0,118.0 113.0,118.0 114.0,119.0 116.0,119.0 117.0,120.0 122.0,120.0 123.0,121.0 125.0,121.0 126.0,122.0 127.0,122.0 128.0,123.0 129.0,123.0 130.0,124.0 130.0,125.0 133.0,125.0 135.0,127.0 135.0,128.0 136.0,129.0 136.0,130.0 137.0,131.0 138.0,131.0 139.0,132.0 136.0,129.0 136.0,128.0 135.0,127.0 135.0,126.0 134.0,125.0 133.0,125.0 132.0,124.0 130.0,124.0 129.0,123.0 128.0,123.0 127.0,122.0 126.0,122.0 125.0,121.0 123.0,121.0 122.0,120.0 117.0,120.0 116.0,119.0 114.0,119.0 113.0,118.0 106.0,118.0 105.0,119.0" stroke="black" stroke-width="2" /><polyline fill="none" points="180.0,113.0 180.0,118.0 179.0,119.0 179.0,120.0 180.0,121.0 180.0,124.0 182.0,126.0 182.0,125.0 181.0,125.0 180.0,124.0 180.0,121.0 179.0,120.0 179.0,119.0 180.0,118.0" stroke="black" stroke-width="2" /><polyline fill="none" points="145.0,113.0 147.0,115.0 147.0,118.0 149.0,118.0 152.0,121.0 154.0,121.0 157.0,124.0 157.0,125.0 156.0,126.0 156.0,128.0 153.0,131.0 150.0,131.0 149.0,132.0 150.0,131.0 153.0,131.0 154.0,130.0 155.0,130.0 155.0,129.0 156.0,128.0 156.0,126.0 157.0,125.0 157.0,124.0 158.0,123.0 157.0,123.0 155.0,121.0 153.0,121.0 150.0,118.0 148.0,118.0 147.0,117.0 147.0,114.0 146.0,113.0" stroke="black" stroke-width="2" /><polyline fill="none" points="205.0,111.0 204.0,112.0 203.0,112.0 202.0,113.0 201.0,113.0 200.0,114.0 199.0,114.0 198.0,115.0 197.0,114.0 196.0,114.0 195.0,113.0 196.0,112.0 195.0,113.0 196.0,114.0 197.0,114.0 198.0,115.0 199.0,115.0 200.0,114.0 201.0,114.0 203.0,112.0 204.0,112.0 205.0,111.0 207.0,111.0 208.0,112.0 210.0,112.0 208.0,112.0 207.0,111.0" stroke="black" stroke-width="2" /><polyline fill="none" points="114.0,109.0 113.0,110.0 109.0,110.0 108.0,111.0 107.0,111.0 106.0,112.0 104.0,112.0 103.0,113.0 101.0,113.0 100.0,114.0 98.0,114.0 95.0,117.0 94.0,117.0 96.0,117.0 99.0,114.0 100.0,114.0 101.0,113.0 103.0,113.0 104.0,112.0 106.0,112.0 107.0,111.0 109.0,111.0 110.0,110.0 113.0,110.0 114.0,109.0 115.0,109.0 117.0,111.0 118.0,111.0 119.0,112.0 120.0,112.0 121.0,111.0 132.0,111.0 133.0,110.0 135.0,110.0 136.0,111.0 137.0,111.0 138.0,112.0 139.0,112.0 142.0,115.0 142.0,116.0 143.0,117.0 145.0,117.0 144.0,117.0 142.0,115.0 142.0,114.0 141.0,113.0 142.0,112.0 141.0,113.0 140.0,112.0 139.0,112.0 138.0,111.0 136.0,111.0 135.0,110.0 133.0,110.0 132.0,111.0 121.0,111.0 120.0,112.0 119.0,112.0 118.0,111.0 117.0,111.0 115.0,109.0" stroke="black" stroke-width="2" /><polyline fill="none" points="203.0,106.0 202.0,107.0 195.0,107.0 194.0,108.0 193.0,108.0 190.0,111.0 189.0,111.0 188.0,112.0 186.0,112.0 185.0,113.0 182.0,113.0 186.0,113.0 187.0,112.0 189.0,112.0 190.0,111.0 191.0,111.0 195.0,107.0 202.0,107.0 203.0,106.0 208.0,106.0 209.0,107.0 211.0,107.0 212.0,108.0 213.0,108.0 214.0,109.0 214.0,108.0 212.0,108.0 211.0,107.0 209.0,107.0 208.0,106.0" stroke="black" stroke-width="2" /><polyline fill="none" points="218.0,105.0 217.0,106.0 214.0,106.0 217.0,106.0 218.0,105.0 223.0,105.0 225.0,107.0 227.0,107.0 228.0,108.0 232.0,108.0 233.0,109.0 234.0,109.0 235.0,110.0 238.0,111.0 240.0,113.0 239.0,114.0 231.0,114.0 230.0,113.0 228.0,113.0 227.0,112.0 215.0,112.0 214.0,113.0 213.0,113.0 209.0,117.0 208.0,117.0 208.0,118.0 207.0,119.0 206.0,119.0 204.0,121.0 203.0,121.0 203.0,123.0 200.0,126.0 197.0,127.0 197.0,128.0 198.0,127.0 199.0,128.0 199.0,127.0 200.0,126.0 201.0,126.0 203.0,124.0 203.0,122.0 205.0,120.0 208.0,119.0 214.0,113.0 215.0,113.0 216.0,112.0 227.0,112.0 228.0,113.0 230.0,113.0 231.0,114.0 238.0,114.0 239.0,115.0 240.0,115.0 240.0,113.0 241.0,112.0 240.0,112.0 239.0,111.0 238.0,111.0 235.0,109.0 233.0,109.0 232.0,108.0 228.0,108.0 227.0,107.0 225.0,107.0 223.0,105.0" stroke="black" stroke-width="2" /><polyline fill="none" points="243.0,98.0 246.0,100.0 247.0,107.0 249.0,109.0 249.0,110.0 251.0,113.0 251.0,115.0 252.0,116.0 252.0,117.0 258.0,125.0 258.0,126.0 259.0,127.0 259.0,131.0 260.0,132.0 260.0,141.0 261.0,142.0 261.0,149.0 262.0,150.0 262.0,159.0 263.0,160.0 263.0,162.0 262.0,163.0 262.0,172.0 261.0,173.0 261.0,176.0 260.0,177.0 260.0,183.0 261.0,183.0 262.0,184.0 262.0,185.0 261.0,186.0 260.0,189.0 261.0,188.0 262.0,185.0 264.0,183.0 264.0,181.0 265.0,180.0 265.0,179.0 264.0,179.0 264.0,182.0 262.0,184.0 260.0,181.0 260.0,177.0 261.0,176.0 261.0,173.0 262.0,172.0 262.0,163.0 263.0,162.0 263.0,160.0 262.0,159.0 262.0,150.0 261.0,149.0 261.0,142.0 260.0,141.0 260.0,132.0 259.0,131.0 259.0,127.0 258.0,126.0 258.0,124.0 252.0,116.0 252.0,115.0 251.0,114.0 251.0,112.0 250.0,111.0 249.0,108.0 247.0,106.0 247.0,103.0 246.0,102.0 246.0,100.0 245.0,99.0 245.0,98.0 244.0,99.0" stroke="black" stroke-width="2" /><polyline fill="none" points="233.0,86.0 233.0,87.0 236.0,90.0 236.0,91.0 237.0,92.0 237.0,93.0 238.0,94.0 238.0,95.0 240.0,97.0 240.0,98.0 241.0,99.0 241.0,104.0 242.0,105.0 244.0,105.0 243.0,105.0 241.0,103.0 241.0,98.0 240.0,97.0 240.0,96.0 238.0,94.0 238.0,93.0 237.0,92.0 237.0,91.0 236.0,90.0 236.0,89.0" stroke="black" stroke-width="2" /><polyline fill="none" points="207.0,55.0 209.0,55.0 210.0,56.0 212.0,56.0 213.0,57.0 214.0,57.0 217.0,60.0 217.0,61.0 218.0,62.0 218.0,63.0 220.0,65.0 220.0,66.0 222.0,68.0 222.0,69.0 223.0,70.0 223.0,71.0 224.0,72.0 224.0,76.0 226.0,78.0 226.0,81.0 227.0,82.0 227.0,84.0 228.0,85.0 228.0,87.0 229.0,88.0 229.0,89.0 230.0,90.0 230.0,93.0 234.0,97.0 235.0,96.0 234.0,96.0 230.0,92.0 230.0,90.0 229.0,89.0 229.0,87.0 228.0,86.0 228.0,84.0 227.0,83.0 227.0,81.0 226.0,80.0 226.0,78.0 224.0,76.0 224.0,71.0 223.0,70.0 223.0,69.0 222.0,68.0 222.0,67.0 220.0,65.0 220.0,64.0 218.0,62.0 218.0,61.0 216.0,59.0 216.0,58.0 215.0,58.0 213.0,56.0 210.0,56.0 209.0,55.0" stroke="black" stroke-width="2" /><polyline fill="none" points="157.0,47.0 154.0,49.0 146.0,50.0 141.0,58.0 126.0,59.0 119.0,62.0 105.0,64.0 98.0,68.0 93.0,74.0 91.0,79.0 91.0,90.0 85.0,113.0 80.0,121.0 76.0,137.0 74.0,169.0 77.0,186.0 75.0,189.0 68.0,187.0 72.0,188.0 74.0,190.0 74.0,193.0 77.0,186.0 74.0,169.0 74.0,155.0 77.0,131.0 88.0,104.0 91.0,90.0 91.0,79.0 100.0,67.0 108.0,63.0 119.0,62.0 126.0,59.0 141.0,58.0 147.0,50.0 157.0,47.0 160.0,49.0 184.0,47.0 187.0,49.0 196.0,50.0 199.0,54.0 202.0,54.0 206.0,58.0 198.0,51.0 184.0,47.0 172.0,47.0 167.0,49.0 158.0,48.0" stroke="black" stroke-width="2" /><polyline fill="none" points="90.0,41.0 90.0,45.0 92.0,45.0 92.0,41.0 92.0,44.0 91.0,45.0 90.0,44.0" stroke="black" stroke-width="2" /><polyline fill="none" points="251.0,0.0 250.0,1.0 262.0,12.0 275.0,30.0 283.0,49.0 281.0,97.0 279.0,101.0 277.0,116.0 275.0,118.0 275.0,123.0 270.0,132.0 269.0,141.0 266.0,148.0 266.0,156.0 268.0,159.0 272.0,160.0 276.0,164.0 276.0,171.0 270.0,178.0 268.0,178.0 267.0,174.0 265.0,173.0 267.0,175.0 267.0,178.0 271.0,178.0 275.0,174.0 276.0,171.0 276.0,164.0 273.0,160.0 269.0,159.0 267.0,157.0 266.0,148.0 269.0,141.0 270.0,133.0 275.0,124.0 275.0,119.0 277.0,116.0 279.0,101.0 281.0,97.0 283.0,49.0 275.0,29.0 261.0,10.0 251.0,1.0" stroke="black" stroke-width="2" /><polyline fill="none" points="87.0,0.0 74.0,13.0 63.0,28.0 62.0,32.0 57.0,39.0 57.0,42.0 54.0,48.0 55.0,51.0 52.0,61.0 52.0,78.0 54.0,87.0 53.0,92.0 54.0,97.0 57.0,102.0 56.0,108.0 58.0,113.0 60.0,131.0 62.0,134.0 61.0,135.0 62.0,138.0 68.0,146.0 70.0,154.0 69.0,155.0 70.0,164.0 63.0,171.0 60.0,179.0 62.0,184.0 64.0,186.0 66.0,185.0 65.0,186.0 60.0,179.0 62.0,173.0 70.0,164.0 69.0,162.0 70.0,154.0 67.0,143.0 63.0,139.0 60.0,130.0 58.0,113.0 56.0,108.0 57.0,101.0 54.0,97.0 53.0,92.0 54.0,87.0 52.0,78.0 52.0,61.0 55.0,51.0 54.0,50.0 55.0,45.0 57.0,43.0 57.0,40.0 62.0,33.0 63.0,29.0 74.0,14.0 88.0,1.0" stroke="black" stroke-width="2" /></svg>