<?xml version="1.0" encoding="utf-8" ?>
<svg baseProfile="tiny" height="341" version="1.2" width="341" xmlns="http://www.w3.org/2000/svg" xmlns:ev="http://www.w3.org/2001/xml-events" xmlns:xlink="http://www.w3.org/1999/xlink"><defs /><polyline fill="none" points="246.0,317.0 247.0,316.0 249.0,316.0 250.0,317.0 250.0,318.0 248.0,320.0 247.0,320.0 246.0,319.0" stroke="black" stroke-width="1" /><polyline fill="none" points="198.0,282.0 196.0,284.0 194.0,284.0 193.0,285.0 192.0,285.0 191.0,286.0 190.0,286.0 188.0,288.0 183.0,288.0 182.0,289.0 181.0,289.0 180.0,290.0 177.0,290.0 176.0,291.0 164.0,291.0 163.0,290.0 159.0,290.0 158.0,289.0 154.0,289.0 153.0,288.0 150.0,288.0 149.0,287.0 148.0,287.0 147.0,286.0 144.0,286.0 143.0,285.0 141.0,285.0 140.0,284.0 141.0,285.0 143.0,285.0 144.0,286.0 147.0,286.0 148.0,287.0 149.0,287.0 150.0,288.0 153.0,288.0 154.0,289.0 158.0,289.0 159.0,290.0 163.0,290.0 164.0,291.0 176.0,291.0 177.0,290.0 180.0,290.0 181.0,289.0 182.0,289.0 183.0,288.0 188.0,288.0 190.0,286.0 191.0,286.0 192.0,285.0 193.0,285.0 194.0,284.0 196.0,284.0" stroke="black" stroke-width="1" /><polyline fill="none" points="136.0,273.0 138.0,275.0 140.0,275.0 142.0,277.0 146.0,277.0 147.0,278.0 148.0,278.0 149.0,279.0 159.0,279.0 160.0,280.0 177.0,280.0 178.0,279.0 188.0,279.0 189.0,278.0 191.0,278.0 192.0,277.0 193.0,277.0 194.0,276.0 197.0,276.0 198.0,275.0 199.0,275.0 200.0,274.0 199.0,275.0 198.0,275.0 197.0,276.0 194.0,276.0 193.0,277.0 192.0,277.0 191.0,278.0 189.0,278.0 188.0,279.0 178.0,279.0 177.0,280.0 160.0,280.0 159.0,279.0 149.0,279.0 148.0,278.0 147.0,278.0 146.0,277.0 142.0,277.0 140.0,275.0 138.0,275.0" stroke="black" stroke-width="1" /><polyline fill="none" points="141.0,227.0 152.0,227.0 153.0,228.0 153.0,231.0 152.0,232.0 151.0,232.0 148.0,235.0 146.0,235.0 144.0,233.0 143.0,233.0 142.0,232.0 141.0,232.0 139.0,230.0 139.0,229.0" stroke="black" stroke-width="1" /><polyline fill="none" points="194.0,223.0 196.0,223.0 197.0,224.0 197.0,225.0 195.0,227.0 193.0,227.0 192.0,226.0 192.0,225.0" stroke="black" stroke-width="1" /><polyline fill="none" points="158.0,223.0 159.0,222.0 171.0,222.0 173.0,224.0 171.0,226.0 169.0,226.0 168.0,227.0 160.0,227.0 158.0,225.0" stroke="black" stroke-width="1" /><polyline fill="none" points="187.0,220.0 190.0,220.0 193.0,223.0 193.0,224.0 191.0,226.0 186.0,226.0 184.0,224.0 184.0,223.0" stroke="black" stroke-width="1" /><polyline fill="none" points="156.0,215.0 157.0,214.0 161.0,214.0 164.0,216.0 169.0,216.0 170.0,215.0 173.0,215.0 174.0,214.0 179.0,214.0 180.0,215.0 181.0,215.0 184.0,217.0 186.0,217.0 188.0,219.0 183.0,224.0 181.0,224.0 180.0,223.0 179.0,224.0 173.0,224.0 171.0,222.0 159.0,222.0 158.0,223.0 147.0,223.0 157.0,223.0 158.0,224.0 158.0,226.0 157.0,227.0 141.0,227.0 139.0,229.0 137.0,229.0 136.0,228.0 134.0,228.0 133.0,227.0 133.0,225.0 135.0,223.0 137.0,223.0 139.0,221.0 140.0,221.0 141.0,220.0 143.0,220.0 144.0,219.0 145.0,219.0 147.0,217.0 148.0,217.0 149.0,216.0 151.0,216.0 152.0,215.0" stroke="black" stroke-width="1" /><polyline fill="none" points="157.0,214.0 156.0,215.0 152.0,215.0 151.0,216.0 149.0,216.0 143.0,220.0 141.0,220.0 137.0,223.0 135.0,223.0 132.0,226.0 130.0,226.0 132.0,226.0 134.0,228.0 136.0,228.0 138.0,229.0 141.0,232.0 144.0,233.0 146.0,235.0 149.0,235.0 150.0,236.0 153.0,233.0 169.0,233.0 170.0,232.0 178.0,232.0 179.0,231.0 179.0,230.0 178.0,232.0 170.0,232.0 169.0,233.0 153.0,233.0 152.0,232.0 153.0,231.0 153.0,228.0 154.0,227.0 157.0,227.0 158.0,226.0 160.0,227.0 168.0,227.0 169.0,226.0 171.0,226.0 173.0,224.0 179.0,224.0 180.0,225.0 181.0,224.0 184.0,224.0 186.0,226.0 192.0,226.0 193.0,227.0 195.0,227.0 197.0,225.0 199.0,225.0 202.0,227.0 205.0,227.0 202.0,227.0 198.0,225.0 196.0,223.0 193.0,223.0 186.0,217.0 184.0,217.0 179.0,214.0 174.0,214.0 173.0,215.0 170.0,215.0 169.0,216.0 164.0,216.0 161.0,214.0" stroke="black" stroke-width="1" /><polyline fill="none" points="146.0,192.0 147.0,191.0 148.0,191.0 150.0,193.0 150.0,195.0 147.0,198.0 144.0,198.0 141.0,195.0 141.0,193.0 142.0,192.0" stroke="black" stroke-width="1" /><polyline fill="none" points="182.0,190.0 183.0,189.0 186.0,189.0 187.0,190.0 189.0,190.0 192.0,193.0 192.0,195.0 190.0,197.0 187.0,197.0 183.0,193.0 183.0,192.0 182.0,191.0" stroke="black" stroke-width="1" /><polyline fill="none" points="172.0,186.0 173.0,185.0 179.0,185.0 183.0,189.0 182.0,190.0 182.0,191.0 181.0,192.0 178.0,192.0 176.0,190.0 174.0,190.0 172.0,188.0" stroke="black" stroke-width="1" /><polyline fill="none" points="151.0,185.0 157.0,185.0 159.0,187.0 159.0,188.0 157.0,190.0 155.0,190.0 153.0,192.0 151.0,192.0 150.0,193.0 148.0,191.0 148.0,189.0 149.0,188.0 149.0,187.0" stroke="black" stroke-width="1" /><polyline fill="none" points="163.0,184.0 167.0,184.0 168.0,185.0 171.0,185.0 172.0,186.0 172.0,190.0 171.0,191.0 171.0,192.0 170.0,193.0 169.0,193.0 168.0,194.0 163.0,194.0 161.0,192.0 161.0,190.0 159.0,188.0" stroke="black" stroke-width="1" /><polyline fill="none" points="262.0,175.0 264.0,175.0 265.0,176.0 265.0,177.0 264.0,178.0 264.0,181.0 262.0,183.0 260.0,181.0 260.0,177.0" stroke="black" stroke-width="1" /><polyline fill="none" points="68.0,176.0 69.0,175.0 72.0,175.0 73.0,176.0 73.0,180.0 74.0,181.0 74.0,184.0 73.0,185.0 70.0,185.0 69.0,184.0 68.0,184.0 67.0,183.0 67.0,182.0 68.0,181.0" stroke="black" stroke-width="1" /><polyline fill="none" points="71.0,171.0 72.0,170.0 74.0,170.0 75.0,171.0 75.0,174.0 73.0,176.0 71.0,174.0" stroke="black" stroke-width="1" /><polyline fill="none" points="66.0,169.0 67.0,168.0 69.0,168.0 71.0,170.0 71.0,174.0 70.0,175.0 69.0,175.0 68.0,176.0 68.0,181.0 67.0,182.0 67.0,184.0 66.0,185.0 65.0,185.0 64.0,184.0 63.0,184.0 61.0,182.0 61.0,176.0 62.0,175.0 62.0,173.0 63.0,172.0 63.0,171.0 65.0,169.0" stroke="black" stroke-width="1" /><polyline fill="none" points="184.0,166.0 187.0,170.0 187.0,171.0 193.0,177.0 196.0,183.0 196.0,190.0 193.0,193.0 192.0,193.0 189.0,190.0 187.0,190.0 186.0,189.0 183.0,189.0 179.0,185.0 168.0,185.0 167.0,184.0 164.0,184.0 163.0,183.0 163.0,181.0 161.0,180.0 157.0,176.0 157.0,174.0 157.0,176.0 161.0,180.0 163.0,181.0 163.0,184.0 160.0,187.0 159.0,187.0 157.0,185.0 151.0,185.0 149.0,187.0 148.0,190.0 146.0,192.0 142.0,192.0 141.0,193.0 141.0,195.0 144.0,198.0 147.0,198.0 150.0,195.0 150.0,193.0 151.0,192.0 153.0,192.0 155.0,190.0 160.0,189.0 161.0,190.0 161.0,192.0 163.0,194.0 168.0,194.0 170.0,193.0 173.0,189.0 174.0,190.0 176.0,190.0 178.0,192.0 181.0,192.0 182.0,191.0 183.0,193.0 187.0,197.0 187.0,199.0 187.0,198.0 188.0,197.0 190.0,197.0 196.0,190.0 196.0,183.0 193.0,177.0 187.0,171.0 185.0,167.0" stroke="black" stroke-width="1" /><polyline fill="none" points="151.0,164.0 151.0,166.0 149.0,168.0 148.0,168.0 147.0,169.0 147.0,170.0 145.0,172.0 145.0,173.0 142.0,176.0 142.0,177.0 141.0,178.0 141.0,179.0 138.0,182.0 141.0,179.0 141.0,178.0 142.0,177.0 142.0,176.0 145.0,173.0 145.0,172.0 147.0,170.0 147.0,169.0 148.0,168.0 149.0,168.0 151.0,166.0" stroke="black" stroke-width="1" /><polyline fill="none" points="272.0,163.0 273.0,162.0 274.0,162.0 276.0,164.0 276.0,171.0 275.0,172.0 275.0,173.0 270.0,178.0 267.0,178.0 265.0,176.0 265.0,174.0 266.0,173.0 266.0,168.0 267.0,167.0 267.0,165.0 268.0,164.0 270.0,164.0 271.0,163.0" stroke="black" stroke-width="1" /><polyline fill="none" points="233.0,145.0 232.0,146.0 226.0,146.0 232.0,146.0" stroke="black" stroke-width="1" /><polyline fill="none" points="215.0,144.0 216.0,143.0 217.0,144.0 217.0,148.0 218.0,149.0 218.0,150.0 217.0,151.0 209.0,151.0 208.0,152.0 205.0,152.0 204.0,151.0 202.0,151.0 199.0,148.0 199.0,146.0 201.0,144.0 204.0,144.0 205.0,145.0 210.0,145.0 211.0,144.0" stroke="black" stroke-width="1" /><polyline fill="none" points="115.0,143.0 116.0,142.0 118.0,142.0 121.0,145.0 121.0,146.0 119.0,148.0 117.0,148.0 115.0,146.0" stroke="black" stroke-width="1" /><polyline fill="none" points="277.0,142.0 278.0,141.0 279.0,141.0 280.0,142.0 280.0,144.0 281.0,145.0 281.0,151.0 280.0,152.0 280.0,153.0 279.0,154.0 277.0,154.0 276.0,153.0 276.0,151.0 275.0,150.0 275.0,143.0 276.0,142.0" stroke="black" stroke-width="1" /><polyline fill="none" points="135.0,142.0 136.0,141.0 137.0,142.0 139.0,142.0 140.0,143.0 140.0,146.0 139.0,147.0 136.0,147.0 135.0,146.0" stroke="black" stroke-width="1" /><polyline fill="none" points="197.0,140.0 198.0,141.0 199.0,141.0 201.0,143.0 201.0,144.0 199.0,146.0 197.0,146.0 195.0,144.0 195.0,142.0" stroke="black" stroke-width="1" /><polyline fill="none" points="61.0,141.0 62.0,140.0 63.0,140.0 67.0,144.0 67.0,145.0 68.0,146.0 68.0,148.0 69.0,149.0 69.0,154.0 68.0,155.0 65.0,155.0 68.0,155.0 69.0,156.0 69.0,167.0 68.0,168.0 67.0,168.0 66.0,169.0 65.0,169.0 63.0,171.0 63.0,172.0 62.0,173.0 62.0,175.0 61.0,176.0 61.0,178.0 60.0,179.0 58.0,179.0 57.0,178.0 57.0,172.0 56.0,171.0 56.0,167.0 55.0,166.0 55.0,164.0 54.0,163.0 54.0,159.0 55.0,158.0 55.0,154.0 56.0,153.0 56.0,150.0 58.0,147.0 60.0,147.0 62.0,149.0 62.0,152.0 61.0,153.0 61.0,155.0 59.0,158.0 60.0,157.0 61.0,158.0 61.0,161.0 60.0,162.0 60.0,165.0 60.0,162.0 61.0,161.0 61.0,158.0 60.0,157.0 60.0,156.0 61.0,155.0 61.0,153.0 62.0,152.0 62.0,149.0 60.0,147.0 58.0,147.0 57.0,146.0 57.0,145.0 56.0,144.0 56.0,142.0 57.0,141.0" stroke="black" stroke-width="1" /><polyline fill="none" points="108.0,139.0 109.0,138.0 114.0,138.0 115.0,139.0 115.0,141.0 116.0,142.0 115.0,143.0 115.0,144.0 114.0,145.0 101.0,145.0 100.0,144.0 100.0,142.0 102.0,140.0 105.0,140.0 106.0,139.0" stroke="black" stroke-width="1" /><polyline fill="none" points="231.0,138.0 232.0,137.0 234.0,137.0 235.0,138.0 237.0,138.0 238.0,139.0 238.0,141.0 237.0,142.0 232.0,142.0 231.0,141.0" stroke="black" stroke-width="1" /><polyline fill="none" points="115.0,138.0 116.0,137.0 128.0,137.0 129.0,138.0 133.0,138.0 135.0,140.0 135.0,144.0 133.0,146.0 131.0,146.0 130.0,147.0 122.0,147.0 121.0,146.0 121.0,145.0 118.0,142.0 116.0,142.0 115.0,141.0" stroke="black" stroke-width="1" /><polyline fill="none" points="116.0,137.0 115.0,138.0 109.0,138.0 108.0,139.0 106.0,139.0 105.0,140.0 102.0,140.0 97.0,145.0 99.0,143.0 101.0,145.0 114.0,145.0 117.0,148.0 119.0,148.0 120.0,147.0 130.0,147.0 131.0,146.0 133.0,146.0 134.0,147.0 139.0,147.0 140.0,146.0 140.0,143.0 139.0,142.0 137.0,142.0 133.0,138.0 129.0,138.0 128.0,137.0" stroke="black" stroke-width="1" /><polyline fill="none" points="215.0,135.0 216.0,134.0 217.0,135.0 224.0,135.0 225.0,136.0 228.0,136.0 229.0,137.0 230.0,137.0 231.0,138.0 231.0,140.0 230.0,141.0 227.0,141.0 226.0,142.0 217.0,142.0 215.0,144.0 211.0,144.0 210.0,145.0 205.0,145.0 204.0,144.0 202.0,144.0 199.0,141.0 198.0,141.0 197.0,140.0 198.0,139.0 198.0,138.0 200.0,136.0 202.0,136.0 203.0,135.0" stroke="black" stroke-width="1" /><polyline fill="none" points="216.0,134.0 215.0,135.0 203.0,135.0 202.0,136.0 200.0,136.0 198.0,138.0 198.0,139.0 195.0,142.0 194.0,142.0 193.0,143.0 194.0,144.0 195.0,144.0 197.0,146.0 198.0,146.0 199.0,147.0 199.0,148.0 202.0,151.0 204.0,151.0 205.0,152.0 208.0,152.0 209.0,151.0 217.0,151.0 218.0,150.0 218.0,149.0 217.0,148.0 217.0,144.0 216.0,143.0 217.0,142.0 226.0,142.0 227.0,141.0 231.0,141.0 232.0,142.0 237.0,142.0 238.0,141.0 239.0,141.0 240.0,140.0 242.0,140.0 240.0,140.0 239.0,141.0 238.0,140.0 238.0,139.0 237.0,138.0 235.0,138.0 234.0,137.0 229.0,137.0 228.0,136.0 225.0,136.0 224.0,135.0 217.0,135.0" stroke="black" stroke-width="1" /><polyline fill="none" points="57.0,133.0 58.0,132.0 60.0,132.0 61.0,133.0 61.0,134.0 62.0,135.0 62.0,140.0 61.0,141.0 59.0,141.0 58.0,140.0 58.0,139.0 57.0,138.0" stroke="black" stroke-width="1" /><polyline fill="none" points="176.0,131.0 176.0,133.0 180.0,137.0 180.0,138.0 185.0,143.0 187.0,143.0 188.0,144.0 187.0,143.0 185.0,143.0 180.0,138.0 180.0,137.0 176.0,133.0" stroke="black" stroke-width="1" /><polyline fill="none" points="108.0,111.0 109.0,110.0 116.0,110.0 117.0,111.0 133.0,111.0 134.0,110.0 135.0,111.0 138.0,111.0 139.0,112.0 140.0,112.0 141.0,113.0 142.0,113.0 144.0,115.0 144.0,121.0 143.0,122.0 141.0,122.0 140.0,123.0 138.0,123.0 136.0,121.0 137.0,122.0 134.0,125.0 132.0,125.0 131.0,124.0 130.0,124.0 129.0,123.0 128.0,123.0 127.0,122.0 126.0,122.0 125.0,121.0 123.0,121.0 122.0,120.0 117.0,120.0 116.0,119.0 114.0,119.0 113.0,118.0 105.0,118.0 104.0,119.0 98.0,119.0 97.0,118.0 97.0,116.0 99.0,114.0 100.0,114.0 101.0,113.0 103.0,113.0 104.0,112.0 106.0,112.0 107.0,111.0" stroke="black" stroke-width="1" /><polyline fill="none" points="109.0,110.0 106.0,112.0 104.0,112.0 103.0,113.0 101.0,113.0 100.0,114.0 99.0,114.0 97.0,116.0 97.0,117.0 96.0,118.0 95.0,117.0 98.0,119.0 104.0,119.0 105.0,118.0 113.0,118.0 114.0,119.0 116.0,119.0 117.0,120.0 122.0,120.0 123.0,121.0 125.0,121.0 132.0,125.0 134.0,125.0 135.0,126.0 135.0,128.0 139.0,132.0 135.0,128.0 135.0,126.0 138.0,123.0 140.0,123.0 141.0,122.0 143.0,122.0 144.0,121.0 144.0,117.0 145.0,116.0 147.0,118.0 149.0,118.0 150.0,119.0 151.0,119.0 156.0,123.0 156.0,128.0 153.0,131.0 150.0,131.0 149.0,132.0 148.0,132.0 149.0,132.0 150.0,131.0 153.0,131.0 156.0,128.0 156.0,124.0 158.0,122.0 157.0,123.0 156.0,123.0 151.0,119.0 150.0,119.0 149.0,118.0 147.0,118.0 142.0,113.0 141.0,113.0 138.0,111.0 135.0,111.0 134.0,110.0 133.0,111.0 117.0,111.0 116.0,110.0" stroke="black" stroke-width="1" /><polyline fill="none" points="202.0,107.0 203.0,106.0 208.0,106.0 209.0,107.0 213.0,107.0 214.0,108.0 214.0,112.0 213.0,113.0 211.0,113.0 210.0,112.0 207.0,112.0 206.0,111.0 205.0,112.0 203.0,112.0 202.0,113.0 201.0,113.0 200.0,114.0 197.0,114.0 195.0,112.0 195.0,111.0 193.0,109.0 195.0,107.0" stroke="black" stroke-width="1" /><polyline fill="none" points="217.0,106.0 218.0,105.0 223.0,105.0 225.0,107.0 227.0,107.0 228.0,108.0 232.0,108.0 233.0,109.0 235.0,109.0 238.0,112.0 236.0,114.0 231.0,114.0 230.0,113.0 228.0,113.0 227.0,112.0 215.0,112.0 214.0,111.0 214.0,107.0 215.0,106.0" stroke="black" stroke-width="1" /><polyline fill="none" points="218.0,105.0 217.0,106.0 215.0,106.0 214.0,107.0 209.0,107.0 208.0,106.0 203.0,106.0 202.0,107.0 195.0,107.0 191.0,111.0 189.0,111.0 188.0,112.0 186.0,112.0 185.0,113.0 181.0,113.0 180.0,114.0 180.0,124.0 181.0,125.0 180.0,124.0 180.0,114.0 181.0,113.0 185.0,113.0 186.0,112.0 188.0,112.0 189.0,111.0 191.0,111.0 192.0,110.0 197.0,114.0 200.0,114.0 201.0,113.0 202.0,113.0 203.0,112.0 205.0,112.0 206.0,111.0 207.0,112.0 210.0,112.0 211.0,113.0 211.0,115.0 207.0,119.0 206.0,119.0 200.0,126.0 199.0,126.0 197.0,128.0 199.0,126.0 200.0,126.0 203.0,123.0 203.0,122.0 211.0,115.0 211.0,114.0 212.0,113.0 213.0,113.0 214.0,112.0 227.0,112.0 228.0,113.0 230.0,113.0 231.0,114.0 236.0,114.0 238.0,112.0 240.0,112.0 241.0,111.0 240.0,112.0 238.0,112.0 235.0,109.0 233.0,109.0 232.0,108.0 228.0,108.0 227.0,107.0 225.0,107.0 223.0,105.0" stroke="black" stroke-width="1" /><polyline fill="none" points="241.0,99.0 242.0,98.0 244.0,98.0 246.0,100.0 246.0,104.0 245.0,105.0 243.0,105.0 241.0,103.0" stroke="black" stroke-width="1" /><polyline fill="none" points="232.0,88.0 234.0,88.0 236.0,90.0 236.0,91.0 237.0,92.0 237.0,95.0 236.0,96.0 234.0,96.0 230.0,92.0 230.0,90.0" stroke="black" stroke-width="1" /><polyline fill="none" points="89.0,0.0 57.0,39.0 52.0,78.0 60.0,126.0 56.0,183.0 91.0,250.0 92.0,304.0 82.0,322.0 29.0,339.0 79.0,322.0 83.0,339.0 92.0,304.0 91.0,250.0 56.0,180.0 74.0,192.0 77.0,131.0 95.0,71.0 148.0,57.0 144.0,52.0 187.0,48.0 217.0,60.0 226.0,78.0 218.0,77.0 259.0,127.0 260.0,189.0 276.0,171.0 266.0,156.0 269.0,137.0 281.0,137.0 275.0,143.0 279.0,179.0 257.0,208.0 241.0,256.0 239.0,307.0 254.0,326.0 251.0,339.0 251.0,317.0 300.0,339.0 239.0,307.0 241.0,256.0 257.0,208.0 280.0,175.0 281.0,137.0 272.0,128.0 283.0,49.0 274.0,28.0 250.0,1.0 283.0,49.0 281.0,97.0 266.0,148.0 273.0,162.0 265.0,174.0 259.0,127.0 246.0,100.0 228.0,87.0 215.0,58.0 187.0,48.0 148.0,49.0 142.0,58.0 95.0,71.0 71.0,170.0 52.0,61.0 63.0,28.0 88.0,1.0" stroke="black" stroke-width="1" /></svg>