<?xml version="1.0" encoding="utf-8" ?>
<svg baseProfile="tiny" height="341" version="1.2" width="341" xmlns="http://www.w3.org/2000/svg" xmlns:ev="http://www.w3.org/2001/xml-events" xmlns:xlink="http://www.w3.org/1999/xlink"><defs /><polyline fill="none" points="198.0011,282.0027 197.8194,282.6987 197.5606,283.2086 197.2369,283.5615 196.8601,283.7867 196.4426,283.9133 195.9962,283.9703 195.5331,283.9869 195.0653,283.9923 194.605,284.0155 194.1641,284.0858 193.7533,284.2286 193.3692,284.4359 193.0008,284.6812 192.637,284.9378 192.2669,285.1788 191.88,285.3795 191.4772,285.5417 191.0683,285.6891 190.6631,285.8456 190.2717,286.0353 189.9037,286.2815 189.5593,286.5846 189.228,286.9193 188.8987,287.2589 188.5603,287.5766 188.2018,287.8457 187.8122,288.0401 187.3886,288.1523 186.937,288.1971 186.4641,288.1904 185.9766,288.1485 185.4811,288.0872 184.9843,288.0227 184.4929,287.971 184.0136,287.9482 183.5529,287.9702 183.1176,288.0532 182.7129,288.2098 182.3336,288.4278 181.9698,288.6838 181.6119,288.9546 181.2517,289.2209 180.882,289.4648 180.4958,289.6685 180.0857,289.8144 179.6455,289.8868 179.1803,289.898 178.703,289.8788 178.2266,289.8603 177.7639,289.8737 177.3281,289.9502 176.9319,290.1206 176.5757,290.3903 176.2364,290.7171 175.8885,291.0537 175.5155,291.3682 175.1177,291.6571 174.6972,291.9205 174.2562,292.1582 173.7969,292.3702 173.3214,292.5563 172.832,292.7164 172.3308,292.8506 171.82,292.9586 171.3018,293.0405 170.7782,293.096 170.2516,293.1252 169.7241,293.128 169.1978,293.1042 168.675,293.0537 168.1578,292.9765 167.6483,292.8726 167.1489,292.7417 166.6615,292.5838 166.1885,292.3989 165.7319,292.1868 165.2941,291.9474 164.877,291.6807 164.483,291.3866 164.1141,291.065 163.7708,290.719 163.4357,290.383 163.0817,290.1081 162.6844,289.9408 162.2426,289.8788 161.7689,289.8922 161.2759,289.9508 160.776,290.0244 160.282,290.0829 159.8064,290.0959 159.3618,290.0334 158.9606,289.8653 158.6019,289.5947 158.2542,289.2972 157.8826,289.058 157.4652,288.9301 157.0101,288.8938 156.5294,288.9198 156.0353,288.9784 155.54,289.0403 155.0556,289.0758 154.5944,289.0555 154.1684,288.9499 153.7875,288.7354 153.4343,288.4534 153.0755,288.185 152.6796,288.0058 152.2428,287.9251 151.7788,287.91 151.3015,287.9272 150.8247,287.9434 150.3623,287.925 149.9281,287.839 149.5273,287.6727 149.1507,287.4489 148.7873,287.1937 148.4274,286.9302 148.0632,286.6757 147.687,286.447 147.2913,286.2607 146.8684,286.1336 146.4159,286.0718 145.9451,286.0535 145.4693,286.0527 145.0018,286.0433 144.5561,285.999 144.1456,285.8939 143.7794,285.708 143.4327,285.4736 143.0636,285.2486 142.6355,285.0843 142.1564,284.9758 141.657,284.8895 141.1681,284.7916 140.7212,284.6504 140.3625,284.4855 140.1526,284.3674 140.1506,284.3661 140.3572,284.4827 140.7138,284.6474 141.1595,284.7895 141.648,284.8879 142.1475,284.9741 142.6272,285.0819 143.0565,285.2449 143.4263,285.4693 143.7731,285.7041 144.1385,285.8913 144.5483,285.9977 144.9935,286.0428 145.4607,286.0527 145.9365,286.0535 146.4075,286.0712 146.8605,286.132 147.2839,286.2578 147.6801,286.4432 148.0565,286.6713 148.4209,286.9255 148.7808,287.189 149.144,287.4445 149.5203,287.6691 149.9205,287.8366 150.3541,287.9241 150.8161,287.9434 151.2928,287.9276 151.7703,287.9102 152.2346,287.9244 152.672,288.0036 153.0688,288.1808 153.428,288.4482 153.7809,288.7307 154.1611,288.947 154.5863,289.0544 155.047,289.076 155.5311,289.0412 156.0263,288.9796 156.5205,288.9206 157.0016,288.8938 157.4573,288.9286 157.8755,289.0547 158.2478,289.2921 158.5956,289.5893 158.9539,289.8612 159.3541,290.0315 159.7981,290.0956 160.2732,290.0837 160.767,290.0258 161.2669,289.9521 161.7601,289.893 162.2343,289.8784 162.6767,289.9387 163.0749,290.1038 163.4294,290.377 163.7647,290.7126 164.1079,291.0593 164.4766,291.3823 164.8707,291.6782 165.288,291.947 165.7263,292.1887 166.1834,292.4034 166.657,292.591 167.1451,292.7517 167.6453,292.8854 168.1555,292.9922 168.6735,293.0722 169.1972,293.1252 169.7242,293.1514 170.2524,293.1508 170.7796,293.1235 171.3036,293.0693 171.8221,292.9885 172.3331,292.881 172.8343,292.7468 173.3235,292.586 173.7985,292.3986 174.2571,292.1846 174.6971,291.9441 175.1164,291.6771 175.5126,291.3836 175.8836,291.0636 176.2291,290.7204 176.5661,290.3875 176.9213,290.1152 177.3191,289.9488 177.759,289.8827 178.2269,289.8824 178.7084,289.9133 179.1889,289.9404 179.6541,289.9292 180.0897,289.8452 180.491,289.6771 180.8677,289.4499 181.2313,289.1914 181.5912,288.925 181.9541,288.6666 182.3265,288.4317 182.7149,288.2356 183.1257,288.0936 183.5622,288.0132 184.0198,287.9838 184.4932,287.9922 184.9769,288.0252 185.4653,288.0695 185.953,288.1119 186.4345,288.1393 186.9042,288.1385 187.3568,288.0961 187.7867,287.9991 188.1888,287.835 188.5643,287.6068 188.92,287.3309 189.263,287.0243 189.6003,286.704 189.9389,286.3869 190.2859,286.09 190.6482,285.8302 191.0328,285.624 191.4375,285.4663 191.8488,285.3247 192.2528,285.1652 192.6425,284.9715 193.021,284.7506 193.3918,284.511 193.7584,284.2616 194.1246,284.0109 194.5024,283.7884 194.9201,283.6621 195.4078,283.7049 195.9956,283.9893" stroke="black" stroke-width="1" /><polyline fill="none" points="135.9978,273.0054 136.2499,273.9671 136.6586,274.5506 137.1859,274.848 137.7936,274.9511 138.4437,274.9519 139.098,274.9425 139.7185,275.0148 140.2694,275.255 140.7542,275.6549 141.2084,276.1287 141.6684,276.5887 142.1704,276.9471 142.7346,277.1552 143.3479,277.2447 143.9932,277.2572 144.6531,277.2341 145.3106,277.2172 145.9482,277.2478 146.549,277.3677 147.0955,277.6184 147.5825,278.013 148.0669,278.414 148.5938,278.7132 149.1613,278.9148 149.764,279.0317 150.3965,279.0767 151.0535,279.0628 151.7296,279.0028 152.4193,278.9096 153.1174,278.796 153.8184,278.675 154.5168,278.5593 155.2075,278.462 155.8848,278.3958 156.5436,278.3737 157.1783,278.4084 157.7836,278.5129 158.3542,278.7001 158.8845,278.9828 159.3733,279.3667 159.8472,279.8076 160.3426,280.2425 160.873,280.6456 161.436,281.0162 162.0285,281.3542 162.6477,281.6594 163.2908,281.9317 163.9549,282.1708 164.6371,282.3766 165.3345,282.5489 166.0443,282.6876 166.7637,282.7925 167.4897,282.8635 168.2194,282.9004 168.9501,282.903 169.6788,282.8711 170.4026,282.8046 171.1188,282.7034 171.8244,282.5672 172.5166,282.396 173.1924,282.1894 173.8491,281.9475 174.4837,281.6699 175.0935,281.3566 175.6754,281.0074 176.2267,280.6221 176.7445,280.2006 177.2268,279.7443 177.6934,279.2909 178.1847,278.9132 178.7241,278.652 179.3075,278.4959 179.9285,278.4293 180.5804,278.4365 181.2568,278.5018 181.9511,278.6094 182.6567,278.7438 183.3673,278.8891 184.0762,279.0298 184.7769,279.15 185.4629,279.2341 186.1277,279.2664 186.7647,279.2312 187.3674,279.1129 187.9293,278.8956 188.452,278.5837 188.9739,278.2717 189.5376,278.0638 190.1353,277.9405 190.7361,277.8247 191.3111,277.6449 191.8568,277.3906 192.3838,277.0861 192.9031,276.7564 193.4267,276.4334 193.9711,276.1777 194.5506,276.0451 195.1585,276.0073 195.7791,276.001 196.3966,275.9627 196.9953,275.8294 197.5749,275.5714 198.1679,275.2327 198.783,274.8693 199.3278,274.5472 199.6874,274.3347 199.7482,274.2993 199.4804,274.4584 198.9872,274.7501 198.3832,275.1059 197.7772,275.4575 197.1961,275.7471 196.6065,275.9261 195.9957,275.9951 195.3773,276.0124 194.7662,276.0395 194.1775,276.1379 193.6225,276.356 193.0889,276.6515 192.5554,276.949 192.0153,277.2236 191.4717,277.4843 190.9278,277.7409 190.3848,277.9985 189.8356,278.2402 189.2699,278.4428 188.6795,278.5863 188.0645,278.6718 187.4287,278.7078 186.7757,278.7029 186.1092,278.6659 185.4328,278.6054 184.7502,278.53 184.065,278.4484 183.381,278.3692 182.7017,278.301 182.0309,278.2525 181.3721,278.2324 180.729,278.2493 180.1054,278.3118 179.5048,278.4285 178.9309,278.6082 178.3874,278.8595 177.8777,279.1907 177.3921,279.5882 176.8993,280.0031 176.3752,280.3962 175.8187,280.7616 175.2327,281.0987 174.62,281.4072 173.9833,281.6866 173.3254,281.9363 172.6491,282.156 171.9572,282.3451 171.2525,282.5031 170.5378,282.6296 169.8157,282.7242 169.0892,282.7863 168.361,282.8154 167.6339,282.8112 166.9107,282.773 166.1942,282.7006 165.487,282.5933 164.7922,282.4506 164.1123,282.2723 163.4502,282.0576 162.8088,281.8063 162.1907,281.5177 161.5987,281.1915 161.0357,280.8272 160.5044,280.4242 160.0076,279.9821 159.5406,279.5134 159.0696,279.0812 158.5579,278.752 157.9996,278.5346 157.4008,278.414 156.7677,278.3752 156.1067,278.4031 155.4239,278.4826 154.7258,278.5988 154.0184,278.7365 153.3082,278.8807 152.6013,279.0163 151.904,279.1284 151.2226,279.2019 150.5634,279.2216 149.9326,279.1727 149.3365,279.0399 148.7809,278.8093 148.2596,278.4962 147.7531,278.148 147.2466,277.8005 146.7334,277.4698 146.1933,277.2037 145.6009,277.064 144.9571,277.0482 144.2851,277.1002 143.6088,277.1625 142.952,277.1777 142.3386,277.0881 141.7917,276.838 141.3106,276.4291 140.8653,275.9339 140.424,275.429 139.955,274.9911 139.4239,274.7031 138.7878,274.6683 138.0024,274.9942" stroke="black" stroke-width="1" /><polyline fill="none" points="140.9907,226.9995 141.7832,226.4374 142.5523,225.9454 143.2974,225.521 144.0181,225.1615 144.714,224.8646 145.3846,224.6275 146.0294,224.4476 146.648,224.3225 147.2399,224.2496 147.8047,224.2262 148.3419,224.2499 148.8509,224.318 149.3315,224.4279 149.7831,224.5772 150.2052,224.7631 150.5975,224.9833 150.9593,225.235 151.2904,225.5157 151.5901,225.8229 151.8581,226.1539 152.0939,226.5063 152.2971,226.8773 152.4671,227.2646 152.6035,227.6654 152.7059,228.0772 152.7738,228.4975 152.8067,228.9236 152.8042,229.3531 152.7658,229.7833 152.6911,230.2116 152.5795,230.6355 152.4307,231.0525 152.2442,231.4599 152.0195,231.8551 151.7567,232.2357 151.4588,232.5992 151.1292,232.9432 150.7714,233.2653 150.3889,233.563 149.9851,233.834 149.5637,234.0759 149.128,234.2863 148.6816,234.4627 148.2279,234.6027 147.7705,234.7039 147.3129,234.764 146.8585,234.7806 146.4108,234.7511 145.9733,234.6733 145.5475,234.548 145.1321,234.3807 144.7254,234.1771 144.3259,233.9433 143.932,233.6849 143.5421,233.4079 143.1547,233.118 142.7681,232.8213 142.3808,232.5233 141.9911,232.2302 141.5982,231.9468 141.2057,231.6713 140.8201,231.3987 140.4475,231.1235 140.0942,230.8406 139.7666,230.5447 139.4709,230.2306 139.2135,229.893 139.0005,229.5266 138.8384,229.1263" stroke="black" stroke-width="1" /><polyline fill="none" points="157.9454,223.0985 158.5005,222.3942 159.1448,221.7935 159.8661,221.2916 160.6521,220.8836 161.4904,220.5649 162.369,220.3306 163.2755,220.1759 164.1977,220.096 165.1233,220.0862 166.04,220.1416 166.9357,220.2575 167.7981,220.4289 168.6149,220.6513 169.3738,220.9197 170.0627,221.2293 170.6692,221.5755 171.1811,221.9533 171.5863,222.3579 171.8756,222.7839 172.046,223.2245 172.0947,223.6726 172.0194,224.1215 171.8236,224.5649 171.5159,224.9974 171.1051,225.4135 170.6003,225.8079 170.0119,226.1766 169.3512,226.5158 168.6296,226.8221 167.8581,227.092 167.0482,227.3218 166.2111,227.508 165.3579,227.647 164.5,227.7352 163.6486,227.7692 162.815,227.7452 162.0104,227.6598 161.2461,227.5095 160.5334,227.2905 159.8834,226.9994 159.3074,226.6326 158.8168,226.1865 158.4227,225.6576 158.1364,225.0423" stroke="black" stroke-width="1" /><polyline fill="none" points="155.8945,215.0123 156.434,214.4974 156.9675,214.1086 157.4958,213.8352 158.0196,213.6666 158.5397,213.5919 159.0568,213.6006 159.5716,213.6818 160.085,213.825 160.5977,214.0193 161.1104,214.2541 161.6238,214.5188 162.1388,214.8025 162.6561,215.0946 163.1764,215.3844 163.6999,215.6621 164.2262,215.9187 164.7548,216.1454 165.2854,216.3331 165.8175,216.4731 166.3506,216.5565 166.8844,216.5743 167.4184,216.5176 167.9521,216.3775 168.4851,216.1452 169.0172,215.813 169.5513,215.4282 170.0956,215.1146 170.6554,214.9732 171.2216,214.9662 171.7808,215.0132 172.3193,215.0334 172.8237,214.9464 173.2842,214.6859 173.7249,214.3139 174.1872,213.9587 174.6947,213.7011 175.2401,213.5392 175.8132,213.4634 176.4039,213.4637 177.0019,213.5306 177.5969,213.6542 178.1788,213.8247 178.7373,214.0324 179.263,214.2676 179.7576,214.5224 180.23,214.7895 180.6889,215.062 181.1436,215.3328 181.6028,215.5948 182.0756,215.8411 182.564,216.0731 183.0453,216.3224 183.5126,216.588 183.9943,216.803 184.5169,216.9104 185.0732,216.9513 185.6434,217.0038 186.2074,217.1452 186.7425,217.4098 187.2222,217.7769 187.62,218.2223 187.9092,218.7217 188.0639,219.2512 188.0782,219.7941 187.9649,220.3414 187.7376,220.8841 187.4099,221.4131 186.9955,221.9195 186.508,222.3944 185.9611,222.8288 185.3684,223.2137 184.7435,223.5402 184.1,223.7993 183.4517,223.9821 182.8121,224.0795 182.1957,224.0856 181.6181,223.9989 181.0953,223.8188 180.639,223.5598 180.2322,223.3403 179.8465,223.3184 179.4535,223.5295 179.0249,223.8426 178.5384,224.1342 177.9982,224.3741 177.4165,224.5599 176.8056,224.6893 176.1778,224.7599 175.5454,224.7694 174.9208,224.7155 174.3161,224.5958 173.7437,224.408 173.2159,224.1497 172.7439,223.8194 172.3213,223.4288 171.9268,223.0011 171.5386,222.5596 171.1348,222.1278 170.6951,221.7278 170.2141,221.3683 169.6961,221.0491 169.1455,220.77 168.5666,220.531 167.9637,220.3316 167.3414,220.1719 166.7039,220.0515 166.0557,219.9702 165.4011,219.928 164.7445,219.9245 164.0902,219.9597 163.4427,220.0332 162.8064,220.1449 162.1855,220.2946 161.5846,220.4821 161.0079,220.7073 160.4598,220.9698 159.9448,221.2696 159.4672,221.6064 159.0314,221.98 158.6336,222.3852 158.2299,222.7922 157.7651,223.1639 157.2166,223.4823 156.5951,223.7492 155.9133,223.9671 155.1838,224.1386 154.419,224.2664 153.6315,224.3529 152.8338,224.4008 152.0385,224.4126 151.2582,224.391 150.5053,224.3386 149.7925,224.258 149.1322,224.1517 148.537,224.0223 148.0195,223.8724 147.5922,223.7047 147.2676,223.5216 147.0583,223.3259 146.9768,223.1201 147.0352,222.9068 147.2331,222.6898 147.5562,222.4743 147.9895,222.2655 148.5182,222.0686 149.1272,221.8887 149.8017,221.731 150.5267,221.6008 151.2873,221.5032 152.0686,221.4434 152.8555,221.4267 153.6332,221.4581 154.3868,221.5429 155.1012,221.6863 155.7616,221.8935 156.353,222.1696 156.8605,222.5199 157.2692,222.9495 157.5703,223.4546 157.7701,224.0099 157.8767,224.5869 157.8984,225.1571 157.8435,225.6922 157.7203,226.1639 157.5355,226.5549 157.2927,226.8687 156.9955,227.111 156.6472,227.2873 156.2512,227.4033 155.8111,227.4645 155.3302,227.4766 154.812,227.4451 154.2599,227.3757 153.6773,227.274 153.0676,227.1455 152.4344,226.9959 151.781,226.8308 151.1108,226.6557 150.4273,226.4763 149.734,226.2982 149.0341,226.127 148.3313,225.9683 147.6289,225.8277 146.9303,225.7107 146.2389,225.6231 145.5583,225.5704 144.8918,225.5582 144.2428,225.5921 143.6149,225.6777 143.0114,225.8206 142.4357,226.0264 141.8913,226.3008 141.3816,226.6493 140.9101,227.0775 140.4751,227.5739 140.0629,228.0854 139.6576,228.5525 139.2437,228.9155 138.8054,229.1154 138.334,229.1306 137.8328,229.0073 137.3067,228.7993 136.7604,228.5599 136.1986,228.3429 135.6264,228.2006 135.0559,228.1337 134.5101,228.0701 134.0125,227.9325 133.5852,227.6574 133.2422,227.2538 132.9951,226.7538 132.8554,226.1898 132.8347,225.5938 132.9445,224.9982 133.1901,224.4342 133.5527,223.9289 134.0076,223.5086 134.5302,223.1995 135.0958,223.0278 135.6797,222.9908 136.2574,223.0051 136.8044,222.9734 137.2983,222.8055 137.7424,222.4982 138.1566,222.1044 138.5611,221.6782 138.9763,221.2735 139.42,220.9387 139.8928,220.6772 140.387,220.471 140.8968,220.3053 141.4166,220.1657 141.941,220.0379 142.4644,219.9075 142.9813,219.7603 143.4866,219.5834 143.9763,219.3682 144.4473,219.1078 144.9015,218.8073 145.3441,218.4791 145.7802,218.1356 146.215,217.7893 146.6538,217.4525 147.1017,217.1378 147.5638,216.8575 148.0454,216.624 148.5473,216.4394 149.0643,216.291 149.5906,216.165 150.1204,216.0475 150.6478,215.9245 151.1664,215.7801 151.644,215.537 152.0193,215.0467" stroke="black" stroke-width="1" /><polyline fill="none" points="157.0013,214.0032 156.705,214.5305 156.3255,214.8567 155.8788,215.0209 155.3812,215.0622 154.8488,215.0195 154.2979,214.9319 153.7444,214.8384 153.2048,214.778 152.6949,214.7898 152.2312,214.9128 151.8283,215.1826 151.4658,215.55 151.0863,215.8764 150.6373,216.0351 150.129,216.0505 149.605,216.028 149.1092,216.0737 148.6766,216.2717 148.2835,216.5654 147.8836,216.8425 147.4489,217.0356 147.0066,217.2103 146.5831,217.4304 146.1776,217.694 145.785,217.9888 145.4002,218.3025 145.0182,218.6228 144.6339,218.9375 144.2421,219.2342 143.8374,219.5 143.4117,219.7147 142.955,219.8545 142.4629,219.9088 141.9561,219.9276 141.4618,219.9768 141.0073,220.1228 140.6038,220.3924 140.2121,220.6904 139.7845,220.8999 139.3184,221.0145 138.8802,221.1945 138.5002,221.5147 138.1538,221.9173 137.8124,222.3359 137.4474,222.7037 137.0304,222.9541 136.5417,223.0398 136.0109,223.0173 135.4839,222.9787 135.0067,223.016 134.6125,223.1986 134.2848,223.5096 133.9949,223.911 133.7146,224.3649 133.4154,224.8336 133.0687,225.2791 132.6462,225.6635 132.1193,225.949 131.4735,226.1033 130.808,226.1403 130.2771,226.096 130.0359,226.0069 130.2027,225.9104 130.6887,225.8494 131.3319,225.8688 131.9704,226.0138 132.4772,226.3107 132.8666,226.7114 133.1887,227.149 133.4932,227.5568 133.8301,227.8677 134.247,228.0187 134.7435,228.0288 135.2709,227.9994 135.7783,228.035 136.2194,228.2305 136.6087,228.5437 137.0057,228.831 137.4572,228.9804 137.9285,229.0795 138.3646,229.2648 138.7609,229.5484 139.1284,229.9034 139.4779,230.303 139.8204,230.7204 140.1668,231.1287 140.5281,231.5011 140.9151,231.8107 141.3371,232.035 141.7848,232.1964 142.2384,232.3432 142.6869,232.5026 143.1238,232.6904 143.5429,232.9225 143.9377,233.2145 144.3064,233.5712 144.6621,233.9593 145.021,234.3372 145.3995,234.6635 145.8139,234.8967 146.2795,234.9981 146.7918,234.9821 147.3292,234.9092 147.8694,234.8412 148.3904,234.84 148.8699,234.9677 149.2888,235.2715 149.6563,235.6615 149.9973,235.9722 150.3333,236.0693 150.6712,235.9564 151.0135,235.6739 151.3631,235.2622 151.7226,234.7617 152.0948,234.2129 152.4825,233.6561 152.8884,233.1317 153.3149,232.6772 153.7619,232.3025 154.2279,232.0024 154.7114,231.7719 155.2109,231.6058 155.7248,231.4991 156.2518,231.4466 156.7902,231.4432 157.3386,231.4837 157.8955,231.5631 158.4593,231.6761 159.0285,231.8177 159.6017,231.9828 160.1773,232.1662 160.7537,232.3628 161.3296,232.5674 161.9034,232.775 162.4736,232.9804 163.0387,233.1785 163.5971,233.3641 164.1474,233.5322 164.688,233.6776 165.2175,233.7952 165.7343,233.8798 166.237,233.9264 166.724,233.9297 167.1938,233.8848 167.6449,233.7863 168.0757,233.6294 168.4849,233.4087 168.8709,233.1192 169.2333,232.7592 169.5875,232.3713 169.959,232.0279 170.37,231.7909 170.8216,231.6633 171.308,231.6282 171.8234,231.6689 172.3622,231.7682 172.9183,231.9094 173.4862,232.0755 174.0599,232.2496 174.6337,232.4149 175.2018,232.5544 175.7584,232.6512 176.2977,232.6885 176.8139,232.6492 177.3012,232.5166 177.7539,232.2736 178.166,231.9043 178.5269,231.4355 178.819,230.9564 179.0244,230.5612 179.125,230.344 179.1043,230.3899 178.967,230.6759 178.7308,231.1092 178.4138,231.596 178.0341,232.0424 177.608,232.3716 177.1433,232.5803 176.6459,232.6851 176.1215,232.7026 175.5759,232.6493 175.015,232.5418 174.4444,232.3966 173.87,232.2302 173.2976,232.0592 172.7328,231.9002 172.1816,231.7698 171.6497,231.6844 171.1428,231.6606 170.6668,231.715 170.2274,231.8641 169.83,232.1235 169.4671,232.4781 169.1156,232.8756 168.753,233.2649 168.3711,233.6264 167.9709,233.9601 167.5531,234.2663 167.1189,234.5451 166.6691,234.797 166.2047,235.0222 165.7268,235.2209 165.2361,235.3935 164.7338,235.5403 164.2207,235.6614 163.6978,235.7572 163.1661,235.8279 162.6265,235.8739 162.08,235.8954 161.5275,235.8927 160.9701,235.8661 160.4086,235.8158 159.844,235.7422 159.2773,235.6454 158.7095,235.5258 158.1414,235.3837 157.5741,235.2193 157.0085,235.0329 156.4456,234.8248 155.8863,234.5953 155.3316,234.3446 154.7825,234.0731 154.2398,233.7809 153.7046,233.4685 153.1779,233.1359 152.6656,232.7841 152.2504,232.4211 152.0743,232.0607 152.2426,231.7119 152.6176,231.3536 152.9675,230.9528 153.1281,230.4884 153.135,229.9751 153.0609,229.4342 152.9782,228.8867 152.9596,228.3539 153.0772,227.8571 153.3615,227.4273 153.7673,227.1138 154.2423,226.9648 154.7528,226.9668 155.2824,227.0491 155.8155,227.1389 156.3365,227.163 156.8297,227.0487 157.2812,226.7377 157.6963,226.3261 158.0916,226.0015 158.4824,225.9162 158.8779,226.0501 159.2851,226.3333 159.7112,226.6959 160.1634,227.0682 160.6448,227.4025 161.1516,227.6932 161.6789,227.9395 162.2221,228.1405 162.7764,228.2952 163.3369,228.4028 163.899,228.4623 164.4579,228.4729 165.0088,228.4337 165.547,228.3438 166.0676,228.2022 166.566,228.0081 167.0374,227.7606 167.477,227.4588 167.88,227.1018 168.2451,226.6948 168.603,226.3035 169.0029,226.0277 169.4799,225.9369 170.0065,225.9663 170.5377,226.0141 171.0286,225.9784 171.4492,225.7879 171.8156,225.468 172.1531,225.0628 172.4872,224.6163 172.8431,224.1726 173.245,223.7743 173.6984,223.4413 174.1941,223.1755 174.7226,222.9779 175.2741,222.8499 175.839,222.7927 176.4077,222.8074 176.9705,222.8954 177.5179,223.0579 178.0401,223.296 178.5276,223.611 178.9706,224.0043 179.3634,224.453 179.7191,224.8167 180.0567,224.9185 180.3976,224.6837 180.7697,224.2777 181.2007,223.8973 181.6952,223.649 182.2291,223.5307 182.7773,223.5344 183.3141,223.652 183.8144,223.8752 184.2543,224.1946 184.6366,224.5835 184.9839,225.0015 185.3193,225.4078 185.6659,225.762 186.0469,226.0233 186.478,226.1658 186.9539,226.2054 187.4655,226.166 188.0035,226.0712 188.5588,225.9447 189.1223,225.8102 189.6848,225.6913 190.2372,225.6118 190.7703,225.5954 191.2749,225.6658 191.7419,225.8465 192.1628,226.1592 192.5507,226.5607 192.9427,226.9347 193.3737,227.1691 193.843,227.2385 194.3287,227.1675 194.8089,226.9812 195.264,226.7056 195.6932,226.3692 196.1034,226.002 196.5014,225.6338 196.8943,225.2948 197.2888,225.0146 197.6921,224.8234 198.111,224.7511 198.5524,224.8275 199.0227,225.08 199.5124,225.4563 199.9929,225.8093 200.4364,226.0064 200.8346,226.1235 201.1956,226.341 201.5698,226.6472 202.0295,226.9292 202.6209,227.0979 203.2855,227.1614 203.9386,227.1526 204.4952,227.1043 204.8705,227.0491 204.9797,227.02 204.7825,227.0337 204.3458,227.0685 203.7529,227.0966 203.0867,227.0907 202.4305,227.0231 201.8662,226.8668 201.4215,226.6233 201.041,226.3375 200.6645,226.0565 200.2666,225.8022 199.8484,225.5773 199.4124,225.3837 198.9605,225.2235 198.4992,225.0874 198.0577,224.9063 197.6642,224.6118 197.3068,224.2321 196.9626,223.8219 196.6085,223.4362 196.2216,223.13 195.7795,222.9563 195.2811,222.9178 194.7482,222.9619 194.2039,223.033 193.6712,223.0758 193.1733,223.0347 192.7313,222.8583 192.3445,222.5488 191.9966,222.1456 191.6709,221.689 191.3507,221.2192 191.0194,220.7766 190.6603,220.4013 190.2568,220.1338 189.793,220.012 189.2892,219.9869 188.8115,219.8968 188.3912,219.6657 188.016,219.3246 187.6711,218.9101 187.3417,218.4589 187.013,218.0076 186.6703,217.5931 186.2987,217.2519 185.8835,217.0206 185.4205,216.9089 184.9281,216.8673 184.4281,216.8386 183.9418,216.7661 183.4809,216.6208 183.0418,216.4184 182.6193,216.1785 182.2081,215.9208 181.8032,215.6642 181.4003,215.4166 180.9957,215.1782 180.5858,214.9488 180.1667,214.7286 179.7349,214.5174 179.2867,214.3152 178.8184,214.1221 178.3289,213.9403 177.823,213.7776 177.3061,213.6422 176.7839,213.5427 176.2619,213.4874 175.7456,213.4847 175.2406,213.543 174.7524,213.6707 174.2867,213.8763 173.8485,214.1665 173.432,214.5076 173.0198,214.8232 172.5952,215.0415 172.1536,215.1591 171.6966,215.209 171.2261,215.2251 170.744,215.2408 170.252,215.2898 169.7521,215.3994 169.2463,215.5634 168.7368,215.764 168.2257,215.9835 167.715,216.2043 167.207,216.4086 166.7038,216.5789 166.2075,216.6973 165.7201,216.7463 165.244,216.7081 164.7811,216.565 164.3336,216.2994 163.9034,215.8962 163.4832,215.4234 163.0553,215.0468 162.6039,214.9164 162.142,214.9581 161.6999,214.9619 161.3081,214.7157 160.9973,214.0078" stroke="black" stroke-width="1" /><polyline fill="none" points="145.4784,191.5062 146.1799,191.3626 146.8135,191.2868 147.3813,191.2741 147.8851,191.32 148.327,191.4198 148.7089,191.5689 149.0328,191.7628 149.3005,191.9967 149.5142,192.266 149.6756,192.5662 149.7869,192.8926 149.8499,193.2406 149.8666,193.6056 149.839,193.983 149.7689,194.3681 149.6585,194.7563 149.5096,195.1431 149.3242,195.5237 149.1042,195.8936 148.8516,196.2482 148.5684,196.5828 148.2566,196.8928 147.918,197.1736 147.5546,197.4206 147.1684,197.6292 146.7615,197.7949 146.3372,197.9163 145.9002,197.9945 145.455,198.0305 145.0062,198.0254 144.5583,197.9804 144.1161,197.8965 143.684,197.7748 143.2666,197.6164 142.8686,197.4224 142.4945,197.1939 142.1488,196.9319 141.8363,196.6377 141.5614,196.3122 141.3288,195.9565 141.1431,195.5718 141.0087,195.1592 140.9304,194.7197 140.9127,194.2544 140.9602,193.7644 141.0774,193.2509 141.269,192.7148 141.5396,192.1573 141.8936,191.5796" stroke="black" stroke-width="1" /><polyline fill="none" points="182.0072,189.9973 182.3116,189.6573 182.6486,189.3778 183.0148,189.1561 183.4069,188.9894 183.8216,188.8751 184.2555,188.8104 184.7054,188.7926 185.1677,188.8189 185.6394,188.8867 186.1169,188.9933 186.597,189.1359 187.0763,189.3118 187.5515,189.5182 188.0192,189.7525 188.4762,190.012 188.919,190.2939 189.3445,190.5955 189.7491,190.914 190.1296,191.2468 190.4827,191.5912 190.8049,191.9444 191.0931,192.3037 191.3438,192.6664 191.5537,193.0297 191.7195,193.391 191.8378,193.7475 191.9053,194.0965 191.9187,194.4353 191.8746,194.7612 191.7697,195.0714 191.6039,195.3637 191.382,195.6363 191.109,195.8876 190.7903,196.1159 190.4311,196.3198 190.0366,196.4974 189.612,196.6473 189.1625,196.7676 188.6934,196.857 188.2098,196.9136 187.7171,196.9359 187.2203,196.9222 186.7248,196.8709 186.2358,196.7804 185.7584,196.649 185.298,196.4751 184.8596,196.2571 184.4486,195.9934 184.0702,195.6822 183.7295,195.3221 183.4318,194.9113 183.1823,194.4482 182.9863,193.9312 182.849,193.3587 182.7661,192.7398 182.7052,192.1164 182.6284,191.5366 182.4976,191.0484 182.275,190.6999" stroke="black" stroke-width="1" /><polyline fill="none" points="171.867,186.1446 172.3108,185.5859 172.7757,185.1152 173.2587,184.7285 173.7567,184.4215 174.2668,184.19 174.7858,184.03 175.3108,183.9372 175.8387,183.9074 176.3664,183.9366 176.8911,184.0206 177.4095,184.1551 177.9188,184.336 178.4158,184.5592 178.8976,184.8205 179.361,185.1157 179.8031,185.4407 180.2209,185.7913 180.6113,186.1633 180.9712,186.5526 181.2977,186.9549 181.5877,187.3663 181.8382,187.7824 182.0461,188.1991 182.2084,188.6122 182.3222,189.0176 182.3842,189.4112 182.3917,189.7887 182.3414,190.146 182.2303,190.4789 182.0555,190.7833 181.8145,191.0551 181.5111,191.2915 181.1537,191.4908 180.7508,191.6511 180.3105,191.7705 179.8414,191.8473 179.3518,191.8796 178.8501,191.8655 178.3446,191.8033 177.8426,191.6925 177.3472,191.5376 176.8602,191.3445 176.3836,191.1192 175.9194,190.8676 175.4694,190.5955 175.0344,190.3084 174.6139,190.011 174.2074,189.7082 173.8143,189.4047 173.4342,189.1054 173.0663,188.815 172.7103,188.5384 172.3656,188.2803 172.0315,188.0455" stroke="black" stroke-width="1" /><polyline fill="none" points="150.978,184.9935 151.4016,184.6061 151.8474,184.298 152.3109,184.0646 152.7879,183.9014 153.2741,183.8038 153.7652,183.7673 154.257,183.7872 154.7451,183.8592 155.2253,183.9785 155.6932,184.1407 156.1446,184.3411 156.5752,184.5752 156.9806,184.8385 157.3567,185.1264 157.699,185.4343 158.0034,185.7578 158.2655,186.0921 158.481,186.4328 158.6456,186.7753 158.7552,187.1151 158.8052,187.4475 158.7916,187.7681 158.7104,188.0725 158.5644,188.3602 158.3603,188.6329 158.1051,188.8926 157.8059,189.1411 157.4696,189.3803 157.1031,189.6121 156.7135,189.8384 156.3078,190.0609 155.8928,190.2817 155.4757,190.5026 155.0629,190.7252 154.6562,190.9477 154.2541,191.1664 153.8551,191.3775 153.4579,191.577 153.0609,191.7612 152.6626,191.9261 152.2631,192.0686 151.8649,192.187 151.4711,192.2794 151.0846,192.3443 150.7084,192.38 150.3456,192.3848 149.9991,192.3571 149.6719,192.2951 149.3671,192.1973 149.0876,192.062 148.8365,191.8875 148.6166,191.6721 148.4311,191.4142 148.2829,191.1121 148.1746,190.766 148.1078,190.3825 148.0835,189.9698 148.1028,189.5361 148.1669,189.0894 148.2769,188.6378 148.4341,188.1896 148.6394,187.7528 148.894,187.3356 149.1992,186.9461" stroke="black" stroke-width="1" /><polyline fill="none" points="163.0099,183.9844 163.3647,184.0372 163.7432,184.081 164.1425,184.1177 164.5596,184.1494 164.9915,184.1779 165.4353,184.2052 165.8879,184.2332 166.3464,184.2639 166.8078,184.2992 167.2691,184.341 167.7274,184.3913 168.1797,184.4521 168.623,184.5252 169.0543,184.6126 169.4706,184.7163 169.869,184.8381 170.2465,184.9801 170.6001,185.1441 170.9268,185.3322 171.2237,185.5462 171.4877,185.7881 171.716,186.0598 171.9057,186.3628 172.0567,186.6951 172.1695,187.0528 172.2452,187.4323 172.2843,187.8296 172.2877,188.2411 172.2562,188.6629 172.1906,189.0912 172.0916,189.5223 171.9601,189.9524 171.7967,190.3777 171.6024,190.7944 171.3779,191.1987 171.1239,191.5868 170.8413,191.955 170.5314,192.3005 170.1969,192.6226 169.8403,192.9206 169.4644,193.194 169.0718,193.4421 168.6652,193.6643 168.2472,193.8601 167.8205,194.0288 167.3877,194.1699 166.9516,194.2827 166.5147,194.3667 166.0798,194.4212 165.6495,194.4457 165.2265,194.4395 164.8134,194.402 164.413,194.3328 164.0278,194.2311 163.6605,194.0963 163.3138,193.9279 162.9903,193.7253 162.6909,193.4893 162.4131,193.2231 162.1544,192.9303 161.9123,192.6143 161.6841,192.2784 161.4673,191.9262 161.2592,191.5611 161.0573,191.1865 160.859,190.8059 160.6617,190.4227 160.4629,190.0403 160.2599,189.6623 160.0502,189.292 159.8311,188.9329 159.6002,188.5885 159.3547,188.2621 159.0922,187.9573" stroke="black" stroke-width="1" /><polyline fill="none" points="67.8307,176.0137 68.2558,175.6666 68.6616,175.3749 69.0484,175.1365 69.4168,174.9491 69.7673,174.8106 70.1001,174.7188 70.4159,174.6717 70.7149,174.667 70.9977,174.7025 71.2647,174.7761 71.5163,174.8857 71.753,175.029 71.9753,175.2039 72.1834,175.4082 72.378,175.6399 72.5594,175.8966 72.728,176.1763 72.8844,176.4767 73.0289,176.7958 73.1619,177.1314 73.2841,177.4812 73.3956,177.8431 73.4971,178.215 73.5889,178.5947 73.6715,178.9801 73.7453,179.3689 73.8108,179.759 73.8683,180.1483 73.9169,180.5348 73.9553,180.9169 73.9822,181.2926 73.9962,181.6603 73.9959,182.0181 73.9801,182.3643 73.9473,182.697 73.8962,183.0145 73.8255,183.315 73.7338,183.5967 73.6197,183.8579 73.4819,184.0967 73.3191,184.3114 73.1298,184.5001 72.9128,184.6612 72.6669,184.7929 72.3937,184.895 72.0972,184.9684 71.7812,185.0141 71.4495,185.0331 71.106,185.0262 70.7547,184.9943 70.3994,184.9385 70.0439,184.8597 69.6922,184.7588 69.348,184.6367 69.0154,184.4944 68.6981,184.3328 68.4001,184.1529 68.1252,183.9555 67.8773,183.7417 67.6602,183.5124 67.4779,183.2685 67.3342,183.0109 67.233,182.7406 67.1782,182.4585 67.1736,182.1655 67.2231,181.8627 67.3306,181.5509 67.5,181.2311 67.7351,180.9041" stroke="black" stroke-width="1" /><polyline fill="none" points="66.0009,169.0398 66.2382,168.5854 66.523,168.2368 66.8478,167.9867 67.2053,167.8282 67.5878,167.754 67.9881,167.7571 68.3985,167.8304 68.8117,167.9667 69.2203,168.1589 69.6167,168.3999 69.9935,168.6827 70.3432,169.0 70.6584,169.3447 70.9317,169.7098 71.1556,170.0882 71.3235,170.4731 71.4358,170.8608 71.4957,171.2491 71.5065,171.6356 71.4714,172.0178 71.3937,172.3935 71.2765,172.7604 71.1232,173.116 70.9371,173.458 70.7213,173.7841 70.4791,174.0919 70.2138,174.3791 69.9287,174.6432 69.6276,174.883 69.3249,175.1083 69.0414,175.3372 68.7918,175.5825 68.5753,175.845 68.3892,176.1243 68.231,176.4195 68.098,176.7302 67.9875,177.0556 67.8969,177.3952 67.8236,177.7482 67.7649,178.1141 67.7181,178.4922 67.6807,178.8819 67.6499,179.2825 67.6232,179.6934 67.5979,180.1139 67.5713,180.5435 67.5408,180.9813 67.5036,181.4237 67.4569,181.865 67.3979,182.2992 67.3236,182.7206 67.2305,183.1224 67.115,183.4983 66.9737,183.8416 66.803,184.1458 66.5994,184.4043 66.3593,184.6105 66.0792,184.7579 65.7569,184.8412 65.3986,184.8631 65.0138,184.8293 64.6121,184.7457 64.2027,184.6179 63.7953,184.4518 63.3994,184.2532 63.0243,184.0279 62.6794,183.7814 62.3683,183.5171 62.0898,183.2362 61.8427,182.9396 61.6256,182.6285 61.437,182.3039 61.2758,181.9668 61.1405,181.6185 61.0299,181.2598 60.9425,180.892 60.877,180.516 60.8322,180.1329 60.8065,179.7438 60.7988,179.3498 60.8077,178.9519 60.8317,178.5512 60.8697,178.1488 60.9202,177.7457 60.9819,177.343 61.0534,176.9417 61.1335,176.543 61.2207,176.1479 61.3142,175.7573 61.4139,175.3713 61.5202,174.9901 61.6334,174.6136 61.754,174.2419 61.8822,173.8751 62.0184,173.5132 62.1629,173.1562 62.3161,172.8043 62.4783,172.4574 62.6498,172.1157 62.831,171.7791 63.0222,171.4478 63.2237,171.1217 63.436,170.8009 63.6593,170.4855 63.8939,170.1756 64.1403,169.8711 64.3987,169.5722 64.6695,169.2788 64.9531,168.9911" stroke="black" stroke-width="1" /><polyline fill="none" points="184.0105,165.9956 184.5871,166.262 184.8582,166.6548 184.9514,167.1211 184.9946,167.608 185.1152,168.0629 185.3843,168.4564 185.7539,168.8084 186.1612,169.1448 186.543,169.4919 186.8364,169.8756 186.986,170.3189 187.0426,170.8002 187.1285,171.2676 187.2899,171.7019 187.5191,172.1067 187.8072,172.486 188.1453,172.844 188.5244,173.1846 188.9358,173.5121 189.3705,173.8304 189.8196,174.1437 190.2742,174.456 190.7254,174.7714 191.1645,175.094 191.5823,175.4279 191.9701,175.7771 192.319,176.1458 192.6201,176.538 192.8645,176.9578 193.0485,177.4062 193.2031,177.8642 193.368,178.3079 193.5521,178.7338 193.7522,179.146 193.9651,179.5489 194.1877,179.9467 194.4169,180.3436 194.6494,180.7439 194.8821,181.1517 195.1121,181.5698 195.3368,181.9979 195.5536,182.4354 195.7599,182.882 195.9533,183.337 196.1311,183.7999 196.2908,184.2702 196.4298,184.7474 196.5456,185.2309 196.6357,185.7203 196.6974,186.215 196.7282,186.7145 196.7255,187.2182 196.6869,187.7257 196.6097,188.2364 196.4913,188.7498 196.3293,189.2654 196.1211,189.7826 195.8645,190.3004 195.5628,190.8107 195.2233,191.3004 194.853,191.7564 194.4593,192.1654 194.0493,192.5143 193.6303,192.7899 193.2095,192.979 192.7942,193.0686 192.3915,193.0453 192.0086,192.8962 191.6477,192.6233 191.3012,192.258 190.9602,191.8348 190.6163,191.3882 190.2605,190.9528 189.8843,190.5631 189.4789,190.2538 189.0356,190.0593 188.5498,190.0014 188.0425,190.0213 187.5446,190.0293 187.087,189.9355 186.6909,189.6765 186.3237,189.3349 185.9345,189.0434 185.4874,188.8956 184.9932,188.8661 184.4714,188.9071 183.9414,188.9704 183.4227,189.0081 182.9347,188.9724 182.4903,188.8318 182.085,188.5965 181.7116,188.2835 181.363,187.9098 181.0321,187.4923 180.7117,187.048 180.3947,186.5939 180.0739,186.1469 179.7423,185.7239 179.3926,185.342 179.0178,185.0181 178.6121,184.7656 178.1767,184.5825 177.7146,184.4617 177.229,184.3964 176.7228,184.3797 176.1992,184.4049 175.6612,184.4649 175.1119,184.553 174.5543,184.6622 173.9916,184.7858 173.4268,184.9168 172.863,185.0484 172.3033,185.1736 171.7506,185.2857 171.2082,185.3778 170.679,185.443 170.1662,185.4744 169.6728,185.4652 169.2018,185.4085 168.7565,185.2975 168.3397,185.1252 167.9546,184.8848 167.5936,184.5888 167.2235,184.2958 166.8076,184.071 166.3329,183.9416 165.8189,183.8815 165.288,183.8609 164.7625,183.8497 164.2645,183.8181 163.8164,183.736 163.4404,183.5735 163.1587,183.3006 162.9906,182.8909 162.9156,182.3662 162.8845,181.7824 162.8479,181.1963 162.7559,180.6648 162.559,180.2444 162.2075,179.9921 161.6709,179.9416 161.0333,179.9893 160.4065,179.9991 159.822,179.9364 159.2829,179.8019 158.7922,179.5963 158.3533,179.3204 157.9692,178.975 157.6431,178.5608 157.3781,178.0786 157.1773,177.5291 157.044,176.9132 156.9812,176.2315 156.9898,175.4919 157.0443,174.7775 157.1037,174.2179 157.1265,173.9434 157.0772,174.0665 156.9761,174.5367 156.8742,175.2131 156.8228,175.9541 156.8684,176.6295 157.018,177.2039 157.2589,177.688 157.5783,178.0933 157.9636,178.431 158.4019,178.7125 158.8805,178.949 159.3866,179.152 159.9076,179.3326 160.4306,179.5022 160.9429,179.6722 161.4317,179.8537 161.8844,180.0582 162.2881,180.297 162.63,180.5812 162.8975,180.9224 163.0794,181.3297 163.1766,181.7968 163.1959,182.3099 163.144,182.8554 163.0277,183.4193 162.8537,183.9881 162.6288,184.5479 162.3597,185.0849 162.0531,185.5854 161.7159,186.0357 161.3548,186.422 160.9765,186.7305 160.5878,186.9474 160.1954,187.0591 159.8058,187.0523 159.4208,186.9304 159.0361,186.7163 158.6471,186.4339 158.2494,186.1071 157.8383,185.7598 157.4095,185.416 156.9583,185.0995 156.4812,184.8315 155.9815,184.6168 155.4647,184.4537 154.9364,184.3408 154.4021,184.2764 153.8674,184.2591 153.338,184.2873 152.8193,184.3595 152.3171,184.4741 151.8368,184.6296 151.384,184.8245 150.9643,185.0571 150.5819,185.3259 150.2348,185.6282 149.9191,185.9615 149.6313,186.3232 149.3677,186.7104 149.1246,187.1206 148.8983,187.5512 148.6852,187.9993 148.4817,188.4625 148.2839,188.938 148.0881,189.4226 147.8874,189.9066 147.6726,190.3747 147.4346,190.8115 147.1641,191.202 146.8518,191.5306 146.4886,191.7822 146.0653,191.9415 145.5777,192.0012 145.0405,191.9846 144.473,191.9221 143.8945,191.8441 143.3242,191.7811 142.7813,191.7634 142.2852,191.8214 141.855,191.9856 141.5054,192.2739 141.2372,192.667 141.0486,193.1388 140.9379,193.663 140.9033,194.2136 140.9431,194.7643 141.0555,195.2893 141.237,195.7721 141.4816,196.2112 141.7828,196.6064 142.1344,196.9572 142.5301,197.2635 142.9636,197.5248 143.4284,197.7408 143.9184,197.9113 144.4272,198.036 144.9485,198.1145 145.4759,198.1465 146.0032,198.1317 146.5241,198.0698 147.0321,197.9604 147.5211,197.8034 147.9846,197.5983 148.4164,197.3449 148.8102,197.0428 149.1596,196.6917 149.4583,196.2913 149.7001,195.8413 149.8785,195.3415 149.9887,194.7926 150.0478,194.2138 150.09,193.6384 150.1497,193.0999 150.2616,192.6321 150.4603,192.2686 150.7802,192.0429 151.2458,191.9763 151.8129,192.0075 152.4102,192.0423 152.9661,191.986 153.4214,191.7625 153.7884,191.4035 154.1055,190.9795 154.411,190.5608 154.7431,190.2181 155.1401,190.0212 155.6126,189.9823 156.1223,190.0095 156.6254,189.9993 157.0789,189.8498 157.4745,189.5422 157.861,189.1927 158.2904,188.9267 158.7727,188.8008 159.2776,188.8051 159.7731,188.9271 160.227,189.1542 160.6075,189.4738 160.8825,189.8734 161.0267,190.3393 161.0727,190.8487 161.0822,191.374 161.1176,191.8877 161.2348,192.3644 161.4443,192.796 161.7356,193.1818 162.0981,193.5216 162.5213,193.815 162.9945,194.0614 163.5072,194.2606 164.0488,194.412 164.6088,194.5153 165.1766,194.5701 165.7415,194.5759 166.2931,194.5323 166.8207,194.439 167.3138,194.2954 167.7618,194.1012 168.1544,193.8563 168.5025,193.576 168.8538,193.3033 169.2576,193.0819 169.7129,192.9094 170.168,192.7365 170.5687,192.5119 170.8609,192.1842 171.0028,191.7107 171.0768,191.1329 171.224,190.5378 171.4766,189.9853 171.8076,189.5202 172.189,189.1871 172.5932,189.0307 172.9923,189.0957 173.3736,189.3747 173.7647,189.7198 174.1999,189.9611 174.6875,190.0287 175.1959,190.0087 175.6898,190.0008 176.1347,190.1035 176.5195,190.356 176.866,190.7145 177.1985,191.1288 177.5415,191.5488 177.9192,191.9245 178.3528,192.2095 178.8361,192.3873 179.35,192.4563 179.8753,192.415 180.3927,192.2616 180.8829,191.9945 181.3293,191.6276 181.7332,191.2777 182.103,191.1044 182.4396,191.2211 182.7154,191.5723 182.8963,192.064 182.9947,192.6059 183.1176,193.1161 183.3397,193.5452 183.6501,193.9048 184.0281,194.2136 184.4531,194.4904 184.9042,194.754 185.3607,195.0231 185.802,195.3163 186.2073,195.6526 186.5559,196.0505 186.8272,196.5288 187.0003,197.1064 187.0662,197.7678 187.0561,198.3803 187.0101,198.7854 186.9681,198.8246 186.9729,198.4479 187.0754,197.939 187.3105,197.5586 187.6609,197.3146 188.0997,197.169 188.6005,197.0839 189.1364,197.0214 189.6808,196.9435 190.207,196.8126 190.693,196.6077 191.1229,196.3325 191.4819,195.9928 191.7547,195.5943 191.9264,195.1429 191.9908,194.6472 192.0211,194.1409 192.1219,193.6669 192.3178,193.2349 192.594,192.8382 192.935,192.47 193.3258,192.1235 193.751,191.792 194.1953,191.4686 194.6436,191.1466 195.0806,190.8192 195.491,190.4795 195.8596,190.1208 196.1718,189.7365 196.4225,189.3253 196.6153,188.8899 196.7539,188.4333 196.8418,187.9582 196.8827,187.4677 196.8804,186.9647 196.8384,186.4521 196.7605,185.9327 196.6503,185.4096 196.5115,184.8856 196.3478,184.3637 196.1627,183.8468 195.9601,183.3377 195.7435,182.8394 195.5166,182.3549 195.2831,181.887 195.0466,181.4387 194.8109,181.0128 194.5792,180.6108 194.3533,180.2263 194.1343,179.8507 193.9235,179.4752 193.722,179.0911 193.5309,178.6897 193.3515,178.2622 193.1848,177.8003 193.0159,177.3142 192.807,176.842 192.5375,176.4062 192.2144,176.0039 191.8465,175.6303 191.4428,175.2806 191.0124,174.9499 190.5643,174.6334 190.1074,174.3262 189.6507,174.0235 189.2032,173.7205 188.774,173.4123 188.372,173.0941 188.0062,172.761 187.6855,172.4083 187.4191,172.0309 187.2159,171.6242 187.0848,171.1833 187.0307,170.7051 186.9844,170.2196 186.8202,169.7818 186.513,169.4034 186.1204,169.0605 185.7028,168.7283 185.3204,168.3816 185.0334,167.9956 184.9021,167.5453 184.9867,167.0058" stroke="black" stroke-width="1" /><polyline fill="none" points="151.0148,163.981 151.151,164.4897 151.2098,164.9437 151.1984,165.3482 151.1237,165.7082 150.9929,166.0289 150.813,166.3154 150.5913,166.5728 150.3346,166.8064 150.0502,167.0211 149.7452,167.2222 149.4265,167.4148 149.1014,167.6039 148.7768,167.7948 148.4599,167.9925 148.1578,168.2022 147.8764,168.4281 147.6154,168.6702 147.3725,168.9266 147.1453,169.1957 146.9315,169.4757 146.7288,169.7651 146.5347,170.0621 146.347,170.365 146.1632,170.6722 145.9811,170.9818 145.7983,171.2923 145.6125,171.602 145.4212,171.9091 145.2223,172.212 145.0146,172.5098 144.7994,172.8034 144.5781,173.0935 144.3521,173.3809 144.1226,173.6664 143.8912,173.951 143.6591,174.2353 143.4278,174.5202 143.1986,174.8065 142.973,175.095 142.7522,175.3866 142.5377,175.6821 142.3308,175.9823 142.133,176.288 141.9455,176.6 141.7698,176.9191 141.6051,177.246 141.445,177.5806 141.2823,177.9228 141.1098,178.2725 140.9202,178.6296 140.7063,178.9941 140.4629,179.3648 140.1957,179.7362 139.914,180.1008 139.6271,180.4515 139.3445,180.7809 139.0754,181.0817 138.8293,181.3465 138.6154,181.5682 138.4431,181.7393 138.3218,181.8526 138.2608,181.9007 138.2674,181.8782 138.3373,181.7887 138.4629,181.6392 138.6363,181.4363 138.8497,181.187 139.0952,180.898 139.3652,180.576 139.6518,180.228 139.9472,179.8608 140.2435,179.481 140.5331,179.0956 140.808,178.7113 141.0605,178.335 141.2829,177.9733 141.4749,177.629 141.6476,177.2985 141.8133,176.9776 141.9835,176.6623 142.1622,176.3509 142.3489,176.043 142.5425,175.7383 142.7425,175.4366 142.9479,175.1374 143.1579,174.8405 143.3718,174.5455 143.5888,174.2522 143.808,173.9602 144.0286,173.6692 144.2499,173.379 144.4711,173.0891 144.6913,172.7993 144.9097,172.5093 145.1255,172.2187 145.3381,171.9273 145.5473,171.6351 145.7541,171.3427 145.9592,171.0505 146.1635,170.7592 146.3679,170.4692 146.5732,170.1811 146.7803,169.8953 146.9901,169.6124 147.2033,169.3329 147.4208,169.0574 147.6436,168.7863 147.8724,168.5202 148.1081,168.2596 148.3516,168.0051 148.6037,167.7571 148.8652,167.5162 149.1371,167.2828 149.4201,167.0576 149.7152,166.8411 150.0232,166.6337 150.3448,166.4359 150.6811,166.2484 151.0328,166.0717" stroke="black" stroke-width="1" /><polyline fill="none" points="271.9236,162.9096 272.3484,162.4719 272.778,162.19 273.2072,162.0486 273.6312,162.0324 274.0448,162.1261 274.443,162.3144 274.8207,162.5819 275.173,162.9134 275.4948,163.2935 275.781,163.707 276.0267,164.1387 276.23,164.5802 276.3926,165.0304 276.5164,165.4886 276.6031,165.9543 276.6547,166.4268 276.6729,166.9056 276.6596,167.39 276.6167,167.8794 276.546,168.3731 276.4494,168.8706 276.3287,169.3713 276.1857,169.8745 276.0223,170.3797 275.8403,170.8861 275.6416,171.3933 275.4281,171.9005 275.2014,172.4071 274.9625,172.9113 274.711,173.41 274.4467,173.9002 274.1692,174.3787 273.8783,174.8424 273.5737,175.2884 273.2551,175.7135 272.9222,176.1147 272.5748,176.4889 272.2124,176.8329 271.835,177.1437 271.442,177.4183 271.0333,177.6536 270.6087,177.8464 270.1676,177.9938 269.7101,178.0926 269.2382,178.1413 268.7591,178.1413 268.2804,178.0944 267.8098,178.0022 267.3547,177.8665 266.9229,177.689 266.522,177.4713 266.1595,177.2152 265.843,176.9225 265.5803,176.5947 265.3788,176.2337 265.2458,175.8412 265.1788,175.4203 265.1664,174.9753 265.1971,174.5104 265.2592,174.0301 265.341,173.5387 265.431,173.0405 265.5182,172.5397 265.5991,172.0386 265.6754,171.5385 265.749,171.0406 265.8217,170.5459 265.8952,170.0559 265.9712,169.5715 266.0517,169.094 266.1384,168.6245 266.233,168.1644 266.3373,167.7146 266.4532,167.2764 266.5824,166.8511 266.7267,166.4398 266.8886,166.0441 267.0706,165.6661 267.2755,165.3075 267.5057,164.9703 267.7641,164.6564 268.0531,164.3677 268.3755,164.1061 268.7339,163.8734 269.1309,163.6717 269.5692,163.5027 270.0514,163.3683 270.5801,163.2706 271.1581,163.2113" stroke="black" stroke-width="1" /><polyline fill="none" points="214.9847,143.8927 215.4501,143.5417 215.8425,143.3493 216.1689,143.3008 216.4366,143.3809 216.6528,143.5749 216.8248,143.8677 216.9597,144.2443 217.0648,144.6898 217.1473,145.1891 217.2144,145.7274 217.2734,146.2897 217.3315,146.8609 217.3958,147.4261 217.4736,147.9704 217.565,148.4818 217.6526,148.9559 217.7163,149.3895 217.736,149.7794 217.6917,150.1224 217.5718,150.4175 217.3806,150.6677 217.1241,150.8765 216.8082,151.0474 216.4389,151.1838 216.0221,151.2894 215.5638,151.3674 215.0699,151.4216 214.5463,151.4552 213.999,151.4718 213.434,151.475 212.8572,151.4681 212.2745,151.4547 211.6919,151.4382 211.1154,151.4221 210.5508,151.41 210.0042,151.4053 209.4814,151.4114 208.9884,151.432 208.5276,151.4679 208.093,151.5149 207.6774,151.5677 207.2739,151.6212 206.8753,151.6701 206.4745,151.7092 206.0645,151.7335 205.6381,151.7377 205.1883,151.7166 204.7124,151.6667 204.2162,151.588 203.7065,151.4806 203.19,151.3449 202.6735,151.181 202.1639,150.9893 201.6679,150.7699 201.1923,150.5231 200.7439,150.2493 200.3295,149.9485 199.9559,149.6211 199.6298,149.2674 199.3581,148.8875 199.1476,148.4817 199.0049,148.0503 198.9362,147.5943 198.9401,147.121 199.0111,146.6416 199.1439,146.1671 199.333,145.7086 199.5731,145.2772 199.8586,144.8838 200.1842,144.5397 200.5444,144.2558 200.9338,144.0433 201.3474,143.9103 201.7821,143.8516 202.2354,143.8578 202.7046,143.9195 203.1874,144.0276 203.6811,144.1726 204.1832,144.3453 204.6911,144.5363 205.2024,144.7364 205.7144,144.9361 206.2247,145.1262 206.7308,145.2974 207.2299,145.4403 207.7198,145.5457 208.1977,145.6042 208.6612,145.6065 209.1077,145.5433 209.5347,145.4053 209.9396,145.1831 210.3199,144.8674 210.6731,144.449 210.9967,143.9185" stroke="black" stroke-width="1" /><polyline fill="none" points="276.9607,141.8638 277.3515,141.5506 277.7148,141.3285 278.0518,141.1913 278.364,141.133 278.6528,141.1475 278.9196,141.2286 279.1658,141.3702 279.3928,141.5663 279.602,141.8107 279.7947,142.0974 279.9725,142.4202 280.1366,142.7729 280.2886,143.1496 280.4297,143.5441 280.5614,143.9506 280.6835,144.3663 280.7956,144.7896 280.897,145.2191 280.9873,145.6534 281.0657,146.091 281.1318,146.5306 281.1849,146.9706 281.2246,147.4097 281.2501,147.8463 281.2609,148.2792 281.2566,148.7067 281.2363,149.1275 281.1997,149.5402 281.1461,149.9432 281.0749,150.3353 280.9856,150.7148 280.8776,151.0805 280.7503,151.4308 280.6032,151.7643 280.4355,152.0796 280.2469,152.3753 280.0367,152.6498 279.8043,152.9018 279.5495,153.1297 279.2752,153.3305 278.9862,153.5004 278.6872,153.6357 278.383,153.7325 278.0782,153.7872 277.7778,153.7959 277.4863,153.7548 277.2086,153.6603 276.947,153.5121 276.701,153.3147 276.4697,153.0729 276.2523,152.7915 276.0481,152.4753 275.856,152.1291 275.6754,151.7578 275.5054,151.3662 275.3454,150.9587 275.1959,150.5376 275.0575,150.1052 274.931,149.6635 274.8169,149.2145 274.7159,148.7604 274.6287,148.3032 274.556,147.8451 274.4985,147.3881 274.4567,146.9342 274.4314,146.4857 274.4233,146.0445 274.433,145.6127 274.4611,145.1925 274.5084,144.7859 274.5755,144.3949 274.663,144.0218 274.7717,143.6685 274.9022,143.3372 275.0552,143.0299 275.2314,142.7488 275.4313,142.4958 275.6557,142.2731 275.9053,142.0828" stroke="black" stroke-width="1" /><polyline fill="none" points="60.9625,140.988 61.3082,140.5921 61.6542,140.2962 61.9995,140.0938 62.3436,139.9779 62.6856,139.942 63.0248,139.9792 63.3604,140.0828 63.6917,140.2461 64.0179,140.4623 64.3381,140.7247 64.6518,141.0266 64.958,141.3611 65.2561,141.7217 65.5453,142.1015 65.8248,142.4939 66.0939,142.892 66.3517,143.2891 66.5976,143.6785 66.8308,144.0535 67.0499,144.4097 67.2513,144.7534 67.4305,145.0937 67.5831,145.4398 67.7047,145.801 67.791,146.1862 67.8471,146.5959 67.8954,147.0143 67.9602,147.4239 68.0657,147.8073 68.2346,148.1483 68.4612,148.4545 68.7151,148.7543 68.9654,149.0764 69.1894,149.4391 69.3821,149.8379 69.5408,150.2654 69.6629,150.7143 69.7456,151.1772 69.7864,151.6468 69.7825,152.1158 69.7313,152.5768 69.63,153.0224 69.476,153.4454 69.2666,153.8384 68.9991,154.1941 68.6709,154.505 68.2792,154.7639 67.8215,154.9635 67.3041,155.0997 66.7614,155.1789 66.233,155.2095 65.7585,155.1998 65.3774,155.158 65.1295,155.0925 65.0541,155.0116 65.1765,154.9244 65.4667,154.8434 65.8814,154.7817 66.3778,154.7524 66.9126,154.7688 67.4429,154.8439 67.9254,154.9909 68.3264,155.2184 68.655,155.5129 68.9334,155.8544 69.1831,156.2236 69.4133,156.6111 69.6242,157.015 69.8157,157.4336 69.9878,157.8652 70.1405,158.3082 70.2738,158.7607 70.3875,159.2212 70.4816,159.6879 70.5561,160.1591 70.611,160.6331 70.6462,161.1083 70.6617,161.5828 70.6574,162.0551 70.6333,162.5234 70.5893,162.986 70.5254,163.4413 70.4416,163.8874 70.3378,164.3228 70.214,164.7456 70.0701,165.1543 69.9061,165.5472 69.7219,165.9224 69.5176,166.2783 69.293,166.6133 69.0481,166.9256 68.7829,167.2135 68.4973,167.4753 68.1913,167.7094 67.8649,167.914 67.5196,168.0911 67.159,168.2484 66.7874,168.3939 66.4085,168.5356 66.0266,168.6818 65.6455,168.8401 65.2698,169.015 64.9044,169.2084 64.5541,169.4224 64.2239,169.6587 63.9185,169.9195 63.6429,170.2066 63.402,170.522 63.2005,170.8675 63.0417,171.2441 62.9025,171.635 62.7409,172.0108 62.5408,172.3583 62.3392,172.6968 62.179,173.0495 62.0922,173.4341 62.0545,173.8406 62.0235,174.25 61.9566,174.6434 61.8114,175.0017 61.5788,175.3216 61.3244,175.634 61.1242,175.9749 61.0396,176.373 61.0442,176.8152 61.0783,177.2724 61.0824,177.7153 60.9969,178.1148 60.784,178.4491 60.4627,178.7156 60.0613,178.9147 59.6079,179.0469 59.1308,179.1126 58.6581,179.1122 58.2182,179.0463 57.8391,178.9152 57.5411,178.7207 57.3197,178.4685 57.1657,178.1649 57.0701,177.8163 57.0238,177.4292 57.0176,177.0099 57.0426,176.5648 57.0894,176.1002 57.1492,175.6227 57.2127,175.1385 57.2709,174.654 57.3146,174.1757 57.3349,173.7099 57.3224,173.2631 57.2683,172.8415 57.1633,172.4516 56.9984,172.0999 56.7667,171.7912 56.4942,171.5112 56.2319,171.2306 56.0311,170.9198 55.9192,170.5623 55.8804,170.1653 55.8943,169.7386 55.9404,169.2918 55.9981,168.8348 56.0469,168.3772 56.0665,167.9288 56.0363,167.4993 55.9357,167.0984 55.7515,166.7334 55.516,166.3949 55.2804,166.0671 55.0943,165.7342 54.9706,165.3885 54.8861,165.0301 54.816,164.6592 54.7356,164.2761 54.6229,163.8815 54.4786,163.4771 54.3135,163.0654 54.1386,162.6487 53.9651,162.2295 53.804,161.8102 53.6662,161.3933 53.5628,160.9811 53.5049,160.5761 53.5034,160.1808 53.5693,159.7975 53.7138,159.4286 53.9478,159.0767 54.2682,158.7408 54.6179,158.4075 54.9274,158.0605 55.1318,157.6846 55.2231,157.2791 55.2276,156.852 55.1726,156.4116 55.0851,155.9659 54.9923,155.5233 54.9213,155.0919 54.8992,154.6798 54.953,154.2954 55.1097,153.9466 55.3652,153.6305 55.6549,153.3226 55.9077,152.9957 56.0646,152.6279 56.1324,152.2236 56.139,151.7957 56.1123,151.3573 56.0803,150.9212 56.071,150.5006 56.1122,150.1082 56.2265,149.7536 56.4006,149.4228 56.6071,149.0923 56.8192,148.7397 57.0277,148.3642 57.2413,147.9868 57.4691,147.629 57.7204,147.3127 58.0044,147.0596 58.3288,146.8889 58.6891,146.8023 59.076,146.7935 59.4797,146.8565 59.8908,146.9849 60.2998,147.1727 60.697,147.4135 61.0728,147.7014 61.4179,148.03 61.7225,148.3932 61.9771,148.7848 62.1724,149.1986 62.3036,149.6276 62.3717,150.0639 62.3783,150.4997 62.3248,150.9269 62.2126,151.3377 62.0431,151.724 61.8181,152.0782 61.5569,152.4048 61.305,152.7264 61.1101,153.0671 61.0048,153.4439 60.9635,153.8454 60.9466,154.2532 60.9145,154.6493 60.8278,155.0155 60.6712,155.3516 60.4703,155.6873 60.2549,156.0555 60.0472,156.4761 59.8353,156.9105 59.6007,157.3038 59.3697,157.6052 59.2027,157.7669 59.1612,157.7422 59.2752,157.546 59.5175,157.3091 59.8545,157.1748 60.2495,157.2562 60.6512,157.5183 61.0035,157.8804 61.2531,158.2645 61.386,158.6392 61.4188,159.0082 61.3687,159.3767 61.2533,159.7497 61.0899,160.1321 60.896,160.5289 60.6888,160.9452 60.4859,161.3858 60.3045,161.8559 60.1621,162.3603 60.0682,162.8935 60.0139,163.4258 59.9878,163.9237 59.9785,164.3539 59.9746,164.6832 59.9645,164.8783 59.937,164.9057 59.8872,164.7492 59.8295,164.4409 59.7816,164.0218 59.7614,163.5329 59.7867,163.0152 59.8753,162.5095 60.0449,162.057 60.301,161.6834 60.604,161.3591 60.9044,161.0426 61.1552,160.6949 61.3365,160.3089 61.4445,159.8955 61.4757,159.4661 61.4264,159.0322 61.2931,158.605 61.0722,158.1959 60.7637,157.8155 60.4178,157.4624 60.1212,157.1272 59.9606,156.7998 59.9745,156.4724 60.1177,156.1409 60.3363,155.8013 60.5765,155.4496 60.7846,155.082 60.9104,154.695 60.9578,154.2936 60.9732,153.8888 61.0043,153.492 61.0984,153.1147 61.2914,152.7646 61.5516,152.4299 61.8229,152.0917 62.051,151.7315 62.2115,151.3442 62.3069,150.9365 62.3408,150.5154 62.3165,150.0878 62.2376,149.6607 62.1074,149.2412 61.9294,148.8364 61.7071,148.4531 61.444,148.0984 61.1435,147.7794 60.809,147.503 60.444,147.2763 60.0519,147.1062 59.6372,146.9972 59.2103,146.9343 58.7847,146.8941 58.3739,146.8528 57.9915,146.7868 57.6507,146.6724 57.3652,146.4861 57.1483,146.2041 57.0077,145.8105 56.8987,145.357 56.7506,144.9292 56.5395,144.563 56.3049,144.2269 56.0907,143.8846 55.9332,143.5097 55.8431,143.1096 55.8255,142.6988 55.8856,142.2918 56.0287,141.9031 56.2597,141.5474 56.584,141.239 57.0067,140.9927" stroke="black" stroke-width="1" /><polyline fill="none" points="107.7636,139.0932 108.3684,138.5497 108.9607,138.1061 109.5385,137.7572 110.1004,137.4977 110.6445,137.3227 111.1692,137.2268 111.6727,137.2049 112.1534,137.2518 112.6095,137.3625 113.0394,137.5317 113.4414,137.7542 113.8136,138.0249 114.1545,138.3386 114.4624,138.6902 114.7354,139.0745 114.972,139.4863 115.1704,139.9205 115.3289,140.3719 115.4459,140.8353 115.5195,141.3056 115.5482,141.7775 115.5301,142.2461 115.4637,142.706 115.3471,143.1521 115.1787,143.5792 114.9569,143.9822 114.6805,144.3567 114.3523,144.7016 113.9762,145.0176 113.5563,145.3049 113.0965,145.5639 112.6006,145.795 112.0728,145.9986 111.5169,146.1751 110.9369,146.3248 110.3367,146.4482 109.7204,146.5455 109.0918,146.6173 108.4549,146.6639 107.8137,146.6857 107.1721,146.683 106.5342,146.6563 105.9037,146.6058 105.2848,146.5321 104.6813,146.4355 104.0972,146.3164 103.5365,146.1751 103.0032,146.012 102.5011,145.8276 102.0342,145.6222 101.6066,145.3962 101.222,145.15 100.8846,144.8839 100.5983,144.5984 100.367,144.2938 100.1946,143.9705 100.0852,143.6289 100.0426,143.2694 100.0709,142.8923 100.174,142.4981 100.3547,142.0882 100.6076,141.6705 100.9242,141.256 101.2962,140.8553 101.7149,140.4792 102.1719,140.1385 102.6587,139.844 103.1669,139.6063 103.6878,139.4363 104.2131,139.3447 104.7342,139.3424 105.2404,139.4283 105.6982,139.4828 106.0607,139.3164" stroke="black" stroke-width="1" /><polyline fill="none" points="114.9714,138.0505 115.4369,137.4901 115.9226,137.0257 116.4276,136.6506 116.9507,136.3579 117.491,136.141 118.0473,135.9929 118.6188,135.907 119.2043,135.8765 119.8028,135.8945 120.4133,135.9542 121.0348,136.049 121.6663,136.172 122.3066,136.3164 122.9548,136.4755 123.6099,136.6424 124.2708,136.8104 124.9366,136.9727 125.606,137.1225 126.2783,137.253 126.9522,137.3575 127.6269,137.4291 128.3009,137.463 128.9708,137.4691 129.6321,137.4636 130.2803,137.4633 130.9109,137.4844 131.5196,137.5436 132.1016,137.6574 132.6527,137.8422 133.1683,138.1144 133.6435,138.4809 134.0727,138.9292 134.4501,139.4441 134.77,140.0108 135.0266,140.6143 135.2141,141.2396 135.3269,141.8716 135.3591,142.4956 135.305,143.0963 135.1589,143.659 134.9152,144.1689 134.5767,144.6204 134.156,145.0189 133.6658,145.3701 133.1194,145.6801 132.5296,145.9545 131.9095,146.1992 131.2721,146.4202 130.6294,146.6226 129.9861,146.8067 129.344,146.9705 128.7045,147.1123 128.0692,147.2301 127.4398,147.322 126.8177,147.3861 126.2047,147.4206 125.6022,147.4234 125.0119,147.3928 124.4354,147.3269 123.8741,147.2237 123.3298,147.0813 122.8039,146.8979 122.2982,146.6716 121.8141,146.4004 121.3532,146.0825 120.9171,145.716 120.5075,145.299 120.123,144.8342 119.7543,144.3385 119.3903,143.831 119.0202,143.3309 118.633,142.8574 118.2177,142.4297 117.7634,142.067 117.2592,141.7885 116.694,141.6134 116.0575,141.5601 115.3996,141.5325 114.8925,141.2033" stroke="black" stroke-width="1" /><polyline fill="none" points="116.0082,137.0109 115.5541,137.5752 115.0335,137.954 114.4566,138.1783 113.8339,138.2793 113.1757,138.2883 112.4924,138.2363 111.7944,138.1545 111.0921,138.074 110.3959,138.0261 109.7162,138.0418 109.0633,138.1523 108.4439,138.3732 107.8513,138.6665 107.2763,138.9826 106.7096,139.2721 106.1419,139.4856 105.5646,139.5903 104.9728,139.6186 104.3622,139.6188 103.7286,139.639 103.0677,139.7275 102.3754,139.9326 101.6481,140.3004 100.8955,140.8314 100.1418,141.4786 99.4113,142.1928 98.7288,142.9252 98.1186,143.6265 97.6055,144.2477 97.2139,144.7398 96.9683,145.0538 96.8934,145.1405 97.0137,144.9509 97.336,144.481 97.8061,143.8829 98.3565,143.3424 98.9198,143.0451 99.4389,143.1401 99.9176,143.5614 100.3821,144.1641 100.8587,144.803 101.3719,145.3423 101.928,145.7396 102.5229,146.0089 103.152,146.1649 103.8109,146.2222 104.4951,146.1955 105.2003,146.0994 105.9219,145.9487 106.6555,145.7579 107.3966,145.5418 108.1409,145.3149 108.8837,145.092 109.6208,144.8878 110.3476,144.7168 111.0597,144.5938 111.7526,144.5334 112.4219,144.5502 113.0632,144.659 113.6719,144.8744 114.2439,145.2099 114.7816,145.6515 115.2939,146.1577 115.79,146.6859 116.2792,147.1933 116.7707,147.6371 117.2736,147.9746 117.7973,148.1631 118.3509,148.16 118.9435,147.9231 119.5758,147.4837 120.2328,147.0039 120.9021,146.6081 121.5801,146.3036 122.2648,146.0812 122.9539,145.932 123.6452,145.8467 124.3366,145.8162 125.0258,145.8316 125.7108,145.8836 126.3892,145.9632 127.059,146.0613 127.7179,146.1687 128.3638,146.2764 128.9945,146.3752 129.6078,146.4561 130.2014,146.5099 130.7733,146.5276 131.3215,146.5004 131.856,146.4394 132.4055,146.3865 133.0001,146.3856 133.6509,146.4537 134.344,146.5716 135.0633,146.7173 135.7931,146.8687 136.5174,147.0039 137.2203,147.1009 137.886,147.1377 138.4985,147.0924 139.0419,146.9429 139.5004,146.6673 139.8581,146.2436 140.1001,145.658 140.2199,144.953 140.214,144.1953 140.0792,143.4515 139.8121,142.788 139.4094,142.2716 138.8682,141.9677 138.2123,141.87 137.5105,141.8502 136.8355,141.7697 136.2273,141.5531 135.6773,141.2194 135.173,140.7948 134.7019,140.306 134.2515,139.7793 133.8093,139.2413 133.3629,138.7185 132.8997,138.2372 132.4073,137.824 131.8731,137.5054 131.2847,137.3078 130.6295,137.2576 129.8951,137.3815 129.069,137.7056 128.2554,137.9918 127.9168,137.1887" stroke="black" stroke-width="1" /><polyline fill="none" points="215.0046,134.9692 215.3467,134.3224 215.6762,134.0672 216.0029,134.1033 216.3365,134.3302 216.6868,134.6475 217.0637,134.9549 217.4735,135.1784 217.9132,135.3178 218.3779,135.3858 218.8629,135.3951 219.3634,135.3583 219.8748,135.2882 220.3921,135.1973 220.9108,135.0983 221.4259,135.0039 221.9328,134.9269 222.4267,134.8797 222.9029,134.8751 223.3565,134.9258 223.7828,135.0445 224.1779,135.2416 224.5518,135.493 224.9259,135.745 225.3211,135.9464 225.7427,136.0839 226.185,136.1718 226.6423,136.2248 227.1088,136.2577 227.5786,136.2852 228.0459,136.3221 228.505,136.3832 228.9499,136.4833 229.3748,136.637 229.774,136.8592 230.1416,137.1642 230.4693,137.5503 230.7458,137.9933 230.9592,138.4675 231.098,138.9471 231.1504,139.4063 231.1048,139.8193 230.9495,140.1605 230.6838,140.4182 230.3261,140.6058 229.8969,140.7393 229.4168,140.8347 228.9062,140.908 228.3856,140.9752 227.8755,141.0523 227.3964,141.1552 226.9688,141.3 226.6005,141.4902 226.2616,141.6926 225.9156,141.8673 225.5363,141.9869 225.1238,142.0538 224.682,142.0754 224.2149,142.059 223.7264,142.0117 223.2205,141.9408 222.701,141.8536 222.172,141.7573 221.6373,141.6592 221.101,141.5665 220.567,141.4864 220.0392,141.4262 219.5216,141.3932 219.018,141.3946 218.5326,141.4376 218.0691,141.5295 217.6316,141.6776 217.2239,141.889 216.8499,142.1705 216.5049,142.5114 216.1755,142.8814 215.8477,143.2496 215.5075,143.5847 215.1408,143.8557 214.7344,144.0331 214.2882,144.1174 213.8128,144.1329 213.319,144.1051 212.8177,144.0592 212.3199,144.0205 211.8363,144.0143 211.3779,144.0658 210.9555,144.2001 210.5685,144.4171 210.1949,144.6692 209.8106,144.904 209.4017,145.0895 208.9703,145.2259 208.5201,145.3166 208.0548,145.3648 207.5781,145.3738 207.0936,145.3467 206.605,145.287 206.1159,145.1978 205.6301,145.0825 205.1512,144.9442 204.6828,144.7862 204.2287,144.6118 203.7925,144.4242 203.3767,144.2264 202.9791,144.0194 202.5963,143.8041 202.2247,143.5811 201.861,143.3512 201.5018,143.1153 201.1434,142.8739 200.7826,142.6279 200.4159,142.3779 200.0397,142.1249 199.6507,141.8694 199.2454,141.6122 198.8204,141.3542 198.3842,141.0959 197.9919,140.8379 197.6993,140.5789 197.512,140.3096 197.4203,140.0183 197.4146,139.693 197.4852,139.3222 197.6226,138.8939 197.8171,138.4125 198.0595,137.9362 198.3416,137.5228 198.6577,137.1769 199.0032,136.889 199.3735,136.6496 199.7638,136.4493 200.1694,136.2786 200.5858,136.1281 201.008,135.9881 201.4316,135.8493 201.8517,135.7022 202.2638,135.5372 202.6631,135.345 203.0449,135.116" stroke="black" stroke-width="1" /><polyline fill="none" points="216.0028,134.0056 215.6733,134.4115 215.315,134.7534 214.9297,135.0356 214.5196,135.2625 214.0868,135.4383 213.6333,135.5675 213.1611,135.6544 212.6724,135.7032 212.1692,135.7183 211.6536,135.7041 211.1276,135.6648 210.5934,135.6049 210.0529,135.5285 209.5083,135.4402 208.9617,135.3441 208.415,135.2446 207.8703,135.146 207.3298,135.0528 206.7955,134.9691 206.2694,134.8994 205.7537,134.8479 205.2503,134.8191 204.7614,134.8171 204.2891,134.8464 203.8353,134.9113 203.4022,135.0161 202.9918,135.1651 202.5999,135.3541 202.2055,135.5558 201.7849,135.7396 201.3282,135.891 200.8486,136.0231 200.3616,136.1513 199.8825,136.2913 199.4268,136.4587 199.0098,136.6691 198.6469,136.938 198.3535,137.2811 198.1451,137.714 198.0322,138.2475 197.9626,138.8301 197.8441,139.3713 197.6443,139.8384 197.3732,140.2404 197.0416,140.5872 196.6603,140.8886 196.2404,141.1544 195.7926,141.3946 195.3279,141.619 194.8571,141.8375 194.3912,142.0599 193.9409,142.2961 193.5355,142.5509 193.253,142.8156 193.1789,143.0795 193.345,143.3368 193.6921,143.5913 194.1523,143.8473 194.6576,144.1091 195.1415,144.3811 195.5753,144.6619 195.9713,144.9444 196.3442,145.2212 196.7084,145.4846 197.0785,145.7274 197.4657,145.9449 197.8568,146.1546 198.2278,146.3835 198.5546,146.6588 198.8131,147.0077 198.9934,147.4451 199.1482,147.9325 199.3364,148.423 199.5689,148.8985 199.8432,149.349 200.157,149.7646 200.5075,150.1353 200.8925,150.4509 201.3093,150.7015 201.7555,150.8772 202.2283,150.9689 202.718,150.9978 203.2076,151.0176 203.6793,151.0836 204.1164,151.249 204.5248,151.5096 204.9349,151.7982 205.3766,152.0469 205.8529,152.2233 206.348,152.3203 206.8453,152.331 207.3286,152.2489 207.7815,152.0673 208.1897,151.7827 208.5663,151.4363 208.9441,151.1016 209.3535,150.8456 209.8002,150.681 210.2791,150.5955 210.7848,150.5767 211.3119,150.6122 211.8552,150.6895 212.4092,150.7964 212.9686,150.9203 213.5282,151.0488 214.0825,151.1696 214.6263,151.2701 215.1541,151.3381 215.6607,151.3611 216.1407,151.3267 216.5887,151.2224 216.9995,151.0359 217.3661,150.7576 217.668,150.4019 217.8782,149.9945 217.9698,149.5614 217.9157,149.1285 217.7065,148.7151 217.4179,148.3086 217.1514,147.8868 216.9802,147.4344 216.8939,146.9561 216.8672,146.4604 216.8745,145.9557 216.8903,145.4505 216.889,144.9532 216.8452,144.4723 216.7333,144.0163 216.5545,143.5909 216.3908,143.1938 216.3391,142.8211 216.4498,142.4773 216.6855,142.1825 216.9999,141.9582 217.3645,141.8118 217.773,141.7347 218.2204,141.7168 218.7015,141.7484 219.2113,141.8195 219.7447,141.9202 220.2966,142.0407 220.8619,142.1712 221.4356,142.3016 222.0125,142.4223 222.5876,142.5232 223.1558,142.5945 223.712,142.6263 224.2512,142.6088 224.7682,142.5321 225.258,142.3862 225.7154,142.1614 226.1358,141.8486 226.5262,141.4745 226.9086,141.1111 227.3054,140.8304 227.7253,140.6582 228.1656,140.5813 228.6234,140.5857 229.0957,140.6571 229.5795,140.7813 230.0719,140.9443 230.5699,141.1317 231.0705,141.3297 231.5719,141.5286 232.0727,141.7225 232.5719,141.9054 233.0683,142.0715 233.5606,142.2148 234.0477,142.3295 234.5285,142.4096 235.0017,142.4494 235.4663,142.4429 235.921,142.3842 236.3646,142.2674 236.796,142.0867 237.2143,141.8387 237.6221,141.5457 238.0238,141.2442 238.4246,140.9665 238.8345,140.7202 239.2652,140.5045 239.7285,140.3183 240.236,140.1605 240.7791,140.0314 241.2792,139.9349 241.6426,139.8759 241.7755,139.8592 241.6194,139.8892 241.2381,139.968 240.7222,140.0975 240.1623,140.2795 239.636,140.4978 239.1753,140.6727 238.8016,140.7103 238.5208,140.5586 238.3044,140.2558 238.1194,139.8522 237.9372,139.3966 237.7353,138.9357 237.4916,138.5157 237.1838,138.1833 236.7916,137.9817 236.3254,137.8964 235.8234,137.861 235.3249,137.807 234.8671,137.6697 234.4504,137.4557 234.0412,137.2367 233.6075,137.0812 233.142,137.0031 232.6522,136.9838 232.1459,137.0045 231.6308,137.0463 231.1146,137.0905 230.6049,137.1181 230.1096,137.1104 229.6363,137.0484 229.1927,136.9134 228.7844,136.6916 228.3943,136.4251 227.9916,136.1893 227.5499,136.0484 227.0728,135.9943 226.5749,135.991 226.0711,136.0028 225.5759,135.9937 225.1043,135.928 224.6709,135.7697 224.2904,135.483 223.9776,135.0321 223.7404,134.3978 223.5605,133.6242 223.4136,132.7705 223.2752,131.8958 223.1211,131.0592 222.9267,130.3198 222.6679,129.7368 222.32,129.3692 221.8589,129.2762 221.2601,129.517 220.4992,130.1505 219.5518,131.236 218.3936,132.8326 217.0003,134.9994" stroke="black" stroke-width="1" /><polyline fill="none" points="175.8956,131.0311 175.9363,131.6546 176.0341,132.242 176.1851,132.797 176.3853,133.3235 176.6307,133.8253 176.9175,134.3062 177.2417,134.7701 177.5994,135.2207 177.9866,135.662 178.3994,136.0976 178.8339,136.5315 179.2861,136.9674 179.7521,137.4092 180.2279,137.8608 180.7099,138.3247 181.1955,138.7976 181.6828,139.2746 182.1695,139.7503 182.6535,140.2198 183.1329,140.6779 183.6055,141.1195 184.0691,141.5394 184.5218,141.9326 184.9613,142.2938 185.3857,142.6181 185.7927,142.9002 186.1803,143.135 186.5465,143.3174 186.889,143.4424 187.184,143.5085 187.3558,143.5236 187.3342,143.4959 187.1264,143.4281 186.7681,143.3209 186.2949,143.1751 185.7422,142.9914 185.1456,142.7706 184.5317,142.5134 183.913,142.2205 183.301,141.8928 182.7068,141.531 182.142,141.1359 181.6177,140.7082 181.1454,140.2488 180.7364,139.7585 180.402,139.2379 180.1535,138.6878 180.0023,138.1092 179.9544,137.5039 179.9797,136.8829 180.0327,136.2608 180.068,135.6523 180.0404,135.0719 179.9043,134.5342 179.6144,134.0538 179.1252,133.6454 178.3913,133.3236 177.3674,133.1029 176.0081,132.998" stroke="black" stroke-width="1" /><polyline fill="none" points="107.9298,111.0606 108.3352,110.5896 108.7486,110.1915 109.1695,109.8625 109.5978,109.5982 110.0333,109.3947 110.4756,109.2478 110.9245,109.1534 111.3798,109.1074 111.8412,109.1058 112.3086,109.1444 112.7815,109.2191 113.2598,109.3258 113.7433,109.4604 114.2317,109.6188 114.7247,109.797 115.2222,109.9907 115.7237,110.1959 116.2292,110.4085 116.7383,110.6244 117.2509,110.8396 117.7666,111.0504 118.2849,111.2559 118.8055,111.4551 119.3279,111.6474 119.8516,111.8319 120.3762,112.0078 120.9012,112.1745 121.4261,112.3311 121.9506,112.4768 122.4742,112.6109 122.9963,112.7326 123.5166,112.8411 124.0345,112.9356 124.5498,113.0154 125.0618,113.0798 125.5701,113.1278 126.0743,113.1588 126.5739,113.1719 127.0685,113.1665 127.5575,113.1417 128.0407,113.0967 128.5174,113.0308 128.9873,112.9432 129.4499,112.8332 129.9047,112.6999 130.3513,112.5425 130.7892,112.3604 131.218,112.1527 131.6372,111.9187 132.0464,111.6575 132.4451,111.3684 132.8328,111.0507 133.2091,110.7081 133.5735,110.4029 133.9252,110.2383 134.2656,110.2995 134.6126,110.5229 134.9919,110.7724 135.4239,110.9329 135.8999,111.0034 136.4018,111.0211 136.9111,111.0228 137.4096,111.0457 137.879,111.1268 138.3046,111.2952 138.6967,111.5263 139.0757,111.7726 139.46,111.9956 139.8566,112.1971 140.268,112.3894 140.6908,112.5795 141.1193,112.773 141.5479,112.975 141.9711,113.1911 142.3833,113.4265 142.779,113.6868 143.1526,113.9773 143.4985,114.3034 143.8111,114.6704 144.0849,115.0838 144.3163,115.5437 144.5045,116.0419 144.6492,116.5694 144.7501,117.1171 144.807,117.6759 144.8193,118.2367 144.7869,118.7904 144.7094,119.328 144.5865,119.8404 144.4178,120.3185 144.203,120.7532 143.9418,121.1354 143.6338,121.4561 143.2788,121.7062 142.8764,121.8768 142.4324,121.9758 141.9635,122.0423 141.4873,122.1185 141.0219,122.2466 140.577,122.4444 140.1456,122.6779 139.7184,122.906 139.2861,123.0881 138.8394,123.1832 138.3691,123.1506 137.8662,122.9498 137.3431,122.5838 136.8486,122.1298 136.4357,121.6726 136.1569,121.2967 136.0649,121.0867 136.2062,121.1222 136.5156,121.3896 136.8331,121.796 137.0058,122.2506 136.9928,122.7114 136.8206,123.1654 136.5164,123.6004 136.1074,124.0037 135.6209,124.3631 135.0842,124.666 134.5246,124.9001 133.9692,125.0529 133.4395,125.117 132.9386,125.1004 132.4663,125.0142 132.0224,124.8691 131.6051,124.6769 131.2073,124.4519 130.8203,124.2089 130.4359,123.9629 130.0454,123.7285 129.6433,123.5156 129.2318,123.3197 128.8142,123.1344 128.3937,122.9532 127.9736,122.7696 127.5574,122.5771 127.1483,122.3692 126.7495,122.1396 126.3591,121.8933 125.9684,121.65 125.5679,121.4307 125.1485,121.2563 124.7013,121.1466 124.2317,121.0884 123.7596,121.0351 123.3055,120.9385 122.8893,120.7521 122.5079,120.4828 122.1307,120.2018 121.7267,119.9809 121.2857,119.8448 120.8147,119.7784 120.3213,119.7651 119.8129,119.7887 119.2971,119.8327 118.7815,119.8808 118.2736,119.9165 117.781,119.9234 117.3112,119.8852 116.8714,119.7859 116.4588,119.6286 116.0579,119.4386 115.6534,119.2419 115.2387,119.0511 114.8144,118.8675 114.3818,118.6922 113.9419,118.5262 113.4958,118.3703 113.0444,118.2257 112.5889,118.0932 112.1298,117.9738 111.6673,117.8682 111.2018,117.7771 110.7334,117.7015 110.2624,117.6419 109.7891,117.5993 109.3137,117.5744 108.8364,117.568 108.3575,117.5808 107.8772,117.6136 107.3958,117.6672 106.9135,117.7424 106.4305,117.84 105.9472,117.9607 105.4638,118.1053 104.9804,118.2744 104.4974,118.4651 104.0149,118.6697 103.5333,118.8802 103.0526,119.0888 102.5731,119.2875 102.0951,119.4685 101.6187,119.6237 101.1442,119.7454 100.6719,119.8256 100.2018,119.8563 99.7343,119.8298 99.2695,119.738 98.8078,119.573 98.3492,119.327 97.8945,118.9924 97.4642,118.5785 97.1047,118.1167 96.863,117.639 96.7544,117.1644 96.7652,116.6989 96.8807,116.2483 97.0859,115.8181 97.366,115.4142 97.7062,115.0422 98.0915,114.7076 98.5071,114.4164 98.9383,114.174 99.3704,113.9826 99.7929,113.8112 100.1987,113.6167 100.5983,113.4101 101.0121,113.2336 101.4565,113.1209 101.9215,113.049 102.3864,112.9722 102.8304,112.8449 103.2374,112.6317 103.6259,112.3774 104.0301,112.1632 104.4772,112.0528 104.9559,112.0187 105.4428,112.0044 105.9146,111.9534 106.3481,111.8093 106.7199,111.5156 107.0067,111.0159" stroke="black" stroke-width="1" /><polyline fill="none" points="109.0031,110.0075 108.7705,110.5711 108.4188,110.847 107.994,110.9469 107.5422,110.982 107.1094,111.064 106.7332,111.2836 106.393,111.589 106.0437,111.8684 105.6456,112.0242 105.2031,112.0704 104.7412,112.073 104.2848,112.0983 103.858,112.2099 103.4643,112.4117 103.0867,112.6476 102.7075,112.8597 102.3178,113.0235 101.9183,113.1504 101.5102,113.2539 101.0947,113.3474 100.673,113.4443 100.2462,113.5579 99.8157,113.7017 99.3873,113.8847 98.9795,114.1036 98.609,114.3542 98.2756,114.6347 97.9751,114.9439 97.7035,115.2808 97.4564,115.6443 97.2296,116.0333 97.019,116.4465 96.8204,116.883 96.6264,117.3319 96.4061,117.7067 96.117,117.8856 95.7302,117.7705 95.3342,117.4749 95.0783,117.2218 95.0968,117.2118 95.3746,117.4219 95.8119,117.7023 96.31,117.9155 96.7932,118.0715 97.2028,118.2682 97.5376,118.5317 97.8485,118.8216 98.1873,119.0958 98.5759,119.3327 99.0074,119.5302 99.4735,119.6873 99.9659,119.8031 100.4763,119.8763 100.9965,119.9059 101.5181,119.891 102.0329,119.8304 102.5325,119.7232 103.0088,119.5681 103.4534,119.3643 103.858,119.1105 104.2161,118.8071 104.5425,118.4704 104.8677,118.1284 105.2209,117.8083 105.6125,117.5224 106.0378,117.2717 106.492,117.0568 106.9702,116.8784 107.4674,116.7372 107.9788,116.6338 108.4995,116.5689 109.0245,116.5431 109.5489,116.5571 110.0679,116.6115 110.5765,116.707 111.0698,116.8443 111.543,117.0241 111.9911,117.2469 112.4092,117.5134 112.7924,117.8243 113.1364,118.1792 113.4572,118.5437 113.7942,118.8436 114.1873,119.0043 114.6435,119.0208 115.1272,118.9771 115.5999,118.9634 116.0235,119.0696 116.379,119.3391 116.7032,119.6831 117.0429,119.9893 117.4325,120.1746 117.8687,120.2472 118.3407,120.2331 118.8378,120.1585 119.349,120.0494 119.8637,119.9319 120.3711,119.832 120.8604,119.7758 121.3208,119.7894 121.7416,119.8989 122.1123,120.1294 122.4433,120.4557 122.7755,120.7794 123.1515,120.9972 123.5874,121.0705 124.0565,121.0635 124.5284,121.0495 124.9728,121.102 125.3691,121.2702 125.7336,121.5155 126.0906,121.7791 126.4598,122.014 126.8413,122.2191 127.2308,122.4051 127.6235,122.5826 128.0149,122.7621 128.4015,122.9519 128.7869,123.1449 129.1772,123.3285 129.5717,123.5044 129.9653,123.6834 130.3527,123.8766 130.7288,124.0947 131.0889,124.3475 131.4423,124.6119 131.8125,124.8317 132.2228,124.9517 132.6755,124.9721 133.1505,124.9547 133.6262,124.9644 134.081,125.0662 134.4884,125.2981 134.8097,125.6337 135.0046,126.0369 135.0592,126.4785 135.0304,126.9469 134.9867,127.4335 134.9965,127.9295 135.119,128.4266 135.3546,128.9175 135.6809,129.3954 136.0754,129.8536 136.5156,130.2853 136.979,130.6838 137.443,131.0422 137.8852,131.3539 138.283,131.612 138.6139,131.8099 138.8555,131.9406 138.9852,131.9976 138.983,131.9748 138.8547,131.8747 138.6204,131.7044 138.3004,131.4711 137.9149,131.1821 137.4843,130.8446 137.0289,130.4656 136.5689,130.0526 136.1247,129.6126 135.7166,129.1528 135.3649,128.6805 135.0899,128.2029 134.9108,127.7269 134.8292,127.2554 134.8325,126.7877 134.9075,126.3234 135.0414,125.8618 135.2245,125.4055 135.4533,124.9631 135.7251,124.5436 136.0369,124.156 136.3859,123.8092 136.7693,123.5123 137.1842,123.2743 137.6278,123.1041 138.0972,123.0109 138.5842,122.988 139.0687,122.9934 139.5289,122.98 139.9427,122.9008 140.2968,122.7222 140.6236,122.483 140.9709,122.2467 141.3786,122.0672 141.837,121.9421 142.318,121.8477 142.7935,121.7603 143.2356,121.6563 143.6161,121.512 143.907,121.3037 144.0817,121.009 144.1437,120.6261 144.123,120.1722 144.0507,119.6652 143.9578,119.123 143.8755,118.5633 143.8349,118.0041 143.8669,117.4632 144.0026,116.9583 144.2601,116.5147 144.5983,116.1897 144.96,116.0499 145.2973,116.143 145.6113,116.4235 145.9182,116.8172 146.2343,117.2496 146.5756,117.6462 146.9584,117.9327 147.394,118.0518 147.8637,118.0512 148.3377,118.018 148.7861,118.0397 149.1812,118.1975 149.5338,118.4699 149.8869,118.75 150.2818,118.9341 150.7067,119.0369 151.1025,119.179 151.4437,119.4183 151.7516,119.7253 152.0507,120.0639 152.3655,120.3984 152.7205,120.6927 153.1399,120.9118 153.6168,121.0595 154.0955,121.2021 154.5324,121.3912 154.923,121.6293 155.2681,121.9122 155.5687,122.2357 155.8259,122.5954 156.0405,122.9872 156.2136,123.4068 156.3462,123.8499 156.4393,124.3121 156.4937,124.7894 156.5105,125.2773 156.4907,125.7717 156.4353,126.2683 156.3452,126.7627 156.2213,127.2508 156.0648,127.7283 155.8766,128.1909 155.6576,128.6343 155.4088,129.0543 155.1312,129.4466 154.8258,129.807 154.4935,130.1311 154.1354,130.4148 153.7524,130.6537 153.3456,130.8436 152.9158,130.9803 152.4658,131.066 152.0013,131.1141 151.5284,131.1393 151.0531,131.1561 150.5814,131.1791 150.1193,131.223 149.6729,131.3023 149.2481,131.4316 148.8511,131.6256 148.4998,131.8851 148.2954,132.1158 148.3605,132.1909 148.6535,132.0815 149.0318,131.8224 149.4253,131.4796 149.8331,131.1473 150.2566,130.9181 150.6954,130.821 151.1468,130.8197 151.6081,130.8751 152.0764,130.9484 152.5489,131.0003 153.023,130.9918 153.4945,130.8939 153.9541,130.7111 154.392,130.4549 154.7979,130.1368 155.1619,129.7684 155.4738,129.3613 155.7237,128.927 155.9013,128.4771 155.9966,128.0231 156.0053,127.5743 155.9487,127.1295 155.8554,126.6847 155.7541,126.2359 155.6736,125.7788 155.6424,125.3096 155.6893,124.824 155.843,124.318 156.1312,123.788 156.5414,123.251 157.0058,122.7524 157.4521,122.3396 157.8085,122.0602 158.0027,121.9617 157.9637,122.0904 157.6848,122.4176 157.2657,122.7898 156.8158,123.0428 156.4044,123.0832 156.0283,122.9455 155.6768,122.6778 155.3393,122.3282 155.0049,121.9448 154.6629,121.5756 154.3026,121.2687 153.9133,121.0722 153.4947,120.9958 153.0813,120.9225 152.7071,120.7339 152.3676,120.4378 152.0455,120.0822 151.724,119.715 151.386,119.3843 151.0144,119.1381 150.5995,119.0056 150.1768,118.8992 149.794,118.6992 149.4439,118.421 149.0872,118.1586 148.6873,117.9995 148.2428,117.9473 147.7742,117.9525 147.3026,117.9649 146.8485,117.9346 146.4232,117.835 146.0244,117.6716 145.649,117.4517 145.294,117.1829 144.9561,116.8727 144.6323,116.5286 144.3196,116.1582 144.0146,115.7688 143.7145,115.3681 143.416,114.9635 143.116,114.5626 142.8114,114.1729 142.4992,113.8018 142.1762,113.457 141.8393,113.1458 141.4853,112.8759 141.1113,112.6546 140.7163,112.4839 140.3071,112.3465 139.8917,112.2216 139.4807,112.0841 139.092,111.893 138.7391,111.6196 138.3991,111.3207 138.0368,111.0833 137.6226,110.979 137.1623,110.988 136.6753,111.0554 136.181,111.1261 135.6989,111.1452 135.2483,111.0577 134.8482,110.8115 134.4994,110.4539 134.1809,110.1542 133.8705,110.0862 133.5533,110.3015 133.2238,110.6879 132.8776,111.1227 132.5122,111.531 132.1285,111.9078 131.7276,112.2537 131.3106,112.5694 130.8788,112.8555 130.4333,113.1125 129.9751,113.3411 129.5054,113.5419 129.0254,113.7154 128.5362,113.8624 128.0389,113.9834 127.5346,114.079 127.0246,114.1498 126.5099,114.1965 125.9917,114.2196 125.4711,114.2197 124.9492,114.1975 124.4272,114.1536 123.9063,114.0886 123.3875,114.003 122.872,113.8975 122.3609,113.7727 121.8554,113.6293 121.3566,113.4677 120.8657,113.2887 120.3837,113.0928 119.9119,112.8806 119.4513,112.6528 119.0031,112.4099 118.5685,112.1527 118.1485,111.8815 117.7443,111.5972 117.357,111.3003 116.9878,110.9913 116.6378,110.671 116.3082,110.3398 116.0001,109.9985" stroke="black" stroke-width="1" /><polyline fill="none" points="201.9439,107.0584 202.2837,106.6117 202.6306,106.2504 202.9845,105.9679 203.3451,105.7574 203.7123,105.6123 204.0859,105.526 204.4657,105.4917 204.8515,105.5027 205.2432,105.5525 205.6406,105.6344 206.0435,105.7416 206.4517,105.8675 206.865,106.0055 207.2832,106.1489 207.7063,106.2909 208.134,106.425 208.566,106.5444 209.0023,106.6425 209.4426,106.7131 209.885,106.7572 210.3259,106.7829 210.7619,106.7984 211.1894,106.8119 211.6051,106.8317 212.0052,106.866 212.3865,106.923 212.7453,107.011 213.0781,107.1381 213.3814,107.3128 213.6517,107.543 213.8856,107.8372 214.0796,108.2016 214.2324,108.6275 214.343,109.0986 214.4109,109.5985 214.4354,110.1108 214.4157,110.6191 214.3512,111.1071 214.2412,111.5584 214.0849,111.9567 213.8818,112.2857 213.6333,112.5379 213.3445,112.7194 213.0206,112.8374 212.6671,112.8993 212.2891,112.9123 211.8919,112.8836 211.481,112.8205 211.0615,112.7303 210.6388,112.6203 210.2182,112.4976 209.805,112.3697 209.4035,112.2429 209.0138,112.1204 208.6343,112.0039 208.2638,111.8954 207.901,111.7968 207.5443,111.7101 207.1925,111.6372 206.8442,111.5799 206.498,111.5403 206.1525,111.5202 205.8065,111.5214 205.4593,111.5443 205.1111,111.5877 204.7622,111.6503 204.4126,111.7311 204.0627,111.8287 203.7125,111.942 203.3623,112.0697 203.0121,112.2109 202.6596,112.368 202.2997,112.5477 201.9274,112.7566 201.54,112.9957 201.1418,113.2506 200.7381,113.5047 200.3341,113.7412 199.9351,113.9434 199.5464,114.0949 199.1704,114.1884 198.8063,114.2269 198.4532,114.2142 198.1103,114.1539 197.7766,114.0498 197.4513,113.9055 197.1334,113.7246 196.822,113.5109 196.5162,113.2681 196.2151,112.9998 195.9178,112.7097 195.6235,112.4016 195.3311,112.079 195.0398,111.7457 194.7487,111.4053 194.457,111.0616 194.1683,110.7172 193.8935,110.3736 193.6435,110.032 193.4297,109.6938 193.2633,109.3601 193.1554,109.0324 193.1173,108.7117 193.1602,108.3995 193.2953,108.097 193.5338,107.8055 193.887,107.5262 194.3659,107.2604 194.9819,107.0095" stroke="black" stroke-width="1" /><polyline fill="none" points="216.8867,106.0547 217.4353,105.4765 217.9849,105.0323 218.5349,104.7112 219.0846,104.5022 219.6336,104.3944 220.181,104.3767 220.7264,104.4383 221.2691,104.568 221.8085,104.7549 222.344,104.9881 222.8749,105.2566 223.4007,105.5494 223.9207,105.8555 224.4343,106.1639 224.9409,106.4636 225.44,106.7439 225.9327,106.9983 226.4225,107.2256 226.913,107.4249 227.4076,107.5955 227.91,107.7365 228.4235,107.8475 228.9489,107.9329 229.4858,108.0004 230.0335,108.0576 230.5914,108.1119 231.159,108.1711 231.7356,108.2427 232.3207,108.3343 232.9136,108.4536 233.5135,108.608 234.1143,108.8042 234.7053,109.0479 235.2758,109.3449 235.8141,109.6956 236.3063,110.0887 236.7384,110.511 237.0961,110.9493 237.3653,111.3906 237.5319,111.8217 237.5817,112.2295 237.5057,112.6032 237.3128,112.9399 237.0161,113.2388 236.6285,113.4989 236.163,113.7192 235.6325,113.8988 235.0501,114.0367 234.4287,114.1319 233.7812,114.1836 233.1207,114.1907 232.4601,114.1523 231.8124,114.0674 231.1906,113.9351 230.6058,113.756 230.0573,113.5411 229.54,113.3051 229.0461,113.0609 228.5651,112.8197 228.0861,112.5923 227.5986,112.3899 227.0919,112.2233 226.556,112.1025 225.9901,112.0274 225.3979,111.9925 224.7834,111.992 224.1504,112.0203 223.5031,112.0718 222.8451,112.1406 222.1805,112.2213 221.5132,112.3079 220.8471,112.395 220.1861,112.4768 219.5342,112.5477 218.8952,112.6019 218.2731,112.6338 217.6718,112.6377 217.0952,112.6079 216.5473,112.5388 216.032,112.4247 215.5531,112.2598 215.1146,112.0386 214.7205,111.7553 214.3746,111.4043 214.0809,110.9798 213.8443,110.4819 213.6729,109.9257 213.575,109.3294 213.5591,108.711 213.6338,108.0884 213.8074,107.4799 214.0884,106.9033 214.4853,106.3767 215.0065,105.9181" stroke="black" stroke-width="1" /><polyline fill="none" points="218.004,105.0069 217.6854,105.6271 217.2826,105.9168 216.8186,105.9834 216.3166,105.9349 215.7996,105.8787 215.2908,105.9227 214.8118,106.1662 214.3612,106.5767 213.9189,107.0147 213.4672,107.3577 213.0027,107.5855 212.5262,107.7102 212.0388,107.7438 211.5415,107.6984 211.0354,107.586 210.5213,107.4188 210.0004,107.2087 209.4736,106.9679 208.9419,106.7084 208.4063,106.4423 207.8679,106.1816 207.3278,105.9381 206.7887,105.722 206.2535,105.5431 205.7253,105.411 205.2072,105.3353 204.7023,105.3257 204.2136,105.3918 203.7441,105.5432 203.297,105.7897 202.8748,106.1393 202.4669,106.5542 202.0484,106.9462 201.5961,107.2341 201.1074,107.4057 200.5887,107.4794 200.0464,107.4739 199.4868,107.4078 198.9165,107.2998 198.3418,107.1686 197.7691,107.0327 197.2049,106.9109 196.6555,106.8217 196.1273,106.7838 195.6269,106.8159 195.1605,106.9365 194.7339,107.1625 194.3441,107.487 193.982,107.8868 193.6385,108.3381 193.3043,108.8176 192.9702,109.3016 192.6272,109.7666 192.266,110.1891 191.8774,110.5454 191.4523,110.812 190.9815,110.9653 190.4634,111.0008 189.9264,110.9878 189.4062,111.0141 188.9382,111.1666 188.5277,111.4594 188.1214,111.7628 187.6624,111.9392 187.1491,111.9844 186.6239,112.0008 186.1302,112.0936 185.7023,112.345 185.3097,112.681 184.8956,112.9629 184.4225,113.0998 183.901,113.1181 183.3484,113.0618 182.7824,112.9749 182.2206,112.9012 181.6804,112.8848 181.1795,112.9695 180.734,113.1951 180.3422,113.5468 179.9906,113.9735 179.6678,114.4311 179.3727,114.909 179.1069,115.4051 178.8721,115.9173 178.6697,116.4437 178.5014,116.9821 178.3687,117.5304 178.2733,118.0867 178.2168,118.6488 178.2007,119.2148 178.2266,119.7824 178.2961,120.3497 178.4109,120.9147 178.5724,121.4751 178.7824,122.0291 179.0423,122.5745 179.3538,123.1092 179.7184,123.6312 180.1376,124.1384 180.5668,124.5933 180.8551,124.8776 180.8452,124.8681 180.5441,124.5702 180.1118,124.1094 179.6957,123.6013 179.3342,123.0785 179.0258,122.5431 178.7689,121.9973 178.5618,121.443 178.403,120.8823 178.291,120.3173 178.224,119.75 178.2006,119.1824 178.2191,118.6167 178.2779,118.0549 178.3755,117.4991 178.5103,116.9513 178.6806,116.4135 178.885,115.8879 179.1217,115.3764 179.3892,114.8812 179.6859,114.4043 180.0103,113.9478 180.3638,113.5238 180.7582,113.1777 181.2071,112.9604 181.7107,112.8825 182.2524,112.9033 182.8149,112.9789 183.3806,113.0654 183.9319,113.1191 184.4514,113.0959 184.9215,112.952 185.3333,112.6647 185.7264,112.329 186.1569,112.0806 186.6511,111.9843 187.1747,111.9603 187.6857,111.911 188.144,111.7427 188.5553,111.4662 188.9748,111.2051 189.4518,111.0685 189.9726,111.023 190.4968,110.9731 190.9837,110.8232 191.4072,110.5312 191.7901,110.2385 192.1656,110.123 192.5514,110.2564 192.9448,110.5693 193.3415,110.9828 193.7375,111.4178 194.1287,111.7953 194.5145,112.0722 194.9063,112.3204 195.3135,112.6032 195.7361,112.9127 196.1723,113.2314 196.6206,113.5415 197.0797,113.8254 197.5478,114.0654 198.0235,114.2439 198.5053,114.3433 198.9916,114.3458 199.4809,114.2339 199.9716,113.9901 200.4592,113.636 200.9331,113.2718 201.3826,113.0 201.8052,112.8068 202.2069,112.5934 202.6123,112.3622 203.0567,112.1777 203.5616,112.0795 204.0979,112.0182 204.6255,111.9242 205.1044,111.7289 205.5158,111.4484 205.8792,111.2511 206.2186,111.3061 206.5691,111.5735 206.9735,111.8599 207.4633,112.0068 208.0182,112.0281 208.6034,111.986 209.1841,111.9429 209.7256,111.9611 210.1933,112.1023 210.566,112.3934 210.8442,112.8056 211.0303,113.3049 211.1269,113.8574 211.1363,114.4291 211.0609,114.986 210.9041,115.499 210.6735,115.9645 210.3783,116.3873 210.0277,116.7724 209.631,117.1248 209.1973,117.4494 208.7358,117.7511 208.2557,118.0349 207.7663,118.3057 207.2767,118.5685 206.7961,118.8282 206.3311,119.0895 205.8837,119.3566 205.4552,119.6337 205.047,119.925 204.6605,120.2345 204.2971,120.5666 203.9582,120.9253 203.6452,121.3148 203.3595,121.7393 203.1023,122.2026 202.8688,122.7001 202.6471,123.2156 202.4242,123.7325 202.1877,124.2341 201.9249,124.7037 201.6229,125.1246 201.2694,125.4801 200.8514,125.7536 200.3564,125.9282 199.7743,125.9931 199.141,126.0414 198.5304,126.2432 197.9878,126.6104 197.5399,127.0526 197.2129,127.4779 197.033,127.7942 197.026,127.9106 197.195,127.797 197.5092,127.512 197.9353,127.1213 198.4401,126.6906 198.9901,126.2855 199.5558,125.9554 200.1208,125.6896 200.6714,125.4645 201.1943,125.2564 201.6759,125.0414 202.1026,124.7958 202.4611,124.4959 202.7378,124.1179 202.9191,123.6381 202.9918,123.0329 202.9821,122.3248 203.009,121.6448 203.1528,121.0819 203.4046,120.6274 203.747,120.2633 204.1625,119.9713 204.6338,119.7333 205.1434,119.5313 205.6739,119.347 206.2079,119.1623 206.7279,118.9591 207.2168,118.7197 207.6671,118.4368 208.0824,118.1159 208.467,117.7631 208.8252,117.3843 209.1612,116.9856 209.4793,116.5731 209.7837,116.1528 210.0787,115.7308 210.3685,115.3131 210.6574,114.9057 210.9497,114.5147 211.2496,114.1462 211.5613,113.8047 211.8887,113.4876 212.2353,113.1897 212.6051,112.9061 213.0015,112.6319 213.4258,112.3647 213.8761,112.1056 214.3501,111.8559 214.8456,111.617 215.3604,111.3902 215.8924,111.1768 216.4392,110.9781 216.9988,110.7955 217.5688,110.6304 218.147,110.484 218.7314,110.3576 219.3196,110.2527 219.9094,110.1705 220.4986,110.1123 221.0851,110.0796 221.6666,110.0736 222.2409,110.0956 222.8057,110.1471 223.359,110.2292 223.8984,110.3434 224.4218,110.491 224.9269,110.6734 225.4116,110.8917 225.8736,111.1475 226.3107,111.4419 226.7208,111.7764 227.1017,112.1519 227.4681,112.5372 227.8634,112.8449 228.33,112.99 228.8573,113.0011 229.3964,112.9868 229.8976,113.0579 230.3235,113.3012 230.7088,113.6622 231.1148,114.0343 231.5806,114.3417 232.0979,114.5747 232.6517,114.7326 233.2273,114.8147 233.8099,114.82 234.3847,114.7479 234.937,114.5974 235.4519,114.368 235.9147,114.0587 236.3145,113.6728 236.6689,113.2435 237.0081,112.8168 237.3621,112.4386 237.761,112.155 238.2336,112.0092 238.7753,111.9772 239.347,111.9657 239.9086,111.8786 240.4154,111.6393 240.785,111.3529 240.9144,111.2231 240.743,111.3762 240.3474,111.6863 239.8314,111.9782 239.2698,112.1497 238.7017,112.1893 238.1639,112.0913 237.6905,111.852 237.2835,111.4939 236.9236,111.0564 236.5909,110.5795 236.2656,110.1031 235.9279,109.6671 235.5581,109.3114 235.1362,109.0758 234.6459,108.9928 234.1087,109.0108 233.5698,109.0253 233.0748,108.931 232.6554,108.656 232.2706,108.2991 231.8567,108.0138 231.3768,107.8881 230.8456,107.8865 230.2838,107.9592 229.7118,108.0566 229.1501,108.1291 228.6192,108.127 228.1398,108.0007 227.7268,107.7135 227.347,107.3463 226.9409,107.0424 226.4668,106.9027 225.9401,106.8904 225.387,106.9416 224.8342,106.9924 224.308,106.9788 223.8349,106.8369 223.4414,106.5027 223.154,105.9125 222.9991,105.0022" stroke="black" stroke-width="1" /><polyline fill="none" points="231.8559,87.8282 232.3824,87.8062 232.8807,87.8403 233.3508,87.9268 233.7923,88.0617 234.2053,88.2412 234.5893,88.4614 234.9444,88.7183 235.2703,89.0081 235.5668,89.3268 235.8337,89.6707 236.0709,90.0358 236.2782,90.4182 236.4553,90.814 236.6022,91.2194 236.7185,91.6304 236.8043,92.0432 236.8591,92.4538 236.883,92.8584 236.8756,93.2531 236.8369,93.634 236.7666,93.9972 236.6645,94.3388 236.5306,94.655 236.3645,94.9418 236.1676,95.1968 235.9428,95.4192 235.6928,95.6079 235.4207,95.7623 235.1294,95.8815 234.8217,95.9647 234.5006,96.0109 234.1689,96.0195 233.8297,95.9894 233.4858,95.92 233.1401,95.8104 232.7955,95.6597 232.455,95.4671 232.1214,95.2317 231.7978,94.9528 231.4869,94.6295 231.1917,94.261 230.9151,93.8463 230.66,93.3848 230.4293,92.8755 230.226,92.3177 230.053,91.7104 229.9131,91.0529 229.8093,90.3443 229.7445,89.5837" stroke="black" stroke-width="1" /><polyline fill="none" points="88.9999,0.0 84.5446,3.2845 80.3317,6.8005 76.3621,10.5431 72.6366,14.5067 69.1561,18.6863 65.9214,23.0766 62.9334,27.6723 60.1931,32.4682 57.7012,37.459 55.4632,42.6372 53.532,47.9717 51.9888,53.4171 50.9148,58.9284 50.3917,64.46 50.5008,69.9666 51.3235,75.4029 52.9304,80.726 55.1606,85.9449 57.6303,91.119 59.9471,96.3094 61.7183,101.5771 62.5515,106.9835 62.054,112.5897 59.8332,118.4569 56.3122,124.2216 58.5801,126.1113 63.0103,127.0707 64.3028,130.4769 63.2722,135.7447 60.7734,142.263 57.6614,149.4206 54.7911,156.6062 52.9694,163.2435 52.4165,169.1817 52.9594,174.5546 54.4181,179.5016 56.6127,184.1618 59.3724,188.6475 62.5443,193.0204 65.9774,197.3363 69.5209,201.651 73.0239,206.0204 76.3354,210.5001 79.3075,215.1447 81.8807,219.9736 84.0938,224.9663 85.9909,230.1005 87.6161,235.3538 89.0137,240.7038 90.2276,246.128 91.3017,251.6043 92.2561,257.1138 93.0692,262.6443 93.7157,268.1839 94.17,273.7211 94.4065,279.2439 94.3999,284.7408 94.1245,290.2001 93.5549,295.6099 92.6657,300.9585 91.4276,306.2327 89.6907,311.3625 87.1581,316.2099 83.5239,320.6324 78.5177,324.4971 72.2847,327.78 65.2408,330.5285 57.8063,332.7909 50.4015,334.6159 43.4469,336.0519 37.3627,337.1473 32.5695,337.9506 29.4874,338.5103 28.5369,338.8749 30.1152,339.0854 34.0733,339.0092 39.7095,338.3374 46.2973,336.7537 53.1103,333.9414 59.5322,329.8405 65.3664,325.3677 70.516,321.6721 74.8842,319.9028 78.3742,321.2087 80.8986,326.3625 82.4437,333.2189 83.0302,338.2686 82.7083,338.2159 81.9784,333.1459 81.6919,325.7837 82.6803,318.8595 85.0453,313.4948 88.1263,309.1317 91.2274,305.1333 93.7018,300.9059 95.3771,296.2705 96.3445,291.2782 96.698,285.983 96.5317,280.4387 95.9396,274.699 95.0159,268.8179 93.8545,262.849 92.5496,256.8463 91.1951,250.8635 89.867,244.9548 88.5289,239.1764 87.101,233.5851 85.5035,228.2379 83.6567,223.1918 81.4809,218.5037 78.8962,214.2305 75.835,210.4073 72.3594,206.8361 68.6097,203.1778 64.7277,199.0912 60.8549,194.2352 57.2687,188.4348 55.3358,182.8488 56.9273,179.2685 62.2576,178.7172 68.6489,180.8741 73.1333,185.2834 74.0444,190.8445 73.8899,194.5556 73.8242,195.481 73.8505,193.9528 73.9638,190.3123 74.1589,184.9011 74.4307,178.0604 74.7739,170.1316 75.1834,161.4563 75.654,152.3758 76.1806,143.2315 76.758,134.3649 77.3824,126.1027 78.0702,118.5573 78.8534,111.6767 79.7642,105.4054 80.8348,99.6874 82.0976,94.4669 83.5849,89.6882 85.3288,85.2954 87.3617,81.2326 89.7159,77.4441 92.4236,73.8741 95.5175,70.4669 99.1923,67.2469 104.0482,64.4387 110.7328,62.2936 119.2013,60.8837 128.4375,60.0292 137.3523,59.5317 144.8566,59.1925 149.8613,58.8132 151.2774,58.195 148.0158,57.1396 142.7336,55.1685 145.832,51.8679 150.5083,49.2496 155.5413,47.4761 160.8511,46.4368 166.3583,46.0211 171.983,46.1183 177.6456,46.6179 183.2664,47.4091 188.7662,48.3826 194.1014,49.5117 199.2864,50.9057 204.3413,52.6863 209.2859,54.9756 214.1402,57.8953 218.9127,61.5642 223.1907,65.99 226.0283,71.0396 226.4451,76.5706 223.7201,81.5781 219.5556,79.4411 217.0672,75.1542 217.5142,74.1843 220.3316,76.1004 224.8846,80.2464 230.5385,85.9661 236.6587,92.6032 242.6105,99.5015 247.7599,106.0056 251.7054,111.6833 254.6208,116.6557 256.7676,121.1281 258.407,125.3056 259.7899,129.394 261.0014,133.6085 261.9936,138.1714 262.7151,143.3057 263.1142,149.234 263.1396,156.1791 262.7456,164.3289 262.0176,173.1131 261.1677,181.2278 260.4128,187.3388 259.9703,190.1117 260.0582,188.2205 261.1459,182.3759 264.2852,178.0149 269.5978,177.8792 274.1723,175.0739 276.5488,169.5504 275.9066,163.9684 272.0449,160.2494 267.3289,157.2569 264.6131,153.1884 264.5789,147.7946 266.4386,141.8771 269.3783,136.2591 273.6582,132.9559 279.5996,134.8864 279.9809,138.7826 275.3238,142.6678 274.4379,147.1819 277.2986,152.3156 280.8918,157.8072 282.7283,163.4157 282.6497,168.9925 281.1432,174.4146 278.6961,179.5589 275.7178,184.3505 272.3948,188.8515 268.8737,193.1486 265.3012,197.3286 261.824,201.4781 258.5888,205.6838 255.7385,210.0311 253.3158,214.5644 251.2521,219.2838 249.4733,224.1865 247.9051,229.2703 246.4733,234.5324 245.1038,239.9706 243.7222,245.5822 242.2545,251.3647 240.6269,257.3155 238.8379,263.4062 237.0398,269.5536 235.4041,275.6678 234.1025,281.6586 233.3067,287.4361 233.1882,292.9101 233.9187,297.9907 235.6699,302.5877 238.6135,306.6112 242.7758,310.0604 247.385,313.4267 251.3958,317.3695 253.7628,322.5485 253.5139,329.5318 251.6026,336.4762 251.0547,338.9443 253.3119,334.4445 254.11,327.7004 252.5688,321.7818 251.0729,317.4652 251.7653,315.3643 254.8543,315.3455 259.7928,316.9832 266.0321,319.8509 273.0233,323.5226 280.2176,327.5718 287.0662,331.5723 293.0203,335.0979 297.5311,337.7222 300.0497,339.0189 300.1971,338.7084 298.2033,337.0371 294.4349,334.3696 289.2587,331.0703 283.0412,327.5038 276.1493,324.0345 268.9495,321.027 261.8086,318.8457 255.0933,317.8455 249.1745,317.5912 244.4309,316.2859 241.1366,312.4315 238.9822,306.9446 237.5328,301.2725 236.6489,295.6859 236.2629,290.1698 236.3074,284.709 236.7146,279.2884 237.4171,273.8931 238.3472,268.5078 239.4374,263.1175 240.62,257.7071 241.833,252.2639 243.0744,246.8017 244.3791,241.3503 245.7823,235.9399 247.3195,230.6006 249.0259,225.3625 250.9369,220.2558 253.0879,215.3105 255.5141,210.5568 258.2492,206.0231 261.2697,201.6826 264.4863,197.4448 267.8057,193.2155 271.1347,188.9006 274.3804,184.4058 277.4494,179.6371 280.2486,174.5001 282.6701,168.9597 284.5615,163.1579 285.7618,157.2705 286.1103,151.4731 285.4459,145.9416 283.6078,140.8517 280.4362,136.3785 276.2325,132.503 272.4865,128.7054 270.671,124.4523 270.8463,119.6654 272.4813,114.4566 275.043,108.9385 277.9981,103.2237 280.8136,97.425 283.0357,91.6416 284.6062,85.9073 285.5901,80.2354 286.0524,74.6391 286.0581,69.1317 285.6721,63.7265 284.9595,58.4366 283.9853,53.2754 282.8142,48.2561 281.4399,43.3552 279.673,38.4554 277.2953,33.4245 274.0882,28.1304 269.9434,22.5191 265.2241,16.8726 260.4203,11.5636 256.022,6.9643 252.5192,3.4473 250.402,1.3849 250.1516,1.1429 251.8578,2.7899 255.0691,5.9832 259.2947,10.3504 264.0437,15.5189 268.8251,21.116 273.1479,26.7693 276.5775,32.1457 279.1261,37.2272 281.02,42.1466 282.4864,47.0372 283.7418,52.0273 284.8366,57.1645 285.6951,62.4349 286.2384,67.8233 286.3875,73.3144 286.0634,78.8928 285.1872,84.5432 283.6798,90.2503 281.4623,95.9988 278.4899,101.772 274.9497,107.5449 271.1254,113.2886 267.3011,118.9745 263.7606,124.5738 260.788,130.0577 258.6673,135.3975 257.6824,140.5645 258.1174,145.5299 260.2562,150.265 264.3829,154.7409 270.298,158.8739 272.8962,162.019 268.1149,164.3106 265.0314,169.1656 265.0146,174.4356 265.2111,176.318 265.1797,174.7922 264.9156,170.5175 264.4138,164.1526 263.6693,156.3566 262.6772,147.7885 261.4325,139.1073 259.9303,130.9719 258.166,124.0236 256.149,118.3973 253.9041,113.6576 251.4567,109.3387 248.8326,104.9749 246.0573,100.1005 243.1011,94.5563 239.6992,89.4846 235.5247,86.3732 230.3263,86.512 225.5595,86.6971 222.4418,83.7641 220.4619,78.5655 219.0495,72.0914 217.6342,65.332 215.6459,59.2774 212.5706,54.8158 208.3811,51.9558 203.2987,50.2561 197.5472,49.2715 191.35,48.5571 184.9302,47.6721 178.4824,46.4562 172.1551,45.1983 166.0928,44.2281 160.4401,43.8751 155.3415,44.4689 150.9414,46.3388 147.3829,49.8117 144.4653,54.5593 141.2093,58.7698 136.9302,61.1851 131.7983,62.161 126.0932,62.2595 120.0945,62.0427 114.0817,62.0725 108.3345,62.911 103.0983,64.9782 98.4546,68.012 94.4357,71.5459 91.0484,75.2431 88.2337,79.0982 85.9224,83.1587 84.0454,87.4717 82.5333,92.0847 81.3169,97.045 80.327,102.3997 79.4943,108.1963 78.7496,114.4821 78.0237,121.3043 77.2473,128.7103 76.3589,136.7119 75.3747,144.963 74.356,152.9102 73.3644,159.9974 72.4619,165.6686 71.7102,169.368 71.1711,170.5395 70.8981,168.6629 70.7529,164.0488 70.4043,157.8432 69.5125,151.2285 67.7707,145.3158 65.2856,140.3158 62.4477,135.8222 59.6526,131.417 57.1976,126.789 55.1121,121.9182 53.3805,116.8332 51.9871,111.5632 50.9162,106.1368 50.1522,100.5832 49.6794,94.931 49.4821,89.2093 49.5446,83.4469 49.8513,77.6727 50.3865,71.9157 51.1345,66.2046 52.0796,60.5684 53.2133,55.0325 54.55,49.6112 56.1082,44.3166 57.9067,39.1608 59.9643,34.1558 62.2998,29.3139 64.9317,24.647 67.8789,20.1673 71.1602,15.8869 74.7942,11.8178 78.7996,7.9723 83.1953,4.3623 88.0,1.0" stroke="black" stroke-width="1" /></svg>