<?xml version="1.0" encoding="utf-8" ?>
<svg baseProfile="tiny" height="341" version="1.2" width="341" xmlns="http://www.w3.org/2000/svg" xmlns:ev="http://www.w3.org/2001/xml-events" xmlns:xlink="http://www.w3.org/1999/xlink"><defs /><polyline fill="none" points="193.0,220.0 196.0,223.0" stroke="black" stroke-width="1" /><polyline fill="none" points="175.0,225.0 182.0,225.0" stroke="black" stroke-width="1" /><polyline fill="none" points="152.0,225.0 160.0,225.0" stroke="black" stroke-width="1" /><polyline fill="none" points="142.0,231.0 149.0,235.0" stroke="black" stroke-width="1" /><polyline fill="none" points="158.0,214.0 168.0,215.0" stroke="black" stroke-width="1" /><polyline fill="none" points="158.0,237.0 168.0,237.0" stroke="black" stroke-width="1" /><polyline fill="none" points="187.0,217.0 193.0,220.0" stroke="black" stroke-width="1" /><polyline fill="none" points="192.0,231.0 196.0,228.0" stroke="black" stroke-width="1" /><polyline fill="none" points="187.0,225.0 191.0,225.0" stroke="black" stroke-width="1" /><polyline fill="none" points="175.0,225.0 182.0,225.0" stroke="black" stroke-width="1" /><polyline fill="none" points="191.0,225.0 196.0,226.0" stroke="black" stroke-width="1" /><polyline fill="none" points="168.0,237.0 177.0,236.0" stroke="black" stroke-width="1" /><polyline fill="none" points="133.0,226.0 137.0,229.0" stroke="black" stroke-width="1" /><polyline fill="none" points="136.0,226.0 141.0,226.0" stroke="black" stroke-width="1" /><polyline fill="none" points="168.0,215.0 177.0,214.0" stroke="black" stroke-width="1" /><polyline fill="none" points="160.0,225.0 168.0,225.0" stroke="black" stroke-width="1" /><polyline fill="none" points="177.0,236.0 185.0,234.0" stroke="black" stroke-width="1" /><polyline fill="none" points="152.0,225.0 159.0,225.0" stroke="black" stroke-width="1" /><polyline fill="none" points="177.0,214.0 187.0,217.0" stroke="black" stroke-width="1" /><polyline fill="none" points="133.0,226.0 136.0,224.0" stroke="black" stroke-width="1" /><polyline fill="none" points="167.0,225.0 175.0,225.0" stroke="black" stroke-width="1" /><polyline fill="none" points="146.0,226.0 152.0,225.0" stroke="black" stroke-width="1" /><polyline fill="none" points="136.0,224.0 141.0,221.0" stroke="black" stroke-width="1" /><polyline fill="none" points="185.0,234.0 192.0,231.0" stroke="black" stroke-width="1" /><polyline fill="none" points="168.0,225.0 175.0,225.0" stroke="black" stroke-width="1" /><polyline fill="none" points="191.0,225.0 196.0,226.0" stroke="black" stroke-width="1" /><polyline fill="none" points="196.0,223.0 199.0,226.0" stroke="black" stroke-width="1" /><polyline fill="none" points="137.0,229.0 142.0,231.0" stroke="black" stroke-width="1" /><polyline fill="none" points="159.0,225.0 167.0,225.0" stroke="black" stroke-width="1" /><polyline fill="none" points="136.0,226.0 141.0,226.0" stroke="black" stroke-width="1" /><polyline fill="none" points="141.0,226.0 146.0,226.0" stroke="black" stroke-width="1" /><polyline fill="none" points="182.0,225.0 187.0,225.0" stroke="black" stroke-width="1" /><polyline fill="none" points="148.0,217.0 158.0,214.0" stroke="black" stroke-width="1" /><polyline fill="none" points="141.0,221.0 148.0,217.0" stroke="black" stroke-width="1" /><polyline fill="none" points="182.0,225.0 187.0,225.0" stroke="black" stroke-width="1" /><polyline fill="none" points="141.0,226.0 146.0,225.0" stroke="black" stroke-width="1" /><polyline fill="none" points="146.0,225.0 152.0,225.0" stroke="black" stroke-width="1" /><polyline fill="none" points="187.0,225.0 191.0,225.0" stroke="black" stroke-width="1" /><polyline fill="none" points="149.0,235.0 158.0,237.0" stroke="black" stroke-width="1" /><polyline fill="none" points="196.0,228.0 199.0,226.0" stroke="black" stroke-width="1" /><polyline fill="none" points="211.0,145.0 204.0,145.0" stroke="black" stroke-width="1" /><polyline fill="none" points="221.0,143.0 217.0,144.0" stroke="black" stroke-width="1" /><polyline fill="none" points="224.0,141.0 221.0,143.0" stroke="black" stroke-width="1" /><polyline fill="none" points="204.0,136.0 197.0,138.0" stroke="black" stroke-width="1" /><polyline fill="none" points="217.0,144.0 211.0,145.0" stroke="black" stroke-width="1" /><polyline fill="none" points="226.0,139.0 224.0,138.0" stroke="black" stroke-width="1" /><polyline fill="none" points="217.0,136.0 211.0,135.0" stroke="black" stroke-width="1" /><polyline fill="none" points="198.0,144.0 193.0,144.0" stroke="black" stroke-width="1" /><polyline fill="none" points="197.0,138.0 193.0,141.0" stroke="black" stroke-width="1" /><polyline fill="none" points="224.0,138.0 222.0,137.0" stroke="black" stroke-width="1" /><polyline fill="none" points="211.0,135.0 204.0,136.0" stroke="black" stroke-width="1" /><polyline fill="none" points="222.0,137.0 217.0,136.0" stroke="black" stroke-width="1" /><polyline fill="none" points="226.0,139.0 224.0,141.0" stroke="black" stroke-width="1" /><polyline fill="none" points="204.0,145.0 198.0,144.0" stroke="black" stroke-width="1" /><polyline fill="none" points="193.0,141.0 191.0,143.0" stroke="black" stroke-width="1" /><polyline fill="none" points="193.0,144.0 191.0,143.0" stroke="black" stroke-width="1" /><polyline fill="none" points="136.0,146.0 140.0,145.0" stroke="black" stroke-width="1" /><polyline fill="none" points="108.0,143.0 110.0,144.0" stroke="black" stroke-width="1" /><polyline fill="none" points="110.0,141.0 112.0,140.0" stroke="black" stroke-width="1" /><polyline fill="none" points="123.0,138.0 130.0,138.0" stroke="black" stroke-width="1" /><polyline fill="none" points="117.0,146.0 123.0,147.0" stroke="black" stroke-width="1" /><polyline fill="none" points="140.0,143.0 142.0,145.0" stroke="black" stroke-width="1" /><polyline fill="none" points="130.0,138.0 136.0,140.0" stroke="black" stroke-width="1" /><polyline fill="none" points="113.0,145.0 117.0,146.0" stroke="black" stroke-width="1" /><polyline fill="none" points="130.0,147.0 136.0,146.0" stroke="black" stroke-width="1" /><polyline fill="none" points="110.0,144.0 113.0,145.0" stroke="black" stroke-width="1" /><polyline fill="none" points="112.0,140.0 117.0,139.0" stroke="black" stroke-width="1" /><polyline fill="none" points="136.0,140.0 140.0,143.0" stroke="black" stroke-width="1" /><polyline fill="none" points="108.0,143.0 110.0,141.0" stroke="black" stroke-width="1" /><polyline fill="none" points="117.0,139.0 123.0,138.0" stroke="black" stroke-width="1" /><polyline fill="none" points="123.0,147.0 130.0,147.0" stroke="black" stroke-width="1" /><polyline fill="none" points="140.0,145.0 142.0,145.0" stroke="black" stroke-width="1" /><polyline fill="none" points="222.0,104.0 205.0,106.0" stroke="black" stroke-width="1" /><polyline fill="none" points="239.0,120.0 231.0,114.0" stroke="black" stroke-width="1" /><polyline fill="none" points="235.0,108.0 222.0,104.0" stroke="black" stroke-width="1" /><polyline fill="none" points="204.0,113.0 184.0,121.0" stroke="black" stroke-width="1" /><polyline fill="none" points="205.0,106.0 186.0,109.0" stroke="black" stroke-width="1" /><polyline fill="none" points="220.0,111.0 204.0,113.0" stroke="black" stroke-width="1" /><polyline fill="none" points="231.0,114.0 220.0,111.0" stroke="black" stroke-width="1" /><polyline fill="none" points="243.0,117.0 235.0,108.0" stroke="black" stroke-width="1" /><polyline fill="none" points="94.0,125.0 102.0,119.0" stroke="black" stroke-width="1" /><polyline fill="none" points="127.0,109.0 146.0,112.0" stroke="black" stroke-width="1" /><polyline fill="none" points="114.0,115.0 129.0,116.0" stroke="black" stroke-width="1" /><polyline fill="none" points="102.0,119.0 114.0,115.0" stroke="black" stroke-width="1" /><polyline fill="none" points="98.0,114.0 111.0,109.0" stroke="black" stroke-width="1" /><polyline fill="none" points="89.0,123.0 98.0,114.0" stroke="black" stroke-width="1" /><polyline fill="none" points="129.0,116.0 149.0,123.0" stroke="black" stroke-width="1" /><polyline fill="none" points="111.0,109.0 127.0,109.0" stroke="black" stroke-width="1" /><polyline fill="none" points="137.0,278.0 126.0,274.0" stroke="black" stroke-width="1" /><polyline fill="none" points="213.0,77.0 233.0,85.0" stroke="black" stroke-width="1" /><polyline fill="none" points="115.0,268.0 103.0,258.0" stroke="black" stroke-width="1" /><polyline fill="none" points="141.0,74.0 166.0,72.0" stroke="black" stroke-width="1" /><polyline fill="none" points="261.0,151.0 261.0,171.0" stroke="black" stroke-width="1" /><polyline fill="none" points="85.0,232.0 79.0,212.0" stroke="black" stroke-width="1" /><polyline fill="none" points="168.0,283.0 151.0,282.0" stroke="black" stroke-width="1" /><polyline fill="none" points="257.0,210.0 252.0,231.0" stroke="black" stroke-width="1" /><polyline fill="none" points="75.0,133.0 79.0,116.0" stroke="black" stroke-width="1" /><polyline fill="none" points="254.0,114.0 259.0,131.0" stroke="black" stroke-width="1" /><polyline fill="none" points="79.0,212.0 76.0,191.0" stroke="black" stroke-width="1" /><polyline fill="none" points="166.0,72.0 191.0,73.0" stroke="black" stroke-width="1" /><polyline fill="none" points="259.0,131.0 261.0,151.0" stroke="black" stroke-width="1" /><polyline fill="none" points="246.0,98.0 254.0,114.0" stroke="black" stroke-width="1" /><polyline fill="none" points="198.0,278.0 185.0,281.0" stroke="black" stroke-width="1" /><polyline fill="none" points="103.0,258.0 93.0,248.0" stroke="black" stroke-width="1" /><polyline fill="none" points="185.0,281.0 168.0,283.0" stroke="black" stroke-width="1" /><polyline fill="none" points="260.0,190.0 257.0,210.0" stroke="black" stroke-width="1" /><polyline fill="none" points="87.0,100.0 100.0,87.0" stroke="black" stroke-width="1" /><polyline fill="none" points="79.0,116.0 87.0,100.0" stroke="black" stroke-width="1" /><polyline fill="none" points="93.0,248.0 85.0,232.0" stroke="black" stroke-width="1" /><polyline fill="none" points="120.0,78.0 141.0,74.0" stroke="black" stroke-width="1" /><polyline fill="none" points="261.0,171.0 260.0,190.0" stroke="black" stroke-width="1" /><polyline fill="none" points="234.0,257.0 221.0,267.0" stroke="black" stroke-width="1" /><polyline fill="none" points="221.0,267.0 210.0,273.0" stroke="black" stroke-width="1" /><polyline fill="none" points="151.0,282.0 137.0,278.0" stroke="black" stroke-width="1" /><polyline fill="none" points="76.0,191.0 74.0,173.0" stroke="black" stroke-width="1" /><polyline fill="none" points="233.0,85.0 246.0,98.0" stroke="black" stroke-width="1" /><polyline fill="none" points="244.0,246.0 234.0,257.0" stroke="black" stroke-width="1" /><polyline fill="none" points="191.0,73.0 213.0,77.0" stroke="black" stroke-width="1" /><polyline fill="none" points="126.0,274.0 115.0,268.0" stroke="black" stroke-width="1" /><polyline fill="none" points="252.0,231.0 244.0,246.0" stroke="black" stroke-width="1" /><polyline fill="none" points="74.0,173.0 73.0,154.0" stroke="black" stroke-width="1" /><polyline fill="none" points="100.0,87.0 120.0,78.0" stroke="black" stroke-width="1" /><polyline fill="none" points="210.0,273.0 198.0,278.0" stroke="black" stroke-width="1" /><polyline fill="none" points="73.0,154.0 75.0,133.0" stroke="black" stroke-width="1" /><polyline fill="none" points="192.0,189.0 192.0,185.0" stroke="black" stroke-width="1" /><polyline fill="none" points="167.0,166.0 167.0,177.0" stroke="black" stroke-width="1" /><polyline fill="none" points="153.0,179.0 147.0,181.0" stroke="black" stroke-width="1" /><polyline fill="none" points="187.0,181.0 181.0,178.0" stroke="black" stroke-width="1" /><polyline fill="none" points="160.0,177.0 153.0,179.0" stroke="black" stroke-width="1" /><polyline fill="none" points="167.0,150.0 167.0,158.0" stroke="black" stroke-width="1" /><polyline fill="none" points="167.0,177.0 160.0,177.0" stroke="black" stroke-width="1" /><polyline fill="none" points="167.0,190.0 167.0,192.0" stroke="black" stroke-width="1" /><polyline fill="none" points="167.0,142.0 167.0,150.0" stroke="black" stroke-width="1" /><polyline fill="none" points="145.0,195.0 158.0,195.0" stroke="black" stroke-width="1" /><polyline fill="none" points="167.0,133.0 167.0,142.0" stroke="black" stroke-width="1" /><polyline fill="none" points="167.0,192.0 167.0,195.0" stroke="black" stroke-width="1" /><polyline fill="none" points="167.0,158.0 167.0,166.0" stroke="black" stroke-width="1" /><polyline fill="none" points="142.0,190.0 145.0,195.0" stroke="black" stroke-width="1" /><polyline fill="none" points="175.0,177.0 167.0,177.0" stroke="black" stroke-width="1" /><polyline fill="none" points="177.0,195.0 189.0,195.0" stroke="black" stroke-width="1" /><polyline fill="none" points="192.0,185.0 187.0,181.0" stroke="black" stroke-width="1" /><polyline fill="none" points="181.0,178.0 175.0,177.0" stroke="black" stroke-width="1" /><polyline fill="none" points="167.0,177.0 167.0,185.0" stroke="black" stroke-width="1" /><polyline fill="none" points="189.0,195.0 192.0,189.0" stroke="black" stroke-width="1" /><polyline fill="none" points="147.0,181.0 142.0,186.0" stroke="black" stroke-width="1" /><polyline fill="none" points="142.0,186.0 142.0,190.0" stroke="black" stroke-width="1" /><polyline fill="none" points="167.0,185.0 167.0,190.0" stroke="black" stroke-width="1" /><polyline fill="none" points="167.0,195.0 177.0,195.0" stroke="black" stroke-width="1" /><polyline fill="none" points="158.0,195.0 167.0,195.0" stroke="black" stroke-width="1" /></svg>