<?xml version="1.0" encoding="utf-8" ?>
<svg baseProfile="tiny" height="341" version="1.2" width="341" xmlns="http://www.w3.org/2000/svg" xmlns:ev="http://www.w3.org/2001/xml-events" xmlns:xlink="http://www.w3.org/1999/xlink"><defs /><polyline fill="none" points="85.0,319.0 79.0,325.0 79.0,326.0 78.0,327.0 78.0,328.0 76.0,330.0 68.0,330.0 67.0,331.0 64.0,331.0 63.0,332.0 62.0,332.0 61.0,333.0 60.0,333.0 59.0,334.0 58.0,334.0 56.0,336.0 54.0,336.0 53.0,337.0 51.0,337.0 50.0,338.0 42.0,338.0 41.0,339.0 30.0,339.0 41.0,339.0 42.0,338.0 50.0,338.0 51.0,337.0 53.0,337.0 54.0,336.0 56.0,336.0 58.0,334.0 59.0,334.0 60.0,333.0 61.0,333.0 64.0,331.0 67.0,331.0 68.0,330.0 77.0,330.0 78.0,331.0 78.0,334.0 79.0,335.0 79.0,338.0 80.0,339.0 81.0,339.0 80.0,339.0 79.0,338.0 79.0,335.0 78.0,334.0 78.0,331.0 77.0,330.0 77.0,329.0 78.0,328.0 78.0,327.0 79.0,326.0 79.0,325.0 85.0,319.0 86.0,319.0" stroke="black" stroke-width="1" /><polyline fill="none" points="247.0,317.0 246.0,318.0 247.0,317.0 248.0,318.0 250.0,318.0 251.0,319.0 252.0,319.0 254.0,321.0 255.0,321.0 258.0,324.0 258.0,327.0 257.0,328.0 257.0,333.0 256.0,334.0 256.0,336.0 253.0,339.0 256.0,336.0 256.0,334.0 257.0,333.0 257.0,328.0 259.0,326.0 260.0,327.0 261.0,327.0 262.0,328.0 264.0,328.0 265.0,329.0 272.0,329.0 273.0,330.0 274.0,330.0 277.0,332.0 279.0,332.0 281.0,334.0 282.0,334.0 283.0,335.0 286.0,336.0 288.0,338.0 292.0,338.0 293.0,339.0 299.0,339.0 300.0,340.0 301.0,340.0 300.0,340.0 299.0,339.0 293.0,339.0 292.0,338.0 288.0,338.0 286.0,336.0 285.0,336.0 284.0,335.0 281.0,334.0 279.0,332.0 277.0,332.0 276.0,331.0 275.0,331.0 272.0,329.0 265.0,329.0 264.0,328.0 262.0,328.0 261.0,327.0 260.0,327.0 258.0,325.0 258.0,324.0 255.0,321.0 254.0,321.0 252.0,319.0 251.0,319.0 250.0,318.0 248.0,318.0" stroke="black" stroke-width="1" /><polyline fill="none" points="167.0,312.0 168.0,313.0 165.0,316.0 165.0,318.0 164.0,319.0 163.0,319.0 158.0,314.0 157.0,314.0 156.0,313.0 155.0,314.0 156.0,315.0 157.0,314.0 158.0,314.0 162.0,318.0 161.0,319.0 162.0,320.0 161.0,321.0 160.0,321.0 161.0,321.0 163.0,319.0 164.0,319.0 165.0,318.0 166.0,318.0 168.0,316.0 169.0,316.0 168.0,315.0 168.0,314.0 169.0,313.0 170.0,313.0 171.0,312.0 174.0,315.0 176.0,315.0 177.0,316.0 174.0,313.0 172.0,313.0 171.0,312.0 170.0,313.0 168.0,313.0" stroke="black" stroke-width="1" /><polyline fill="none" points="177.0,215.0 185.0,220.0 186.0,222.0 185.0,224.0 160.0,224.0 159.0,225.0 147.0,224.0 146.0,223.0 150.0,218.0 154.0,217.0 162.0,217.0 163.0,218.0 173.0,217.0 150.0,218.0 146.0,223.0 143.0,223.0 138.0,226.0 132.0,226.0 128.0,229.0 132.0,226.0 139.0,225.0 144.0,232.0 151.0,234.0 156.0,239.0 153.0,241.0 149.0,241.0 155.0,240.0 156.0,241.0 155.0,243.0 157.0,238.0 165.0,237.0 170.0,240.0 178.0,241.0 175.0,240.0 177.0,235.0 182.0,232.0 188.0,231.0 182.0,232.0 180.0,234.0 173.0,234.0 176.0,234.0 177.0,236.0 174.0,240.0 170.0,240.0 169.0,239.0 171.0,236.0 170.0,235.0 168.0,239.0 163.0,235.0 161.0,238.0 155.0,238.0 151.0,234.0 144.0,232.0 140.0,226.0 143.0,223.0 154.0,225.0 188.0,223.0 194.0,225.0 200.0,225.0 205.0,230.0 200.0,225.0 189.0,224.0 183.0,218.0 178.0,216.0" stroke="black" stroke-width="1" /><polyline fill="none" points="154.0,187.0 146.0,195.0 143.0,195.0 141.0,193.0 141.0,192.0 140.0,191.0 140.0,190.0 140.0,191.0 141.0,192.0 141.0,193.0 143.0,195.0 145.0,195.0 147.0,197.0 146.0,196.0 146.0,195.0 154.0,187.0 161.0,187.0 162.0,188.0 163.0,188.0 165.0,190.0 165.0,191.0 167.0,193.0 168.0,193.0 167.0,193.0 165.0,191.0 165.0,190.0 163.0,188.0 162.0,188.0 161.0,187.0" stroke="black" stroke-width="1" /><polyline fill="none" points="60.0,179.0 62.0,179.0 63.0,180.0 63.0,181.0 67.0,185.0 68.0,185.0 69.0,186.0 72.0,186.0 73.0,187.0 75.0,187.0 76.0,188.0 76.0,191.0 77.0,192.0 77.0,194.0 74.0,197.0 75.0,196.0 76.0,196.0 77.0,197.0 77.0,201.0 74.0,204.0 69.0,199.0 69.0,198.0 60.0,189.0 60.0,188.0 59.0,187.0 59.0,186.0 58.0,185.0 58.0,181.0" stroke="black" stroke-width="1" /><polyline fill="none" points="266.0,162.0 271.0,162.0 273.0,164.0 273.0,165.0 274.0,166.0 274.0,170.0 273.0,171.0 273.0,172.0 271.0,174.0 270.0,174.0 267.0,171.0 266.0,171.0 264.0,169.0 264.0,164.0" stroke="black" stroke-width="1" /><polyline fill="none" points="156.0,163.0 154.0,165.0 154.0,166.0 153.0,167.0 153.0,168.0 150.0,171.0 149.0,171.0 147.0,173.0 147.0,174.0 144.0,177.0 144.0,178.0 143.0,179.0 143.0,180.0 142.0,181.0 142.0,182.0 140.0,184.0 139.0,184.0 140.0,184.0 142.0,182.0 142.0,181.0 143.0,180.0 143.0,179.0 144.0,178.0 144.0,177.0 147.0,174.0 147.0,173.0 149.0,171.0 150.0,171.0 153.0,168.0 153.0,167.0 154.0,166.0 154.0,165.0 156.0,163.0 157.0,163.0" stroke="black" stroke-width="1" /><polyline fill="none" points="179.0,162.0 179.0,163.0 181.0,165.0 181.0,167.0 182.0,168.0 182.0,169.0 185.0,172.0 185.0,173.0 187.0,175.0 188.0,175.0 191.0,178.0 191.0,179.0 193.0,181.0 193.0,184.0 194.0,185.0 194.0,188.0 193.0,189.0 193.0,190.0 190.0,193.0 188.0,193.0 187.0,192.0 185.0,192.0 184.0,191.0 182.0,191.0 179.0,188.0 178.0,188.0 177.0,187.0 173.0,187.0 177.0,187.0 178.0,188.0 179.0,188.0 182.0,191.0 184.0,191.0 185.0,192.0 187.0,192.0 188.0,193.0 188.0,195.0 187.0,196.0 187.0,197.0 185.0,199.0 184.0,199.0 185.0,199.0 187.0,197.0 187.0,196.0 188.0,195.0 188.0,194.0 189.0,193.0 190.0,193.0 193.0,190.0 193.0,189.0 194.0,188.0 194.0,185.0 193.0,184.0 193.0,181.0 191.0,179.0 191.0,178.0 188.0,175.0 187.0,175.0 185.0,173.0 185.0,172.0 182.0,169.0 182.0,168.0 181.0,167.0 181.0,165.0 179.0,163.0" stroke="black" stroke-width="1" /><polyline fill="none" points="201.0,149.0 203.0,149.0 204.0,150.0 217.0,150.0 204.0,150.0 203.0,149.0" stroke="black" stroke-width="1" /><polyline fill="none" points="114.0,139.0 111.0,142.0 106.0,142.0 105.0,143.0 100.0,143.0 99.0,144.0 100.0,143.0 105.0,143.0 106.0,142.0 111.0,142.0 114.0,145.0 115.0,145.0 116.0,146.0 117.0,146.0 118.0,147.0 119.0,147.0 118.0,147.0 117.0,146.0 116.0,146.0 115.0,145.0 114.0,145.0 111.0,142.0 114.0,139.0 121.0,139.0 122.0,140.0 123.0,140.0 124.0,141.0 125.0,141.0 126.0,142.0 127.0,142.0 128.0,143.0 127.0,142.0 128.0,141.0 129.0,141.0 130.0,140.0 133.0,140.0 134.0,141.0 136.0,141.0 138.0,143.0 138.0,145.0 139.0,146.0 138.0,145.0 138.0,143.0 136.0,141.0 134.0,141.0 133.0,140.0 130.0,140.0 129.0,141.0 128.0,141.0 127.0,142.0 126.0,142.0 125.0,141.0 124.0,141.0 123.0,140.0 122.0,140.0 121.0,139.0" stroke="black" stroke-width="1" /><polyline fill="none" points="212.0,136.0 211.0,137.0 210.0,137.0 208.0,139.0 204.0,139.0 203.0,138.0 200.0,138.0 199.0,139.0 197.0,139.0 196.0,140.0 196.0,141.0 195.0,142.0 195.0,143.0 196.0,144.0 197.0,144.0 198.0,145.0 199.0,145.0 198.0,145.0 197.0,144.0 196.0,144.0 195.0,143.0 195.0,142.0 196.0,141.0 196.0,140.0 197.0,139.0 199.0,139.0 200.0,138.0 203.0,138.0 204.0,139.0 208.0,139.0 210.0,137.0 211.0,137.0 212.0,136.0 220.0,136.0 222.0,138.0 222.0,139.0 221.0,140.0 221.0,141.0 219.0,143.0 218.0,143.0 217.0,144.0 216.0,144.0 215.0,145.0 216.0,144.0 217.0,144.0 218.0,143.0 219.0,143.0 221.0,141.0 221.0,140.0 222.0,139.0 223.0,139.0 224.0,138.0 225.0,138.0 226.0,139.0 233.0,139.0 234.0,140.0 238.0,140.0 239.0,141.0 240.0,141.0 239.0,141.0 238.0,140.0 234.0,140.0 233.0,139.0 226.0,139.0 225.0,138.0 224.0,138.0 223.0,139.0 220.0,136.0" stroke="black" stroke-width="1" /><polyline fill="none" points="187.0,129.0 188.0,130.0 187.0,131.0 184.0,131.0 185.0,131.0 186.0,132.0 186.0,133.0 185.0,134.0 185.0,135.0 184.0,136.0 183.0,136.0 182.0,135.0 181.0,135.0 179.0,133.0 178.0,133.0 177.0,132.0 177.0,131.0 178.0,130.0 179.0,130.0 178.0,130.0 177.0,131.0 177.0,132.0 178.0,133.0 179.0,133.0 181.0,135.0 182.0,135.0 184.0,137.0 184.0,138.0 185.0,139.0 185.0,140.0 186.0,141.0 186.0,142.0 186.0,141.0 185.0,140.0 185.0,139.0 184.0,138.0 184.0,136.0 185.0,135.0 185.0,134.0 186.0,133.0 186.0,132.0 188.0,130.0" stroke="black" stroke-width="1" /><polyline fill="none" points="114.0,111.0 112.0,114.0 110.0,114.0 109.0,115.0 104.0,115.0 103.0,116.0 100.0,116.0 99.0,117.0 98.0,117.0 96.0,119.0 94.0,119.0 96.0,119.0 98.0,117.0 99.0,117.0 100.0,116.0 103.0,116.0 104.0,115.0 109.0,115.0 110.0,114.0 115.0,114.0 116.0,115.0 123.0,115.0 129.0,121.0 127.0,119.0 127.0,115.0 128.0,114.0 135.0,114.0 139.0,118.0 142.0,118.0 144.0,120.0 149.0,120.0 151.0,123.0 153.0,123.0 154.0,124.0 154.0,128.0 153.0,129.0 147.0,129.0 146.0,130.0 147.0,129.0 153.0,129.0 154.0,128.0 154.0,124.0 153.0,123.0 151.0,123.0 149.0,120.0 144.0,120.0 143.0,119.0 143.0,117.0 145.0,115.0 144.0,114.0 143.0,115.0 143.0,117.0 142.0,118.0 139.0,118.0 135.0,114.0 128.0,114.0 126.0,116.0 124.0,116.0 123.0,115.0 116.0,115.0 115.0,114.0 114.0,114.0 113.0,113.0 113.0,112.0" stroke="black" stroke-width="1" /><polyline fill="none" points="221.0,108.0 220.0,109.0 215.0,109.0 214.0,110.0 210.0,110.0 209.0,109.0 200.0,109.0 199.0,110.0 196.0,110.0 193.0,112.0 191.0,112.0 190.0,113.0 189.0,113.0 190.0,113.0 191.0,112.0 193.0,112.0 196.0,110.0 197.0,111.0 197.0,115.0 196.0,116.0 196.0,117.0 194.0,119.0 191.0,119.0 189.0,121.0 184.0,121.0 181.0,116.0 181.0,114.0 181.0,116.0 183.0,119.0 183.0,121.0 182.0,122.0 182.0,123.0 182.0,122.0 183.0,121.0 189.0,121.0 191.0,119.0 194.0,119.0 196.0,117.0 196.0,116.0 197.0,115.0 197.0,111.0 200.0,109.0 209.0,109.0 211.0,111.0 210.0,112.0 210.0,113.0 208.0,115.0 208.0,116.0 208.0,115.0 212.0,110.0 214.0,110.0 215.0,109.0 220.0,109.0 221.0,108.0 222.0,109.0 226.0,109.0 227.0,110.0 230.0,110.0 231.0,111.0 233.0,111.0 234.0,112.0 236.0,112.0 237.0,113.0 240.0,114.0 239.0,114.0 236.0,112.0 234.0,112.0 233.0,111.0 231.0,111.0 230.0,110.0 227.0,110.0 226.0,109.0 222.0,109.0" stroke="black" stroke-width="1" /><polyline fill="none" points="220.0,58.0 221.0,57.0 225.0,57.0 232.0,64.0 232.0,65.0 233.0,66.0 233.0,69.0 232.0,70.0 232.0,71.0 231.0,72.0 233.0,70.0 235.0,70.0 236.0,71.0 236.0,72.0 237.0,73.0 237.0,74.0 238.0,75.0 238.0,79.0 240.0,81.0 240.0,82.0 241.0,83.0 241.0,84.0 242.0,85.0 240.0,87.0 237.0,87.0 236.0,86.0 235.0,86.0 234.0,85.0 231.0,85.0 229.0,83.0 229.0,81.0 228.0,80.0 228.0,79.0 227.0,78.0 227.0,77.0 226.0,76.0 226.0,73.0 225.0,72.0 225.0,70.0 224.0,69.0 224.0,67.0 223.0,66.0 223.0,65.0 221.0,63.0 221.0,61.0 220.0,60.0" stroke="black" stroke-width="1" /><polyline fill="none" points="148.0,40.0 151.0,40.0 154.0,43.0 153.0,44.0 153.0,45.0 151.0,47.0 147.0,47.0 146.0,46.0 146.0,42.0" stroke="black" stroke-width="1" /><polyline fill="none" points="118.0,32.0 117.0,33.0 117.0,34.0 116.0,35.0 116.0,37.0 119.0,40.0 124.0,40.0 125.0,41.0 128.0,41.0 129.0,40.0 128.0,41.0 125.0,41.0 123.0,39.0 123.0,37.0 124.0,36.0 126.0,36.0 128.0,34.0 130.0,34.0 133.0,37.0 133.0,38.0 133.0,37.0 132.0,36.0 132.0,34.0 131.0,33.0 130.0,34.0 128.0,34.0 126.0,36.0 124.0,36.0 123.0,37.0 123.0,39.0 122.0,40.0 119.0,40.0 116.0,37.0 116.0,35.0 117.0,34.0 117.0,33.0 118.0,32.0 125.0,32.0" stroke="black" stroke-width="1" /><polyline fill="none" points="161.0,0.0 160.0,1.0 160.0,4.0 159.0,5.0 156.0,5.0 155.0,4.0 155.0,3.0 154.0,2.0 154.0,1.0 154.0,2.0 155.0,3.0 155.0,5.0 154.0,6.0 154.0,7.0 154.0,6.0 155.0,5.0 159.0,5.0 160.0,4.0 160.0,1.0 161.0,0.0 162.0,0.0" stroke="black" stroke-width="1" /><polyline fill="none" points="93.0,0.0 67.0,28.0 55.0,59.0 60.0,130.0 71.0,141.0 75.0,182.0 63.0,181.0 66.0,172.0 58.0,177.0 59.0,143.0 58.0,185.0 79.0,209.0 95.0,251.0 93.0,335.0 96.0,243.0 75.0,205.0 71.0,141.0 92.0,70.0 113.0,58.0 146.0,57.0 138.0,52.0 159.0,43.0 217.0,54.0 231.0,91.0 239.0,88.0 242.0,103.0 248.0,97.0 265.0,132.0 257.0,203.0 237.0,260.0 205.0,280.0 201.0,274.0 185.0,284.0 153.0,285.0 104.0,264.0 105.0,258.0 132.0,279.0 170.0,286.0 205.0,280.0 236.0,261.0 243.0,339.0 236.0,261.0 254.0,207.0 279.0,172.0 265.0,197.0 256.0,197.0 263.0,172.0 274.0,170.0 264.0,159.0 264.0,137.0 280.0,138.0 279.0,162.0 280.0,138.0 265.0,135.0 279.0,85.0 274.0,35.0 245.0,0.0 279.0,47.0 277.0,102.0 266.0,131.0 219.0,52.0 148.0,40.0 136.0,54.0 102.0,57.0 92.0,70.0 71.0,141.0 55.0,59.0 67.0,28.0 89.0,4.0" stroke="black" stroke-width="1" /></svg>