<?xml version="1.0" encoding="utf-8" ?>
<svg baseProfile="tiny" height="341" version="1.2" width="341" xmlns="http://www.w3.org/2000/svg" xmlns:ev="http://www.w3.org/2001/xml-events" xmlns:xlink="http://www.w3.org/1999/xlink"><defs /><polyline fill="none" points="196.0,283.3333 195.25,283.75 194.6,284.0 193.2,284.8 192.0,285.2 190.8,286.0 188.8,286.6 186.8,287.4 184.8,288.0 182.8,288.8 180.6,289.2 179.2,289.8 175.6,290.2 172.0,290.4 167.8,290.4 164.0,290.2 159.6,289.8 157.4,289.2 154.8,288.8 152.8,288.2 150.8,287.8 149.4,287.2 147.6,286.8 146.2,286.2 144.6,285.8 143.0,285.2 141.8,285.0 141.6,284.8 141.8,285.0 143.0,285.2 144.6,285.8 146.2,286.2 147.6,286.8 149.4,287.2 150.8,287.8 152.8,288.2 154.8,288.8 157.4,289.2 159.6,289.8 164.0,290.2 167.8,290.4 172.0,290.4 175.6,290.2 179.2,289.8 180.6,289.2 182.8,288.8 184.8,288.0 186.8,287.4 188.8,286.6 190.8,286.0 192.0,285.2 193.2,284.8 193.75,284.5 194.3333,284.3333" stroke="black" stroke-width="1" /><polyline fill="none" points="138.0,274.3333 139.0,275.0 140.4,275.4 142.6,276.4 144.6,277.0 146.4,277.8 149.8,278.2 152.6,278.8 158.6,279.2 164.6,279.4 172.4,279.4 178.4,279.2 184.6,278.8 187.6,278.2 190.6,277.8 191.8,277.2 193.4,276.8 194.8,276.2 196.2,275.8 197.6,275.2 198.6,275.0 198.8,274.8 198.6,275.0 197.6,275.2 196.2,275.8 194.8,276.2 193.4,276.8 191.8,277.2 190.6,277.8 187.6,278.2 184.6,278.8 178.4,279.2 172.4,279.4 164.6,279.4 158.6,279.2 152.6,278.8 149.8,278.2 146.4,277.8 144.6,277.0 142.6,276.4 141.5,276.0 140.0,275.6667" stroke="black" stroke-width="1" /><polyline fill="none" points="148.6667,227.3333 149.75,228.25 150.2,229.0 152.2,230.0 151.4,231.6 150.0,233.0 148.2,233.4 146.4,233.6 144.6,233.6 143.2,233.0 141.8,232.0 140.8,231.2 140.25,230.75 139.6667,230.3333" stroke="black" stroke-width="1" /><polyline fill="none" points="162.6667,222.3333 165.25,222.75 166.4,223.4 168.6,224.0 170.4,225.0 168.2,226.0 165.2,226.2 163.75,226.25 162.0,226.3333" stroke="black" stroke-width="1" /><polyline fill="none" points="158.0,214.3333 159.0,214.5 159.8,214.6 161.4,214.8 163.8,215.2 165.6,215.4 167.8,215.4 170.0,215.2 173.0,214.8 175.2,214.6 177.4,214.6 179.2,214.8 181.0,215.2 182.0,215.8 183.2,216.2 184.6,217.0 184.8,218.6 184.4,220.2 183.6,221.4 182.2,222.8 179.2,223.8 176.8,223.4 172.4,223.0 168.0,223.0 161.6,222.8 158.4,222.6 155.8,223.0 155.6,223.8 155.4,224.6 154.2,225.4 150.6,226.6 146.4,227.6 142.0,228.0 137.4,228.2 135.8,228.2 134.6,227.4 134.2,226.2 134.4,225.2 135.4,223.8 136.8,222.6 138.4,221.6 140.0,221.0 141.4,220.2 142.6,219.8 144.0,219.0 145.4,218.4 146.6,217.6 148.0,217.0 149.4,216.2 150.0,216.0 150.6667,215.6667" stroke="black" stroke-width="1" /><polyline fill="none" points="155.0,214.6667 154.0,215.0 153.0,215.2 151.2,215.8 149.4,216.2 148.0,217.0 146.6,217.6 145.4,218.4 144.0,219.0 142.6,219.8 141.4,220.2 140.0,221.0 138.4,221.6 136.6,222.8 134.6,223.8 133.2,224.8 132.6,225.8 132.8,226.8 133.8,227.4 135.4,228.0 137.2,229.2 138.8,230.0 140.2,231.0 141.6,231.8 143.2,233.0 144.8,233.6 146.4,234.4 148.4,234.4 153.4,234.4 158.2,233.8 164.0,233.2 169.8,232.2 175.0,231.6 177.0,231.2 178.6,231.2 177.0,231.2 175.0,231.6 169.8,232.2 164.4,232.4 159.4,232.2 156.0,231.4 153.0,230.2 153.8,229.0 155.0,227.8 156.2,226.8 157.6,226.6 160.4,226.6 162.8,226.4 165.4,226.4 168.2,226.0 172.0,225.4 174.4,225.0 176.8,224.6 179.4,224.2 182.0,224.6 184.6,225.0 187.2,225.4 190.0,226.0 192.6,226.2 195.2,226.0 196.8,226.0 198.4,225.8 199.8,225.8 201.4,226.2 202.0,226.6 202.2,226.6 202.0,226.6 201.4,226.2 200.0,225.8 198.8,225.0 197.2,224.4 195.2,223.2 193.2,222.2 190.8,220.6 188.4,219.4 186.4,218.0 184.8,217.2 183.2,216.2 182.0,215.8 181.0,215.2 179.2,214.8 177.4,214.6 175.2,214.6 173.0,214.8 170.0,215.2 167.8,215.4 165.6,215.4 163.8,215.2 162.5,215.0 162.0,214.6667" stroke="black" stroke-width="1" /><polyline fill="none" points="147.0,191.3333 147.75,191.75 148.2,192.4 148.4,193.6 147.8,195.0 146.4,195.8 144.6,195.8 143.0,195.2 142.0,194.5 141.3333,193.3333" stroke="black" stroke-width="1" /><polyline fill="none" points="183.6667,189.3333 184.5,189.5 185.4,189.6 187.4,190.2 189.2,191.4 190.0,193.0 190.0,194.4 188.8,195.0 187.0,194.8 185.0,194.0 183.75,193.25 182.6667,192.0" stroke="black" stroke-width="1" /><polyline fill="none" points="174.6667,185.3333 176.75,186.25 177.8,187.0 179.8,188.0 181.4,189.4 181.2,190.8 179.8,191.0 178.2,191.0 176.2,190.4 175.0,190.0 174.0,189.3333" stroke="black" stroke-width="1" /><polyline fill="none" points="155.6667,185.6667 156.5,186.25 156.6,187.0 157.4,188.0 156.6,189.4 155.0,190.4 153.2,191.4 151.4,191.6 150.0,191.4 149.2,190.6 148.8,189.6 148.5,188.75 148.6667,188.0" stroke="black" stroke-width="1" /><polyline fill="none" points="166.0,184.3333 167.25,184.5 168.2,184.8 170.0,186.0 170.8,187.4 171.4,188.8 171.2,190.4 170.6,191.8 169.8,192.6 168.2,193.2 166.2,193.2 164.4,192.6 162.4,191.6 161.0,191.0 160.3333,190.0" stroke="black" stroke-width="1" /><polyline fill="none" points="69.6667,175.3333 70.5,175.5 71.0,176.4 72.2,177.4 73.2,179.2 73.4,181.2 72.8,183.0 72.0,183.8 70.8,184.4 69.4,184.2 68.2,183.6 67.8,182.8 67.5,182.5 67.3333,182.0" stroke="black" stroke-width="1" /><polyline fill="none" points="67.3333,168.3333 68.25,168.75 68.8,169.8 69.6,171.0 70.0,172.4 69.8,174.0 69.2,176.2 68.4,177.8 67.8,179.6 67.2,181.6 66.6,183.4 65.8,184.0 65.0,184.4 63.8,184.0 62.8,182.2 62.2,180.2 61.8,178.0 61.8,175.6 62.2,173.4 63.0,172.0 63.25,171.25 63.6667,170.6667" stroke="black" stroke-width="1" /><polyline fill="none" points="184.6667,167.0 185.25,167.75 185.6,168.4 187.4,170.6 189.0,172.8 190.8,175.0 192.2,177.0 193.8,179.0 194.2,180.0 194.8,181.0 195.2,183.2 195.0,185.8 194.4,188.2 193.2,189.8 191.4,191.2 189.4,191.0 187.4,190.2 184.8,188.6 180.6,187.6 176.6,186.4 172.2,185.4 168.2,184.2 165.0,183.4 163.8,182.4 162.6,181.6 161.2,180.0 160.0,178.2 158.8,177.2 158.6,177.2 158.8,177.2 160.0,178.2 161.2,180.2 161.8,182.4 161.4,183.8 160.4,184.8 158.0,185.6 155.2,186.2 153.0,186.4 150.8,186.8 149.0,187.8 148.0,189.2 146.6,190.2 145.0,191.2 143.6,192.4 142.8,194.0 143.0,195.2 144.6,195.8 146.4,195.8 148.4,195.2 150.2,194.0 151.8,192.4 153.2,191.4 154.8,190.6 156.6,190.0 158.2,189.6 159.4,190.0 160.6,190.8 162.6,191.8 164.4,192.6 166.2,193.2 168.2,193.2 169.8,192.6 170.8,191.6 171.8,191.0 173.0,190.4 174.4,190.4 176.4,190.6 178.2,191.0 180.0,191.4 181.4,192.0 183.2,193.0 184.4,194.4 185.4,195.8 186.4,196.8 187.8,197.6 188.8,197.2 189.8,196.2 191.6,194.6 193.2,191.8 194.2,188.8 194.8,186.0 195.2,183.2 194.8,181.0 194.2,180.0 193.8,179.0 192.2,177.0 190.8,175.0 189.0,172.8 187.4,170.6 186.0,169.0 185.6667,168.3333" stroke="black" stroke-width="1" /><polyline fill="none" points="150.3333,166.0 149.75,166.5 149.2,167.0 148.4,168.2 147.2,169.4 146.4,170.4 145.2,172.0 144.2,173.6 143.0,175.2 142.2,176.6 140.8,178.4 140.6,179.0 140.4,179.2 140.6,179.0 140.8,178.4 142.2,176.6 143.0,175.2 144.2,173.6 145.2,172.0 146.4,170.4 147.2,169.4 148.4,168.2 148.75,167.75 149.3333,167.3333" stroke="black" stroke-width="1" /><polyline fill="none" points="273.0,162.3333 273.75,162.75 274.2,164.4 274.8,166.2 275.2,168.4 274.4,171.6 272.6,174.4 270.4,175.4 268.4,175.8 266.6,175.8 265.8,173.8 265.8,171.6 266.2,169.4 266.8,167.4 267.6,165.6 268.6,164.6 269.0,164.0 269.6667,163.6667" stroke="black" stroke-width="1" /><polyline fill="none" points="216.0,143.6667 216.25,144.75 216.6,145.6 217.2,146.8 217.4,148.4 215.8,149.8 214.0,150.6 211.4,151.2 208.6,151.4 205.6,151.4 203.6,150.8 201.8,149.6 201.0,148.0 201.0,146.6 201.6,145.4 203.8,144.8 206.2,144.4 207.5,144.5 208.6667,144.6667" stroke="black" stroke-width="1" /><polyline fill="none" points="278.0,141.3333 278.5,141.5 278.8,142.0 279.6,142.6 280.2,144.6 280.4,146.8 280.4,149.0 280.2,151.0 279.4,152.8 278.4,153.2 277.6,153.0 276.6,152.4 275.8,150.2 275.6,147.8 275.5,146.5 275.3333,145.0" stroke="black" stroke-width="1" /><polyline fill="none" points="62.0,140.3333 63.25,141.25 64.0,142.0 65.4,143.0 66.6,144.6 67.8,146.4 68.2,148.4 68.4,150.4 67.8,152.2 67.8,153.6 67.8,155.0 67.8,157.6 67.8,160.2 68.2,162.8 67.8,165.6 67.0,168.2 65.8,169.0 64.8,169.8 63.8,170.8 63.0,172.0 62.2,173.4 61.8,174.8 61.2,176.2 60.4,177.4 59.4,178.0 58.6,177.2 57.6,175.8 56.8,173.4 56.2,170.8 55.8,168.0 55.2,166.2 54.8,163.8 54.6,162.0 54.6,159.6 54.8,157.4 55.2,154.8 55.8,152.8 56.2,150.8 56.8,149.4 57.6,148.2 58.8,148.0 59.8,148.6 60.6,149.6 61.2,151.2 61.2,153.0 60.8,154.6 60.2,155.8 60.0,156.6 60.0,157.2 60.2,158.2 60.2,159.2 60.4,160.6 60.4,161.6 60.4,162.2 60.4,161.6 60.4,160.6 60.4,158.8 60.6,157.4 60.6,155.8 60.8,154.6 61.2,153.0 61.2,151.2 60.6,149.6 59.8,148.2 58.8,146.8 57.6,145.8 56.8,144.8 56.6,143.6 56.5,143.0 56.3333,142.3333" stroke="black" stroke-width="1" /><polyline fill="none" points="110.3333,138.3333 111.5,138.5 112.2,139.0 113.8,139.6 115.0,140.6 115.2,141.8 115.0,143.0 112.2,143.8 109.0,144.2 106.0,144.0 103.4,143.2 101.6,142.2 102.6,141.0 103.25,140.25 104.3333,139.6667" stroke="black" stroke-width="1" /><polyline fill="none" points="119.6667,137.3333 122.0,137.5 124.2,137.6 128.2,138.0 132.0,139.4 133.0,141.2 133.4,142.8 132.8,144.6 130.2,146.0 127.4,146.4 125.0,146.2 122.4,145.4 119.6,144.4 118.2,143.2 117.5,142.5 116.3333,141.6667" stroke="black" stroke-width="1" /><polyline fill="none" points="113.3333,137.6667 112.0,138.0 110.8,138.2 108.6,138.8 106.0,139.2 103.6,140.6 101.8,141.4 100.8,142.6 102.6,143.6 105.6,145.2 110.0,145.8 114.2,146.6 120.0,147.0 123.4,147.2 126.6,146.8 129.6,146.6 133.4,146.6 135.4,146.4 137.2,145.8 138.4,145.0 139.0,144.0 137.8,142.2 135.6,140.6 133.2,139.4 131.75,138.75 130.0,137.6667" stroke="black" stroke-width="1" /><polyline fill="none" points="216.0,134.6667 218.0,134.75 219.4,135.0 222.0,135.2 224.6,135.8 227.2,136.2 228.6,136.8 229.8,137.6 230.2,138.6 229.8,139.4 229.0,140.4 226.2,141.2 223.0,142.0 219.2,142.6 215.8,143.4 211.6,144.0 209.0,144.4 206.4,144.4 204.0,143.8 201.6,143.0 200.0,142.0 198.8,141.0 198.0,139.8 198.2,138.8 199.0,137.8 200.2,136.8 200.75,136.25 201.6667,135.6667" stroke="black" stroke-width="1" /><polyline fill="none" points="211.3333,134.6667 209.0,135.0 207.2,135.2 203.6,136.0 200.2,136.8 198.6,138.2 197.0,139.4 195.6,140.8 194.8,142.0 194.2,143.0 194.6,143.8 195.4,144.6 196.6,145.4 197.6,146.2 199.0,147.6 200.4,148.6 201.8,149.8 203.6,150.8 205.6,151.4 208.6,151.4 211.4,151.2 214.0,150.6 215.8,149.8 217.4,148.4 217.2,146.8 217.0,145.2 218.6,143.8 220.6,142.4 223.4,141.8 226.6,141.6 230.6,141.6 233.0,141.4 235.4,141.4 237.2,141.2 239.2,140.8 239.8,140.4 240.0,140.4 239.8,140.2 239.4,140.0 238.4,139.6 237.4,139.2 236.4,138.4 234.6,137.8 232.6,137.2 230.2,136.8 228.0,136.2 224.6,135.8 223.5,135.5 222.0,135.3333" stroke="black" stroke-width="1" /><polyline fill="none" points="177.3333,133.6667 178.0,134.75 179.4,136.4 181.6,138.8 184.0,141.0 185.4,142.2 186.4,143.2 185.4,142.2 184.0,141.0 181.6,138.8 180.25,137.75 178.6667,136.0" stroke="black" stroke-width="1" /><polyline fill="none" points="111.0,110.3333 112.5,110.5 116.6,110.6 121.8,110.4 127.0,110.6 131.4,110.8 135.8,111.0 137.2,111.2 138.6,111.8 140.0,112.2 141.2,113.0 142.2,114.8 142.8,116.8 142.8,118.6 142.4,120.6 141.2,122.2 139.6,122.2 138.4,122.2 137.0,122.8 135.4,123.2 134.0,123.4 132.8,124.0 131.2,124.2 130.0,123.8 129.0,123.2 128.0,122.8 127.0,122.2 125.8,121.8 124.6,121.2 122.6,120.8 120.6,120.2 118.4,119.8 116.4,119.2 113.0,118.8 110.4,118.6 106.8,118.6 103.4,118.4 100.2,118.0 99.0,117.2 98.2,116.2 98.8,115.0 100.0,114.0 101.4,113.2 102.8,112.8 104.2,112.2 105.0,112.0 105.6667,111.6667" stroke="black" stroke-width="1" /><polyline fill="none" points="108.0,110.6667 107.5,111.0 106.8,111.2 105.6,111.8 104.2,112.2 102.8,112.8 101.4,113.2 100.0,114.0 98.8,114.8 97.8,115.8 96.8,116.4 96.2,117.2 96.2,117.6 96.4,118.0 98.0,118.2 100.0,118.4 103.4,118.4 106.8,118.6 110.4,118.6 113.0,118.8 116.4,119.2 118.4,119.8 120.6,120.2 122.6,120.8 124.6,121.2 125.8,121.8 127.0,122.2 128.0,122.8 129.0,123.2 130.0,123.8 131.2,124.2 132.4,124.8 133.4,125.6 135.0,127.2 135.6,127.8 135.8,128.0 136.4,127.4 137.4,126.4 137.8,124.4 139.4,123.2 141.2,122.2 142.4,121.0 143.4,119.6 144.6,118.8 145.8,118.0 147.0,117.6 148.4,118.0 150.0,119.0 151.4,119.6 152.8,120.6 154.0,122.4 154.4,124.8 153.8,126.8 152.8,129.0 151.2,130.8 149.8,131.6 149.2,131.6 149.8,131.6 151.2,130.8 152.8,129.2 154.6,127.2 156.0,125.6 156.6,124.0 156.2,122.6 155.6,122.0 154.2,121.4 152.8,120.6 151.4,119.6 150.0,119.0 147.8,117.4 145.8,116.2 143.8,114.8 141.8,113.6 140.0,112.2 138.6,111.8 137.2,111.2 135.8,111.0 131.4,110.8 127.0,110.6 125.0,110.5 122.0,110.6667" stroke="black" stroke-width="1" /><polyline fill="none" points="204.3333,106.3333 205.5,106.5 207.0,106.6 209.4,106.8 211.6,108.0 212.6,109.4 213.0,110.6 212.4,111.6 211.0,112.4 209.4,112.2 207.8,112.0 206.2,111.8 204.6,112.0 203.4,112.2 202.2,112.8 200.6,113.2 199.0,113.2 197.6,112.8 196.0,112.0 195.0,110.6 194.5,109.75 194.3333,109.0" stroke="black" stroke-width="1" /><polyline fill="none" points="219.3333,105.3333 220.75,105.75 222.0,106.0 224.2,106.4 227.0,107.0 229.0,107.8 231.0,108.2 233.2,109.2 234.8,110.4 234.6,111.6 234.0,112.4 232.6,113.2 230.4,113.2 226.2,112.8 222.8,112.2 219.6,111.0 217.0,109.6 214.5,109.0 214.3333,108.0" stroke="black" stroke-width="1" /><polyline fill="none" points="216.6667,105.6667 216.0,106.0 214.6,106.2 212.6,106.4 209.8,106.4 207.2,106.6 203.4,106.6 199.8,107.4 196.0,108.4 193.0,109.6 189.8,110.6 187.8,111.8 185.8,112.2 184.0,112.8 182.4,115.2 181.4,117.8 180.4,120.0 180.2,120.2 180.4,120.0 181.4,117.8 182.4,115.2 184.0,112.8 185.8,112.2 187.8,111.8 189.2,111.2 190.8,111.2 192.2,111.2 193.8,111.8 195.6,112.4 197.4,113.0 199.0,113.2 200.6,113.2 202.2,112.8 203.4,112.2 204.6,112.0 206.2,111.8 207.8,112.0 209.0,112.6 209.2,114.2 209.0,115.6 207.6,117.6 206.0,119.6 203.8,121.8 202.2,123.2 200.4,125.0 199.6,125.8 199.0,126.4 199.6,125.8 200.4,125.0 202.2,123.2 203.8,121.8 206.0,119.6 207.6,117.8 209.4,116.0 210.8,114.8 212.2,113.4 215.4,112.8 218.8,112.6 222.4,112.6 226.0,112.8 230.4,113.2 232.6,113.2 235.0,113.0 237.2,112.6 239.0,112.2 239.4,111.8 238.8,111.2 237.4,110.6 235.6,110.0 233.2,109.2 231.0,108.2 229.0,107.8 227.0,107.0 225.75,106.75 225.0,106.3333" stroke="black" stroke-width="1" /><polyline fill="none" points="234.0,88.6667 234.5,89.25 235.0,89.8 236.0,91.2 236.4,92.8 236.0,94.0 234.8,94.2 233.4,93.8 232.5,93.5 231.3333,92.6667" stroke="black" stroke-width="1" /><polyline fill="none" points="73.3333,17.3333 68.0,28.25 64.8,38.2 58.8,63.0 55.2,85.6 55.8,103.0 57.4,117.0 58.4,128.0 58.2,131.2 58.2,134.4 57.8,138.6 56.6,144.2 56.6,152.0 56.2,160.6 57.0,170.8 61.0,184.0 67.0,199.4 73.8,215.0 81.2,232.6 87.6,254.8 89.8,274.8 89.4,292.0 86.6,306.6 82.6,317.8 76.4,322.8 68.6,327.2 58.0,330.6 53.2,332.8 50.8,333.2 53.2,332.8 59.0,330.2 69.6,327.4 75.2,327.6 79.6,329.6 81.2,331.2 81.8,331.2 83.2,328.8 85.4,322.6 87.4,309.0 89.4,292.0 89.8,274.8 87.6,254.8 81.2,232.6 73.8,214.4 67.6,200.2 63.8,190.0 62.8,184.4 65.6,184.2 69.2,179.2 72.6,169.6 77.2,153.4 80.8,132.2 85.0,108.0 91.8,89.6 106.0,74.8 118.2,65.0 129.6,60.6 139.2,57.6 146.4,55.4 146.4,53.8 154.0,52.4 163.6,51.0 176.2,51.2 189.0,51.8 201.6,53.8 206.8,55.6 211.0,57.6 213.8,59.2 216.2,61.8 217.6,63.6 219.6,66.2 221.4,70.4 222.0,73.8 221.6,75.6 222.6,78.4 223.4,80.8 224.2,83.0 226.4,85.8 230.4,89.4 234.4,94.0 238.4,98.6 244.2,105.6 250.0,118.4 254.4,137.2 258.6,151.8 263.2,166.4 266.6,175.2 269.2,176.0 270.4,169.4 271.4,161.2 272.0,152.2 273.0,145.4 274.0,140.4 275.8,137.8 277.2,141.0 278.8,146.0 278.4,154.4 275.4,166.4 271.8,179.4 267.0,194.8 259.0,214.4 251.0,240.0 246.2,263.0 245.6,286.6 245.4,308.4 248.0,323.6 251.0,327.4 252.4,328.8 251.8,327.0 253.4,323.0 256.0,321.8 259.8,321.8 270.0,325.4 274.4,327.2 276.0,328.6 274.0,327.0 268.2,325.0 256.0,318.6 249.6,304.6 245.8,287.8 245.8,265.8 251.8,240.2 260.0,213.8 268.0,194.2 274.2,176.6 279.0,165.2 280.4,155.0 279.4,146.8 277.6,140.8 276.8,134.6 276.8,123.8 277.2,106.2 277.0,85.0 275.4,62.2 270.4,37.8 267.0,21.2 265.2,17.0 267.0,21.2 270.4,37.8 275.4,62.2 277.0,85.0 276.6,106.2 273.8,123.8 270.8,134.0 269.0,140.6 269.2,147.4 268.2,153.6 267.4,161.0 266.6,165.8 266.0,166.6 263.2,159.6 260.0,149.6 256.2,134.8 251.2,119.2 245.2,104.4 239.6,96.8 235.0,91.2 230.6,85.6 226.2,78.4 217.0,70.8 200.4,62.8 183.6,55.8 167.2,53.0 145.8,54.0 127.4,58.6 116.0,64.6 104.8,75.0 91.8,89.6 85.0,110.8 80.2,130.6 75.8,148.4 72.0,157.4 69.0,159.0 66.2,151.6 63.4,138.0 60.4,123.8 57.0,106.2 55.6,87.4 56.2,66.6 59.6,48.8 66.4,29.6 70.0,21.75 75.0,14.0" stroke="black" stroke-width="1" /></svg>